<svg width="260" height="51" viewBox="0 0 260 51" fill="none" xmlns="http://www.w3.org/2000/svg">
<rect x="144.319" width="115.617" height="22.2341" fill="#FF5129"/>
<path d="M20.9235 14.1148L27.2037 14.4257C26.7684 17.0787 25.4523 19.0892 23.2553 20.4572C21.079 21.8251 18.0943 22.5091 14.3014 22.5091C9.78297 22.5091 6.28017 21.5246 3.79297 19.5556C1.30578 17.5658 0.0621799 14.7988 0.0621799 11.2546C0.0621799 7.7103 1.27469 4.95366 3.6997 2.98463C6.12472 0.994878 9.52389 0 13.8972 0C17.4829 0 20.395 0.694342 22.6335 2.08303C24.872 3.45098 26.2399 5.31638 26.7374 7.67921L20.5194 8.08338C20.167 7.23359 19.3898 6.54961 18.1876 6.03145C16.9855 5.51328 15.5553 5.2542 13.8972 5.2542C11.5344 5.2542 9.71043 5.80345 8.42538 6.90197C7.16105 7.97975 6.52889 9.43061 6.52889 11.2546C6.52889 13.0992 7.19214 14.5605 8.51865 15.6382C9.86588 16.716 11.7935 17.2549 14.3014 17.2549C16.1046 17.2549 17.5658 16.9647 18.6851 16.3844C19.825 15.8041 20.5712 15.0475 20.9235 14.1148Z" fill="black"/>
<path d="M47.5292 0.373078H54.5245L46.9385 14.9232C45.9851 16.7471 45.0835 18.1669 44.2337 19.1825C43.4046 20.1774 42.389 20.9546 41.1869 21.5142C39.9847 22.0531 38.5339 22.3226 36.8343 22.3226C35.6114 22.3226 34.202 22.2293 32.6061 22.0428V17.0062C34.0777 17.1306 35.2487 17.1927 36.1192 17.1927C36.8133 17.1927 37.4176 17.1212 37.932 16.978C38.8155 16.7322 39.4342 16.2752 39.7878 15.6072H36.9587L26.6368 0.373078H33.8497L41.7776 13.0578L47.5292 0.373078Z" fill="black"/>
<path d="M82.6888 0.373078V22.136H76.2221V5.65837H63.9105V22.136H57.4438V0.373078H82.6888Z" fill="black"/>
<path d="M87.9265 22.136V0.373078H110.094V5.40965H94.3932V8.70518H106.643V13.4309H94.3932V17.0995H110.684V22.136H87.9265Z" fill="black"/>
<path d="M129.814 0.373078C132.426 0.373078 134.581 0.984514 136.281 2.20739C138.001 3.40953 138.861 5.24384 138.861 7.71031C138.861 10.1768 138.043 11.9696 136.405 13.0889C134.768 14.1874 132.571 14.7366 129.814 14.7366H121.202V22.136H114.736V0.373078H129.814ZM129.503 9.76224C131.431 9.76224 132.395 9.07826 132.395 7.71031C132.395 6.34235 131.431 5.65837 129.503 5.65837H121.202V9.76224H129.503Z" fill="black"/>
<path d="M22.5402 29.8883C26.4368 29.8883 29.38 30.6759 31.3698 32.2512C33.3802 33.8264 34.3855 36.0234 34.3855 38.8422C34.3855 41.6611 33.3802 43.8581 31.3698 45.4333C29.38 46.9878 26.4368 47.765 22.5402 47.765H20.3017V50.159H14.0837V47.765H11.8453C7.94866 47.765 4.99512 46.9878 2.98464 45.4333C0.994878 43.8581 0 41.6611 0 38.8422C0 36.0234 0.994878 33.8264 2.98464 32.2512C4.99512 30.6759 7.94866 29.8883 11.8453 29.8883H14.0837V28.0229H20.3017V29.8883H22.5402ZM12.2183 42.7596H14.0837V34.8938H12.2183C8.38392 34.8938 6.46671 36.2099 6.46671 38.8422C6.46671 40.148 6.92269 41.1325 7.83467 41.7958C8.76737 42.4383 10.2286 42.7596 12.2183 42.7596ZM22.1671 42.7596C24.1569 42.7596 25.6078 42.4383 26.5197 41.7958C27.4524 41.1325 27.9188 40.148 27.9188 38.8422C27.9188 36.2099 26.0016 34.8938 22.1671 34.8938H20.3017V42.7596H22.1671Z" fill="black"/>
<path d="M40.8966 47.5474C38.3473 45.5577 37.0726 42.801 37.0726 39.2775C37.0726 35.754 38.3473 32.9973 40.8966 31.0076C43.446 29.0178 46.9903 28.0229 51.5294 28.0229C56.0685 28.0229 59.6128 29.0178 62.1622 31.0076C64.7115 32.9973 65.9862 35.754 65.9862 39.2775C65.9862 42.801 64.7115 45.5577 62.1622 47.5474C59.6128 49.5372 56.0685 50.532 51.5294 50.532C46.9903 50.532 43.446 49.5372 40.8966 47.5474ZM45.6223 34.9249C44.2336 36.0027 43.5393 37.4535 43.5393 39.2775C43.5393 41.1014 44.2336 42.5627 45.6223 43.6612C47.0317 44.739 49.0008 45.2779 51.5294 45.2779C54.0581 45.2779 56.0167 44.739 57.4054 43.6612C58.8148 42.5627 59.5195 41.1014 59.5195 39.2775C59.5195 37.4535 58.8148 36.0027 57.4054 34.9249C56.0167 33.8264 54.0581 33.2771 51.5294 33.2771C49.0008 33.2771 47.0317 33.8264 45.6223 34.9249Z" fill="black"/>
<path d="M85.0312 28.396C87.6428 28.396 89.7984 29.0074 91.498 30.2303C93.2183 31.4325 94.0784 33.2668 94.0784 35.7332C94.0784 38.1997 93.2597 39.9926 91.6223 41.1118C89.9849 42.2103 87.7879 42.7596 85.0312 42.7596H76.4193V50.159H69.9526V28.396H85.0312ZM84.7204 37.7852C86.6479 37.7852 87.6117 37.1012 87.6117 35.7332C87.6117 34.3653 86.6479 33.6813 84.7204 33.6813H76.4193V37.7852H84.7204Z" fill="black"/>
<path d="M120.52 28.396H131.837L131.806 50.159H125.619V31.9092L119.183 50.159H110.447L104.011 31.9092V50.159H97.8243V28.396H109.141L114.893 46.366L120.52 28.396Z" fill="black"/>
<path d="M157.228 50.159L155.456 45.9618H142.896L141.124 50.159H134.75L144.295 28.396H154.244L163.82 50.159H157.228ZM144.979 41.1118H153.404L149.176 31.163L144.979 41.1118Z" fill="black"/>
<path d="M161.6 33.6813V28.396H186.41V33.6813H177.238V50.159H170.771V33.6813H161.6Z" fill="black"/>
<path d="M187.532 50.159V44.1897H194.247V50.159H187.532Z" fill="black"/>
<path d="M214.127 28.396C216.739 28.396 218.895 29.0074 220.594 30.2303C222.314 31.4325 223.175 33.2668 223.175 35.7332C223.175 38.1997 222.356 39.9926 220.718 41.1118C219.081 42.2103 216.884 42.7596 214.127 42.7596H205.515V50.159H199.049V28.396H214.127ZM213.816 37.7852C215.744 37.7852 216.708 37.1012 216.708 35.7332C216.708 34.3653 215.744 33.6813 213.816 33.6813H205.515V37.7852H213.816Z" fill="black"/>
<path d="M248.155 29.8883C252.051 29.8883 254.995 30.6759 256.984 32.2512C258.995 33.8264 260 36.0234 260 38.8422C260 41.6611 258.995 43.8581 256.984 45.4333C254.995 46.9878 252.051 47.765 248.155 47.765H245.916V50.159H239.698V47.765H237.46C233.563 47.765 230.61 46.9878 228.599 45.4333C226.61 43.8581 225.615 41.6611 225.615 38.8422C225.615 36.0234 226.61 33.8264 228.599 32.2512C230.61 30.6759 233.563 29.8883 237.46 29.8883H239.698V28.0229H245.916V29.8883H248.155ZM237.833 42.7596H239.698V34.8938H237.833C233.999 34.8938 232.081 36.2099 232.081 38.8422C232.081 40.148 232.537 41.1325 233.449 41.7958C234.382 42.4383 235.843 42.7596 237.833 42.7596ZM247.782 42.7596C249.772 42.7596 251.222 42.4383 252.134 41.7958C253.067 41.1325 253.533 40.148 253.533 38.8422C253.533 36.2099 251.616 34.8938 247.782 34.8938H245.916V42.7596H247.782Z" fill="black"/>
<path d="M37.932 16.978C38.8155 16.7322 39.4342 16.2752 39.7878 15.6072H36.9587L37.932 16.978Z" fill="black"/>
</svg>
