<svg width="132" height="138" viewBox="0 0 132 138" fill="none" xmlns="http://www.w3.org/2000/svg">
<path d="M99.1777 118.018V132.573H105.598V127.244H112.641V124.061H105.598V121.212H119.577V132.573H125.997V121.212H131.805V118.018H99.1777Z" fill="#CDCDCD"/>
<path d="M85.4256 129.414V126.887H93.7893V123.704H85.4256V121.212H96.1654V118.018H79.0059V132.573H96.2974V129.414H85.4256Z" fill="#CDCDCD"/>
<path d="M17.7714 118.018H0V121.212H5.68788V132.573H12.0957V121.212H17.7714V118.018Z" fill="#CDCDCD"/>
<path d="M30.444 118.018H23.5681L15.5645 132.573H19.7282L21.0482 130.069H30.036L31.3438 132.573H38.4476L30.444 118.018ZM22.6321 127.101L25.596 121.475L28.44 127.101H22.6321Z" fill="#CDCDCD"/>
<path d="M71.1338 118.018V125.289L60.8742 118.018H55.9062V132.573H60.2983V124.562L70.8217 132.573H75.5257V118.018H71.1338Z" fill="#CDCDCD"/>
<path d="M53.7236 118.018H36.3242V121.212H41.9999V132.573H48.4197V121.212H53.7236V118.018Z" fill="#CDCDCD"/>
<path d="M82.7017 27.2425C89.2894 43.8478 78.5499 54.5049 67.8464 65.1739C57.8987 76.0931 49.127 87.4298 66.7664 107.838C60.1787 91.2323 70.9182 80.6112 81.6098 69.8826C91.5694 58.9632 100.341 47.6268 82.7017 27.2188" fill="#CDCDCD"/>
<path d="M66.7661 6C73.3658 22.6173 62.6141 33.2624 51.9225 43.9314C41.9628 54.8626 33.1911 66.187 50.8425 86.5713C44.3029 69.9897 54.9825 59.3327 65.6861 48.6639C75.6458 37.7444 84.4174 26.408 66.7661 6Z" fill="#CDCDCD"/>
</svg>
