<svg width="183" height="138" viewBox="0 0 183 138" fill="none" xmlns="http://www.w3.org/2000/svg">
<path d="M150.282 59.0122H144.771C143.71 58.9698 142.673 59.3337 141.874 60.029C141.075 60.7244 140.573 61.6983 140.472 62.7506L138.068 75.1747C137.637 77.4336 138.295 78.9245 140.937 78.9245H146.483C147.553 78.9898 148.607 78.6332 149.415 77.9314C150.224 77.2299 150.723 76.2396 150.804 75.1747L153.288 62.7506C153.685 60.5483 153.016 59.0122 150.328 59.0122M148.887 63.5865L146.755 74.3953C146.757 74.4844 146.741 74.5726 146.708 74.6555C146.675 74.7384 146.626 74.8139 146.564 74.8778C146.502 74.9419 146.428 74.993 146.346 75.0284C146.264 75.0639 146.176 75.0829 146.086 75.0843H142.922C142.48 75.0843 142.378 74.9149 142.434 74.4067L144.544 63.5977C144.691 63.112 144.918 62.8862 145.326 62.8862H148.411C148.808 62.8862 149.012 63.112 148.933 63.5977M133.463 75.0731L136.616 59.0122H127.997C126.917 58.9339 125.85 59.2824 125.026 59.9821C124.203 60.6819 123.689 61.6766 123.597 62.7506L120.115 75.0731H118.311L117.518 78.9697H133.962L134.745 75.0731H133.463ZM131.581 62.875L129.131 75.0731H124.594L127.725 63.5865C127.725 63.3978 127.8 63.2167 127.934 63.0833C128.068 62.9499 128.25 62.875 128.439 62.875H131.569H131.581ZM115.703 78.9697L116.236 59.1364H110.429L100.835 79.0374H105.462L107.061 75.3553H111.212L110.906 79.0374L115.703 78.9697ZM112.108 64.2867L111.484 72.0686H108.467L111.87 64.2867H112.108ZM103.341 62.7506C103.795 60.5483 103.114 59.0122 100.438 59.0122H91.3649L87.4294 78.9697H91.5917L92.7258 73.1867H97.7159C100.381 73.1867 101.481 71.5829 101.98 69.3806L103.341 62.7506ZM98.9974 63.5865L97.9768 68.5674C97.8519 69.1094 97.6025 69.279 97.1602 69.279H93.4857L94.8125 62.875H98.5098C98.9521 62.875 99.1109 63.1008 99.0541 63.5865M86.7829 62.7506C87.2139 60.5483 86.5449 59.0122 83.8569 59.0122H78.4019C77.3067 58.9293 76.2221 59.2726 75.376 59.9697C74.5299 60.6671 73.9885 61.6638 73.8653 62.7506L71.4836 75.1747C71.0866 77.4336 71.7333 78.9245 74.3643 78.9245H79.8761C80.9523 78.999 82.0143 78.6467 82.8302 77.944C83.6462 77.2415 84.1499 76.2459 84.2311 75.1747L86.7829 62.7506ZM82.4167 63.5865L80.3637 74.3953C80.3308 74.5906 80.2273 74.7674 80.0728 74.8922C79.9184 75.017 79.7233 75.0813 79.5246 75.0731H76.4398C76.0314 75.0731 75.8954 74.9036 75.9522 74.3953L78.0955 63.5865C78.0955 63.1008 78.3791 62.875 78.8668 62.875H81.9062C82.2805 62.875 82.5187 63.1008 82.3939 63.5865M67.4689 75.0731L70.6104 59.0122H62.0138C60.946 58.9552 59.8978 59.3131 59.0898 60.0105C58.2816 60.7078 57.7768 61.6901 57.6813 62.7506L54.1316 75.0731H52.3511L51.5345 78.9697H68.0019L68.7731 75.0731H67.4689ZM65.6202 62.875L63.1933 75.0731H58.6567L61.787 63.5865C61.784 63.494 61.7995 63.402 61.8329 63.3159C61.8662 63.2296 61.9168 63.151 61.9813 63.0847C62.046 63.0182 62.1233 62.9654 62.2087 62.9295C62.294 62.8933 62.3859 62.8748 62.4787 62.875H65.6202ZM51.4097 69.1885C51.8293 66.9297 51.1375 65.3485 48.4723 65.3485H43.5617L44.8318 59.0122H40.5562L36.632 78.9697H45.8299C46.9071 79.0443 47.9705 78.6923 48.7882 77.9899C49.606 77.2876 50.1121 76.2921 50.1961 75.2199L51.4097 69.1885ZM47.0321 69.6967L46.1474 74.5647C46.1248 74.7793 46.023 74.978 45.8616 75.122C45.7003 75.2662 45.4908 75.3453 45.2741 75.3441H41.6677L42.9378 68.974H46.567C46.9867 68.974 47.1455 69.1773 47.0321 69.6856M32.5038 78.9697L36.4054 59.1364H27.3324C26.2552 59.0643 25.1926 59.4152 24.372 60.1141C23.5516 60.8129 23.0388 61.804 22.9434 62.875L18.2821 79.0262H22.8185L27.0149 63.643C27.0133 63.551 27.03 63.4597 27.064 63.374C27.0979 63.2885 27.1485 63.2105 27.2128 63.1444C27.2769 63.0783 27.3535 63.0255 27.4384 62.989C27.5231 62.9525 27.6142 62.9329 27.7066 62.9313H31.4378L28.1943 78.9697H32.5038ZM18.9625 62.7506C19.3821 60.5483 18.7357 59.0122 16.1046 59.0122H7.91616L7.14496 62.875H14.1198C14.5393 62.875 14.6642 63.1008 14.6074 63.5865L13.723 68.172H9.37919L10.0483 64.9982L0 69.7872H7.46252L6.81607 72.9497L13.4508 69.8098L12.5661 74.3276C12.5405 74.5285 12.4373 74.7114 12.2785 74.838C12.1198 74.9645 11.9179 75.0244 11.7156 75.0052H4.75196L4.01479 78.9018H12.2258C13.2826 78.9765 14.3263 78.6308 15.1277 77.9406C15.9291 77.2504 16.4231 76.2721 16.5014 75.2199V75.152L18.9625 62.7506ZM153.208 74.3728L152.313 78.9697H156.531L157.439 74.3728H153.208ZM182.435 64.9982H179.361L177.275 75.6716C177.282 75.7213 177.278 75.7719 177.262 75.8196C177.247 75.8673 177.22 75.9108 177.185 75.947C177.15 75.9829 177.107 76.0105 177.06 76.0273C177.012 76.0442 176.962 76.05 176.912 76.0442H174.643C174.439 76.0442 174.371 75.954 174.428 75.6716L176.469 64.9982H173.362L171.196 76.1347C170.867 77.8062 171.309 78.9697 173.339 78.9697H176.866C177.27 79.0004 177.676 78.9513 178.061 78.8255C178.446 78.6995 178.801 78.499 179.108 78.2356C179.415 77.972 179.666 77.6508 179.848 77.2902C180.029 76.9297 180.138 76.5371 180.166 76.1347L182.435 64.9982ZM168.156 64.9982H161.816L159.151 78.9697H162.021L162.848 74.994H164.289L164.912 78.9697H168.122L167.272 74.8133C167.821 74.627 168.304 74.2873 168.664 73.8346C169.024 73.3818 169.245 72.8355 169.302 72.2607L170.22 67.6187C170.538 66.0826 170.062 64.9644 168.19 64.9644M167.147 68.172L166.432 71.5604C166.353 71.9444 166.183 72.0574 165.877 72.0574H163.325L164.243 67.5396H166.784C167.079 67.5396 167.192 67.7089 167.158 68.0478" fill="#CDCDCD"/>
</svg>
