<svg width="136" height="138" viewBox="0 0 136 138" fill="none" xmlns="http://www.w3.org/2000/svg">
<path d="M98.3091 73.2206H92.8707V97.6606H99.2555L107.349 81.1323H107.473L107.098 97.6606H112.536V73.2206H106.151L98.0537 89.7488H97.9297L98.3053 73.2206H98.3091ZM38.858 85.5511V85.2587C38.858 80.0418 42.3472 77.9693 48.0334 77.9693C53.7197 77.9693 57.2502 80.0418 57.2502 85.2587V85.5511C57.2502 90.7683 53.7235 92.8821 48.0334 92.8821C42.3434 92.8821 38.858 90.7269 38.858 85.5511ZM32.4242 85.881C32.4242 93.3392 38.61 98.1854 48.0334 98.1854C57.4569 98.1854 63.684 93.3806 63.684 85.881V84.929C63.684 77.4744 57.4569 72.7109 48.0334 72.7109C38.61 72.7109 32.4242 77.4744 32.4242 84.929V85.8848V85.881ZM135.962 73.2206H120.393L120.187 86.7505C120.104 90.8957 119.481 92.3423 117.239 92.3423H115.826V97.6456H117.404C123.413 97.6456 125.167 95.2432 125.332 86.7505L125.456 77.8868H130.523V97.6456H135.92V73.2206H135.962ZM0 97.6456H5.60361L5.35578 81.466H5.47979L11.583 97.6643H17.1867L23.1961 81.466H23.3201L23.072 97.6643H28.6758V73.2206H20.965L14.4488 91.2667H14.3247L7.72203 73.2206H0V97.6606V97.6456ZM80.8709 92.9233H73.1488V88.3245H80.8709C82.6999 88.3245 83.4999 89.108 83.4999 90.6409C83.4999 92.1736 82.7111 92.9195 80.8709 92.9195V92.9233ZM67.3799 73.2206V97.6606H80.6642C85.5205 97.6606 89.1337 95.8804 89.1337 90.6594C89.1337 85.4387 85.5618 83.6997 80.6642 83.6997H73.19V78.0104H88.3035V73.2206H67.3799Z" fill="#CDCDCD"/>
<path d="M42.2887 60.9544L35.9714 58.2297C33.9884 61.7752 30.7584 62.5586 26.8373 62.5586C20.3809 62.5586 17.1058 59.7027 17.1058 54.3657V53.9908C17.1058 48.6538 20.3809 45.7979 26.8373 45.7979C30.7584 45.7979 33.9734 46.5476 35.9714 50.1268L42.2887 47.4095C39.284 41.2443 33.2033 40 26.8373 40C16.5537 40 10.0938 45.2921 10.0938 53.6723V54.6842C10.0938 63.102 16.5537 68.3489 26.8373 68.3489C33.2221 68.304 39.2916 67.1084 42.2887 60.9394V60.9544ZM102.48 40.6147H95.7946V67.7718H103.22L119.039 48.8599H119.178L119.088 67.7756H125.777V40.6147H118.348L102.536 59.5266H102.397L102.484 40.6147H102.48ZM51.9752 40.6147H45.9357V67.7718H53.038L62.0295 49.4071H62.1685L61.7554 67.7718H67.7985V40.6147H60.6961L51.7459 58.9794H51.607L51.9826 40.6147H51.9752ZM78.683 45.9517V67.7231H84.9552V45.9479H92.2415V40.6147H71.3965V45.9479L78.683 45.9517Z" fill="#CDCDCD"/>
</svg>
