<svg width="160" height="138" viewBox="0 0 160 138" fill="none" xmlns="http://www.w3.org/2000/svg">
<g clip-path="url(#clip0_2028_1586)">
<path d="M120.25 46.6971H152.881C153.631 46.7556 154.356 46.9918 154.994 47.3856C155.632 47.7795 156.164 48.3193 156.546 48.9595C157.022 49.7815 157.224 50.73 157.125 51.6716C157.026 52.6132 156.63 53.5003 155.993 54.2082C155.239 55.0442 154.189 55.5634 153.058 55.6589C152.44 55.7126 151.815 55.6872 151.196 55.69H121.021C120.593 55.6756 120.168 55.7483 119.77 55.9035C119.373 56.0589 119.012 56.2931 118.711 56.5921C118.243 57.0649 117.945 57.6762 117.863 58.3323C117.781 58.9883 117.92 59.6527 118.258 60.2232C118.526 60.6735 118.91 61.0456 119.371 61.3016C119.832 61.5574 120.354 61.6878 120.883 61.6796C129.734 61.6796 138.587 61.6796 147.442 61.6796C150.532 61.6325 153.525 62.745 155.816 64.7926C158.106 66.8399 159.524 69.6693 159.781 72.7087V74.6005C159.571 77.0149 158.635 79.3124 157.093 81.1982C155.465 83.1766 153.241 84.5929 150.743 85.2421C149.46 85.5573 148.138 85.6933 146.817 85.6465H114.782C113.822 85.6465 112.839 85.7228 111.917 85.4317C111.114 85.1846 110.396 84.7227 109.843 84.0975C109.29 83.4722 108.923 82.7079 108.783 81.8894C108.644 81.0708 108.737 80.23 109.052 79.4606C109.368 78.6912 109.893 78.023 110.57 77.5303C111.384 76.9448 112.367 76.6306 113.375 76.6338C124.519 76.6338 135.662 76.6338 146.806 76.6338C147.516 76.6338 148.27 76.7045 148.923 76.368C149.484 76.1112 149.952 75.6918 150.265 75.1658C150.578 74.6398 150.72 74.0321 150.674 73.4238C150.627 72.8158 150.394 72.2358 150.005 71.7619C149.616 71.288 149.09 70.9426 148.496 70.7714C147.792 70.5905 147.064 70.6867 146.347 70.681H120.872C118.456 70.6754 116.096 69.9672 114.086 68.6448C110.361 66.2242 108.208 61.6712 108.793 57.302C109.163 54.1771 110.766 51.322 113.255 49.3555C115.255 47.7821 117.697 46.854 120.25 46.6971ZM96.1784 46.6971H105.26C105.26 58.2068 105.26 69.7166 105.26 81.2266C105.317 83.3304 103.586 85.2591 101.503 85.5758C100.001 85.8586 98.4452 85.2761 97.3677 84.2382C86.0312 76.1314 74.6824 68.0435 63.3211 59.9744C63.3211 68.5394 63.3211 77.1051 63.3211 85.6721C60.2778 85.6853 57.2346 85.6853 54.1911 85.6721C54.1712 74.2726 54.1911 62.8703 54.1911 51.4707C54.1484 50.3113 54.5412 49.1772 55.2945 48.2865C56.0318 47.4368 57.0618 46.8866 58.1859 46.7424C59.9311 46.5106 60.9971 47.175 62.2838 48.2356C73.5839 56.2933 84.885 64.3454 96.187 72.392C96.187 63.827 96.187 55.2621 96.187 46.6971H96.1784ZM8.95709 55.7268V76.6227H30.8765C32.7594 76.6706 34.6214 76.2229 36.271 75.3252C37.9203 74.4275 39.2978 73.1125 40.2614 71.5153C41.2156 69.9319 41.7284 68.1276 41.7478 66.2853C41.7673 64.4433 41.2929 62.6288 40.3726 61.026C39.4522 59.4232 38.1188 58.089 36.5074 57.1588C34.896 56.2288 33.0642 55.7355 31.1974 55.7296C23.7831 55.7296 16.3696 55.7296 8.95709 55.7296V55.7268ZM-0.212891 46.6971H32.1687C36.8253 46.9453 41.2445 48.8041 44.6506 51.9472C48.0569 55.0903 50.2325 59.3172 50.7954 63.8855C51.1163 66.6292 50.8447 69.4089 49.9984 72.0415C49.1521 74.6742 47.7502 77.1001 45.8852 79.1595C44.0202 81.2188 41.7342 82.8649 39.1778 83.9894C36.6214 85.1139 33.8528 85.6911 31.054 85.6833C20.6366 85.6833 10.219 85.6833 -0.198573 85.6833L-0.212891 46.6971Z" fill="#CDCDCD"/>
<path d="M55.0545 95.3258C56.0135 94.6487 57.1803 94.3197 58.357 94.3954C59.5338 94.4711 60.6475 94.9464 61.5092 95.7408C62.3709 96.5352 62.9273 97.5996 63.0839 98.7529C63.2402 99.9064 62.9872 101.078 62.3678 102.068C61.955 102.716 61.4002 103.266 60.744 103.675C60.088 104.084 59.3473 104.343 58.5764 104.432H57.5104C56.5387 104.328 55.6171 103.954 54.8524 103.353C54.088 102.753 53.512 101.95 53.1919 101.038C52.8422 100.015 52.8344 98.9077 53.1697 97.8794C53.505 96.8511 54.1656 95.9561 55.0545 95.3258Z" fill="#CDCDCD"/>
<path d="M69.5897 95.3119C70.55 94.6403 71.7163 94.317 72.8905 94.3966C74.0648 94.4763 75.1751 94.9542 76.0334 95.7492C76.8915 96.5442 77.4449 97.6076 77.5997 98.7591C77.7544 99.9106 77.5012 101.079 76.8828 102.068C76.4704 102.714 75.9176 103.261 75.2642 103.67C74.611 104.079 73.8737 104.339 73.1058 104.432H72.034C71.0377 104.328 70.0935 103.94 69.3169 103.315C68.5404 102.691 67.9649 101.856 67.6612 100.914C67.3424 99.8988 67.3574 98.8102 67.7039 97.8039C68.0504 96.7978 68.7104 95.9253 69.5897 95.3119Z" fill="#CDCDCD"/>
<path d="M83.9252 95.4467C84.868 94.7176 86.0406 94.3391 87.2378 94.3777C88.4348 94.4162 89.5801 94.8693 90.4728 95.6574C91.3652 96.4456 91.9484 97.5186 92.1199 98.6884C92.2913 99.8583 92.04 101.05 91.4104 102.056C90.998 102.704 90.4446 103.253 89.7904 103.664C89.136 104.075 88.3973 104.337 87.6276 104.431H86.573C85.6219 104.334 84.7166 103.978 83.9577 103.403C83.1991 102.828 82.6164 102.058 82.2747 101.176C81.8958 100.172 81.8515 99.075 82.1484 98.0444C82.4452 97.0139 83.0679 96.1039 83.9252 95.4467Z" fill="#CDCDCD"/>
<path d="M96.6216 98.2508C97.1202 96.0338 99.3067 94.3088 101.619 94.3936C102.619 94.3972 103.595 94.691 104.426 95.2384C105.257 95.7855 105.907 96.5624 106.293 97.4716C106.68 98.3809 106.787 99.3824 106.601 100.351C106.415 101.32 105.944 102.213 105.247 102.92C104.418 103.747 103.333 104.278 102.164 104.43H101.018C100.321 104.328 99.6486 104.101 99.0346 103.76C98.087 103.218 97.3409 102.39 96.9065 101.399C96.472 100.407 96.3721 99.3031 96.6216 98.2508Z" fill="#CDCDCD"/>
</g>
<defs>
<clipPath id="clip0_2028_1586">
<rect width="160" height="138" fill="white"/>
</clipPath>
</defs>
</svg>
