<svg width="118" height="138" viewBox="0 0 118 138" fill="none" xmlns="http://www.w3.org/2000/svg">
<path d="M21.5941 114.862C33.5202 114.862 43.1881 105.234 43.1881 93.3581C43.1881 81.4819 33.5202 71.8545 21.5941 71.8545C9.66792 71.8545 0 81.4819 0 93.3581C0 105.234 9.66792 114.862 21.5941 114.862Z" fill="#CDCDCD"/>
<path d="M42.2396 23.8532C42.1226 23.6521 41.9658 23.4767 41.7785 23.3381C41.5914 23.1993 41.3777 23.1001 41.1506 23.0464C40.9238 22.9926 40.6881 22.9855 40.4583 23.0256C40.2284 23.0655 40.0092 23.1516 39.8138 23.2788C36.0024 25.7293 33.0704 29.3218 31.4408 33.5382C31.3575 33.7571 31.2786 33.9748 31.2043 34.1917C30.2803 36.9645 29.9618 39.9021 30.2705 42.8074C30.5791 45.7128 31.5075 48.519 32.9939 51.0378C45.058 71.8383 57.1221 92.6387 69.1864 113.439C69.2997 113.634 69.4505 113.805 69.63 113.942C69.8097 114.078 70.0146 114.178 70.2333 114.236C70.4518 114.294 70.6796 114.308 70.9037 114.277C71.1277 114.247 71.3436 114.173 71.5387 114.06C74.2249 112.528 76.5063 110.381 78.1938 107.797C80.8024 103.749 81.3428 99.4228 81.1076 95.7964C80.8392 92.0274 79.7019 88.3707 77.784 85.1104C65.9357 64.6914 54.0877 44.2722 42.2396 23.8532Z" fill="#CDCDCD"/>
<path d="M78.2386 23.8532C78.1217 23.6521 77.9648 23.4767 77.7776 23.3381C77.5905 23.1993 77.3768 23.1001 77.1498 23.0464C76.9227 22.9926 76.6873 22.9855 76.4574 23.0256C76.2276 23.0655 76.0083 23.1516 75.813 23.2788C72.0013 25.7293 69.0695 29.3218 67.4399 33.5382C67.3565 33.7571 67.2778 33.9748 67.2033 34.1917C66.2793 36.9645 65.9609 39.9021 66.2695 42.8074C66.5782 45.7128 67.5066 48.519 68.9928 51.0378C81.0571 71.8383 93.1213 92.6387 105.186 113.439C105.299 113.634 105.449 113.805 105.629 113.942C105.809 114.078 106.014 114.178 106.232 114.236C106.451 114.294 106.679 114.308 106.903 114.277C107.127 114.247 107.343 114.173 107.538 114.06C110.224 112.528 112.505 110.381 114.193 107.797C116.802 103.749 117.342 99.4228 117.107 95.7964C116.838 92.0274 115.701 88.3707 113.783 85.1104C101.935 64.6914 90.0868 44.2722 78.2386 23.8532Z" fill="#CDCDCD"/>
</svg>
