<svg width="174" height="138" viewBox="0 0 174 138" fill="none" xmlns="http://www.w3.org/2000/svg">
<path fill-rule="evenodd" clip-rule="evenodd" d="M88.2392 33.993C84.7111 38.3623 74.6394 52.4909 73.457 54.324C71.2495 57.8213 71.0524 59.5256 70.9933 60.6551C70.8864 61.5268 70.9871 62.4116 71.287 63.2368C71.5868 64.0618 72.0772 64.8035 72.7179 65.4008C75.7334 68.0957 79.9512 67.6598 83.696 67.6598H114.551C115.053 67.7083 115.557 67.6027 115.996 67.3566C116.437 67.1108 116.792 66.7362 117.015 66.2826C119.298 62.8614 120.547 58.8492 120.612 54.7302C120.612 46.8038 115.527 36.8959 102.647 32.4473L101.169 34.5775C111.388 39.4522 115.606 45.8329 115.606 54.7499C115.668 57.3704 114.928 59.9469 113.487 62.1313H83.4794C81.6759 62.1313 81.4197 60.0803 82.0701 58.9311C84.642 54.3274 87.5127 49.8988 90.6634 45.6743C93.6987 41.6022 96.6848 37.7975 99.8185 33.7849C100.666 32.6752 100.104 31.6052 98.4192 31.2583C94.6055 30.422 90.7135 30.0002 86.8102 30C62.1731 30 53.1855 44.2079 53.1855 54.7697C53.1855 66.2034 62.2618 79.4601 86.8793 79.4601C100.538 79.4601 109.476 75.0411 114.65 69.354H109.437C104.913 73.555 97.1381 76.5373 86.8793 76.5373C66.0263 76.5373 58.3003 64.7667 58.3003 54.6211C58.5269 45.5257 66.7458 33.0319 87.3917 32.5959C88.1799 32.5959 88.7812 33.2995 88.2392 33.973V33.993Z" fill="#CDCDCD"/>
<path fill-rule="evenodd" clip-rule="evenodd" d="M162.279 99.226C162.86 99.2805 163.401 99.5441 163.803 99.9685C164.205 100.393 164.441 100.949 164.467 101.535C164.457 101.864 164.382 102.189 164.245 102.489C164.109 102.789 163.914 103.058 163.673 103.282C163.431 103.505 163.148 103.677 162.839 103.789C162.531 103.901 162.203 103.95 161.875 103.932H135.395V86.4945H127.6V103.932H113.291C109.418 103.932 108.61 101.564 108.61 99.3846V86.3854H95.6903C94.4092 87.2573 93.1773 88.2085 91.8568 89.0111L84.1504 93.757L74.1969 86.445H58.7347V90.8242H64.3421V88.4266L77.5279 97.9877L68.5206 103.675H58.7347V107.994H70.0579C71.2701 107.172 72.4132 106.3 73.6747 105.537L81.5585 100.722L91.5513 107.895H102.943L87.8952 96.5213L95.6212 91.4583C97.2671 90.3685 99.0015 89.4768 100.687 88.4859V99.8998C100.687 104.735 101.928 108.084 111.606 108.084L166.271 107.955C170.488 108.014 173.169 105.082 173.169 101.535C173.087 99.7684 172.318 98.1055 171.027 96.9045C169.737 95.7033 168.028 95.0605 166.271 95.1144H146.561C146.672 93.9709 147.176 92.9017 147.985 92.0903C148.794 91.2787 149.858 90.7751 150.995 90.6656H170.981L170.873 86.4647H149.685C146.485 86.5021 143.424 87.7838 141.144 90.0412C138.863 92.2986 137.541 95.356 137.455 98.5722C137.455 99.0279 137.731 99.3153 138.234 99.3153L162.279 99.226ZM58.7347 99.1567V94.6982H62.5879V99.1567H58.7347ZM58.7347 86.445H44.1004C40.7949 86.3106 37.5424 87.3097 34.8762 89.2785C30.8356 92.4987 29.5348 95.897 29.5743 97.4129H34.8564C32.6909 98.9626 31.0529 101.146 30.1657 103.665H12.7915C9.67734 103.665 7.65717 101.445 7.65717 99.2855V86.2964H0V99.7908C0 104.646 4.5825 107.994 11.9439 107.994H58.7347V103.625H40.1585C40.2977 102.467 40.8275 101.392 41.6594 100.579C42.4916 99.7656 43.5756 99.2638 44.731 99.1567H58.7347V94.6982H39.9416C39.6854 93.3904 42.1096 90.8242 43.9722 90.8242H58.7544V86.445H58.7347Z" fill="#CDCDCD"/>
</svg>
