<svg width="88" height="138" viewBox="0 0 88 138" fill="none" xmlns="http://www.w3.org/2000/svg">
<path d="M33.1311 127.186V112.731H42.2119V116.076H36.917V127.173L33.1311 127.186ZM22.3316 122.118H25.8504L24.091 117.588L22.3316 122.118ZM27.8262 127.199L27.031 125.175H21.1578L20.366 127.199H16.5599L22.3824 112.748H25.8841L31.7102 127.199H27.8262ZM11.3563 127.199V118.595L7.59073 123.121L3.80839 118.595V127.186H0.0224609V112.731H3.76086L7.59073 117.702L11.4206 112.731H15.1422V127.186L11.3563 127.199ZM69.3896 127.199V118.95L63.3606 127.183H60.2243V112.751H64.0136V120.9L69.9208 112.751H73.1925V127.199H69.3896ZM79.3838 127.199V116.096H74.9754V112.751H87.6288V116.096H83.1865V127.192L79.3838 127.199ZM53.6236 127.199V121.526H48.0108V127.186H44.2248V112.731H48.0108V118.127H53.6371V112.731H57.4231V127.186L53.6236 127.199Z" fill="#CDCDCD"/>
<path d="M0 36.541C0.00599103 29.5279 2.78962 22.796 7.75458 17.7877C10.1889 15.3318 13.0928 13.3787 16.297 12.0419C19.5012 10.7049 22.9422 10.011 26.42 10H87.4137V23.4912H26.437C24.726 23.4986 23.0333 23.8417 21.4571 24.5003C19.881 25.1589 18.4526 26.1201 17.2548 27.3282C14.8146 29.7892 13.4429 33.0948 13.4317 36.541L13.3504 59.1883C13.0758 62.0816 11.8506 64.8061 9.86243 66.9459C7.89078 69.0587 5.26352 70.4618 2.39541 70.9335L0 71.315V36.541ZM51.6728 71.3617H62.2014V37.0463H52.2242L43.7187 48.0855L35.2133 37.0463H25.2392V71.3617H35.7714V53.923L43.7187 63.4669L51.6728 53.923V71.3617ZM0 97.6621H61.0072C64.4846 97.6493 67.9249 96.9541 71.1285 95.6167C74.3321 94.2793 77.2351 92.3263 79.6693 89.871C84.6352 84.8617 87.4188 78.1283 87.4238 71.1141V36.3471L85.0284 36.7084C81.9484 37.2007 79.1492 38.7685 77.1386 41.1274C75.1121 43.5052 73.9948 46.5115 73.982 49.621V71.1141C73.9688 74.5599 72.5973 77.8649 70.1589 80.3269C68.9619 81.534 67.5354 82.495 65.9612 83.1546C64.3871 83.8142 62.6965 84.1595 60.9868 84.1707H0V97.6621Z" fill="#CDCDCD"/>
</svg>
