<svg width="168" height="138" viewBox="0 0 168 138" fill="none" xmlns="http://www.w3.org/2000/svg">
<path fill-rule="evenodd" clip-rule="evenodd" d="M136.135 78.0744L137.161 58.0832L128.179 53.5827L128.414 49.082H167.957L167.741 53.3399L157.243 58.0832L156.207 78.3264L165.961 83.3219L165.679 88.8215H124.912L125.166 83.826L136.135 78.0744Z" fill="#CDCDCD"/>
<path fill-rule="evenodd" clip-rule="evenodd" d="M93.3261 78.6069H87.3382L87.7053 71.2397H93.6933C96.8662 71.1185 98.2783 73.9289 97.4593 75.7404C97.4593 75.7404 97.1579 78.4855 93.3073 78.6069H93.3261ZM94.0604 64.3021H88.1103L88.4773 57.3739H94.7006C97.0826 57.318 98.7961 59.0546 98.2785 61.2677C98.2785 61.2677 98.1183 64.3021 94.0322 64.3021H94.0604ZM111.186 49.017C111.186 49.017 118.822 48.2048 120.29 57.8035C120.346 59.948 119.798 62.0657 118.709 63.9191C117.62 65.7727 116.032 67.289 114.124 68.2985C121.514 70.4182 120.168 79.2885 120.168 79.2885C117.937 89.3634 107.543 88.7844 107.543 88.7844H57.1914L57.5021 83.7891L66.9172 78.0467L67.8586 57.7849L58.9803 53.555L59.2911 49.0637H111.186V49.017Z" fill="#CDCDCD"/>
<path fill-rule="evenodd" clip-rule="evenodd" d="M28.1553 54.4889H29.3321C29.972 54.4987 30.6028 54.6379 31.1867 54.8977C31.7705 55.1575 32.2945 55.5328 32.7272 56.0003C33.1598 56.4678 33.4919 57.0178 33.703 57.6169C33.914 58.216 33.9997 58.8514 33.9548 59.4843L33.0134 77.58C32.9495 78.9052 32.3817 80.1573 31.4244 81.0841C30.4672 82.0111 29.1913 82.5439 27.8539 82.5755H26.7148C26.075 82.5655 25.4439 82.4265 24.8602 82.1667C24.2765 81.9067 23.7523 81.5316 23.3197 81.0641C22.887 80.5966 22.5551 80.0465 22.344 79.4474C22.1329 78.8485 22.0472 78.213 22.092 77.58L23.0335 59.4843C23.0968 58.1652 23.6592 56.9185 24.6086 55.9925C25.558 55.0667 26.8245 54.5297 28.1553 54.4889ZM18.2413 49.0547H39.8957C49.3106 49.0547 56.5885 56.8792 56.0894 66.5433L55.854 71.296C55.3645 80.9507 47.3146 88.7848 37.8715 88.7848H16.2172C6.80206 88.7848 -0.466216 80.9507 0.0233503 71.296L0.268143 66.5433C0.767135 56.8792 8.81684 49.0547 18.2507 49.0547H18.2413Z" fill="#CDCDCD"/>
<path d="M159.053 74.197C159.046 73.2352 159.422 72.3094 160.098 71.6198C160.423 71.2812 160.813 71.0114 161.246 70.827C161.679 70.6429 162.145 70.5479 162.616 70.5479C163.088 70.5479 163.554 70.6429 163.987 70.827C164.42 71.0114 164.81 71.2812 165.135 71.6198C165.803 72.3146 166.175 73.2374 166.175 74.197C166.175 75.1567 165.803 76.0796 165.135 76.7741C164.81 77.1128 164.42 77.3826 163.987 77.5669C163.554 77.7513 163.088 77.8463 162.616 77.8463C162.145 77.8463 161.679 77.7513 161.246 77.5669C160.813 77.3826 160.423 77.1128 160.098 76.7741C159.422 76.0846 159.046 75.1589 159.053 74.197ZM162.621 74.6359H161.83V76.0179H161.171V72.3482H163.054C163.28 72.3494 163.501 72.4107 163.695 72.5257C163.889 72.6407 164.048 72.8051 164.156 73.0018C164.234 73.1522 164.275 73.3183 164.278 73.4874C164.283 73.6644 164.238 73.8393 164.146 73.9915C164 74.2527 163.757 74.447 163.468 74.5331L164.41 76.0832H163.544L162.668 74.6359H162.621ZM161.83 73.9541C162.226 73.9541 162.555 73.9541 162.998 73.9541H163.064C163.156 73.9456 163.245 73.9166 163.325 73.8699C163.404 73.8231 163.473 73.7594 163.525 73.6836C163.553 73.6318 163.57 73.5743 163.572 73.5154C163.571 73.4533 163.555 73.3924 163.525 73.3381C163.471 73.2452 163.393 73.1691 163.298 73.118C163.203 73.0669 163.096 73.0429 162.988 73.0485H161.83V73.9823V73.9541ZM160.588 72.0867C160.05 72.6489 159.75 73.3942 159.75 74.169C159.75 74.9439 160.05 75.6891 160.588 76.2511C160.851 76.5209 161.166 76.7354 161.515 76.8818C161.863 77.0281 162.238 77.1036 162.616 77.1036C162.995 77.1036 163.37 77.0281 163.718 76.8818C164.067 76.7354 164.382 76.5209 164.645 76.2511C165.19 75.6923 165.494 74.9459 165.494 74.169C165.494 73.3922 165.19 72.6455 164.645 72.0867C164.382 71.8171 164.067 71.6027 163.718 71.4563C163.37 71.3099 162.995 71.2344 162.616 71.2344C162.238 71.2344 161.863 71.3099 161.515 71.4563C161.166 71.6027 160.851 71.8171 160.588 72.0867Z" fill="#CDCDCD"/>
</svg>
