<svg width="188" height="138" viewBox="0 0 188 138" fill="none" xmlns="http://www.w3.org/2000/svg">
<path d="M173.013 92.2871C174.3 92.2871 175.586 92.2871 176.878 92.2871V98.4281H178.187C179.626 96.3735 181.02 94.3076 182.51 92.2701C184.035 92.2701 185.565 92.2701 187.095 92.2701C185.255 94.7642 183.411 97.2584 181.564 99.7525C183.457 102.316 185.378 104.846 187.276 107.427C185.769 107.393 184.244 107.495 182.743 107.382C181.307 105.413 179.881 103.437 178.465 101.456H176.855V107.427H172.991V92.2871H173.013ZM140.477 92.2871C144.885 92.2871 149.299 92.2587 153.714 92.2871C153.674 93.5322 153.714 94.7831 153.714 96.0283H149.033C149.033 99.8262 149.033 103.624 149.033 107.422H145.174C145.174 103.626 145.174 99.83 145.174 96.0339C143.616 96.0339 142.052 96.0339 140.494 96.0339V92.2701L140.477 92.2871ZM72.2584 92.2871H76.1174C76.1174 94.3302 76.1174 96.3849 76.1174 98.4337H77.4207C78.8523 96.3849 80.2878 94.334 81.727 92.2813H86.3339C84.4923 94.7831 82.6394 97.2734 80.8034 99.7753C82.7149 102.33 84.6189 104.884 86.5152 107.439C85.0137 107.405 83.478 107.512 81.982 107.388C80.5486 105.424 79.1489 103.426 77.7038 101.468H76.106V107.439H72.2472C72.2472 102.383 72.2472 97.3319 72.2472 92.2871H72.2584ZM161.635 95.8527C160.939 96.0536 160.312 96.4458 159.828 96.9848C159.103 97.8559 158.74 98.9707 158.811 100.101C158.883 101.231 159.384 102.291 160.213 103.064C160.978 103.695 161.946 104.028 162.939 104.003C163.931 103.978 164.88 103.596 165.613 102.928C166.037 102.498 166.367 101.987 166.585 101.425C166.802 100.862 166.902 100.262 166.877 99.6592C166.853 99.0571 166.705 98.4662 166.443 97.9234C166.18 97.3806 165.809 96.8974 165.353 96.5037C164.829 96.1077 164.22 95.8401 163.575 95.7221C162.929 95.6041 162.265 95.6392 161.635 95.8246V95.8527ZM161.284 92.0041C162.665 91.7305 164.094 91.829 165.425 92.2895C166.755 92.7502 167.939 93.556 168.854 94.6246C169.91 95.905 170.554 97.4735 170.704 99.1252C170.853 100.777 170.501 102.435 169.693 103.884C169.069 104.978 168.191 105.906 167.134 106.592C166.077 107.277 164.871 107.7 163.618 107.826C162.363 107.951 161.098 107.774 159.926 107.311C158.754 106.848 157.71 106.112 156.881 105.163C155.85 103.93 155.199 102.424 155.008 100.829C154.817 99.2335 155.093 97.6169 155.804 96.1754C156.335 95.106 157.106 94.1732 158.056 93.4499C159.006 92.7264 160.111 92.2315 161.284 92.0041ZM126.209 94.3586C127.082 93.4194 128.172 92.708 129.384 92.2869C130.596 91.8655 131.893 91.7471 133.161 91.9418C134.325 92.0964 135.436 92.5241 136.402 93.1901C137.368 93.8563 138.163 94.7416 138.72 95.7736C137.615 96.4245 136.516 97.0867 135.405 97.7375C134.408 95.6207 131.399 95.1001 129.597 96.4868C129.106 96.8904 128.709 97.3964 128.434 97.9696C128.159 98.5429 128.014 99.1692 128.007 99.8046C128.001 100.44 128.133 101.069 128.397 101.648C128.66 102.227 129.046 102.741 129.529 103.154C131.331 104.586 134.408 104.116 135.451 101.977C136.556 102.633 137.678 103.267 138.788 103.924C138.131 105.064 137.198 106.022 136.074 106.708C134.95 107.394 133.672 107.787 132.356 107.851C131.04 107.914 129.73 107.646 128.545 107.072C127.36 106.498 126.338 105.635 125.574 104.563C124.55 103.03 124.057 101.203 124.171 99.3627C124.286 97.5224 125.002 95.7706 126.209 94.3755V94.3586ZM112.825 95.8357C112.338 96.1065 111.917 96.4796 111.589 96.9291C111.261 97.3786 111.035 97.8941 110.926 98.4395H118.491C118.299 97.4737 117.753 96.6142 116.961 96.0283C116.34 95.6384 115.628 95.4158 114.896 95.382C114.163 95.3483 113.434 95.5046 112.779 95.8357H112.825ZM111.21 92.6663C113.913 91.3531 117.443 91.6135 119.709 93.651C120.763 94.632 121.548 95.8653 121.99 97.2343C122.432 98.6032 122.517 100.062 122.237 101.473H110.966C111.102 102.012 111.359 102.512 111.719 102.936C112.079 103.36 112.53 103.696 113.04 103.918C114.853 104.66 117.244 104.416 118.519 102.786C119.554 103.394 120.589 104.001 121.624 104.609C120.73 105.937 119.421 106.932 117.902 107.439C114.949 108.367 111.397 107.829 109.17 105.588C107.079 103.516 106.49 100.268 107.249 97.4885C107.524 96.447 108.021 95.4771 108.705 94.6449C109.39 93.8128 110.246 93.1378 111.215 92.6663H111.21ZM96.0973 95.6944C95.4748 95.8242 94.8923 96.0996 94.3972 96.498C93.9233 96.9227 93.5443 97.4423 93.2847 98.0231C93.0253 98.6038 92.8913 99.2327 92.8913 99.8685C92.8913 100.505 93.0253 101.133 93.2847 101.714C93.5443 102.295 93.9233 102.814 94.3972 103.239C95.2464 103.897 96.3128 104.21 97.3832 104.117C98.4536 104.023 99.4493 103.53 100.171 102.735C101.639 100.969 101.475 97.9865 99.6727 96.5093C99.1723 96.1195 98.5918 95.8449 97.9727 95.7049C97.3536 95.565 96.7114 95.5634 96.0915 95.6999L96.0973 95.6944ZM92.9013 94.0642C94.6806 91.6872 98.2391 91.291 100.789 92.587C102.049 93.2682 103.103 94.2743 103.842 95.5006C104.58 96.7272 104.976 98.1289 104.988 99.5602C105.071 101.033 104.752 102.501 104.063 103.807C103.374 105.112 102.342 106.205 101.078 106.969C98.4997 108.463 94.7485 108.135 92.8787 105.667C92.8787 108.277 92.8787 110.886 92.8787 113.495H89.0255C89.0255 106.42 89.0255 99.3487 89.0255 92.2813H92.8843C92.8843 92.8474 92.8843 93.4643 92.8843 94.0586L92.9013 94.0642ZM60.0701 95.8188C59.574 96.086 59.1436 96.4594 58.8095 96.9125C58.4754 97.3657 58.246 97.8871 58.1378 98.4395C60.6763 98.4395 63.2375 98.4395 65.7422 98.4395C65.5686 97.5716 65.1123 96.7853 64.4445 96.2038C63.8218 95.7423 63.0833 95.4625 62.3109 95.3954C61.5387 95.3285 60.7628 95.4771 60.0701 95.8246V95.8188ZM57.8544 92.9888C60.5459 91.387 64.2632 91.4721 66.7167 93.4983C67.836 94.4638 68.6792 95.7083 69.1598 97.1054C69.6407 98.5024 69.742 100.002 69.4536 101.451C65.7138 101.541 61.9456 101.451 58.1945 101.49C58.3311 102.025 58.5877 102.523 58.9451 102.944C59.3024 103.366 59.7509 103.701 60.257 103.924C62.0758 104.682 64.4785 104.433 65.7533 102.792C66.7922 103.399 67.8272 104.007 68.8587 104.614C67.9734 105.92 66.6863 106.901 65.1924 107.41C62.2855 108.344 58.7894 107.852 56.5284 105.713C54.5451 103.845 53.8312 100.907 54.3073 98.2753C54.48 97.1879 54.8866 96.1507 55.4989 95.2352C56.1112 94.3198 56.9148 93.5476 57.8544 92.9718V92.9888ZM43.6882 95.649C43.0138 95.7127 42.3672 95.95 41.812 96.338C41.2568 96.7258 40.8119 97.251 40.5207 97.8621C40.1625 98.6471 40.0259 99.515 40.1257 100.372C40.2256 101.229 40.5581 102.042 41.0873 102.724C41.8072 103.522 42.8029 104.018 43.8741 104.113C44.9453 104.207 46.0127 103.893 46.8614 103.233C47.3293 102.816 47.7052 102.305 47.9652 101.735C48.2254 101.165 48.364 100.546 48.3726 99.9196C48.381 99.2928 48.2591 98.6711 48.0147 98.094C47.7703 97.5166 47.4084 96.9964 46.9521 96.5661C46.5002 96.191 45.9752 95.914 45.4104 95.7523C44.8457 95.5905 44.2536 95.5476 43.6712 95.6265L43.6882 95.649ZM40.1128 94.087C41.8863 91.7211 45.4108 91.3079 47.9608 92.5814C49.2281 93.2584 50.2897 94.2637 51.0344 95.4915C51.7793 96.7192 52.1795 98.1245 52.1937 99.5602C52.3352 102.503 50.862 105.577 48.2272 107.02C45.5921 108.463 41.926 108.152 40.073 105.679C40.073 108.288 40.073 110.897 40.073 113.512C38.7867 113.512 37.5005 113.512 36.2142 113.512C36.2142 106.441 36.2142 99.3733 36.2142 92.3096H40.073C40.073 92.8756 40.073 93.4983 40.073 94.0926L40.1128 94.087ZM24.0426 95.8471C23.5488 96.1089 23.118 96.4756 22.7813 96.9215C22.4444 97.3675 22.2098 97.8817 22.0935 98.4281H29.7035C29.5166 97.5372 29.0284 96.7378 28.3208 96.1641C27.6977 95.7291 26.9682 95.4709 26.21 95.417C25.4515 95.3633 24.6929 95.5158 24.0145 95.8585L24.0426 95.8471ZM21.4419 93.2436C24.2184 91.3361 28.3096 91.3814 30.8822 93.6454C33.0921 95.5358 33.9476 98.6659 33.4489 101.479C29.6922 101.479 25.9354 101.479 22.1842 101.479C22.3082 101.972 22.5349 102.433 22.8492 102.833C23.1635 103.233 23.5585 103.562 24.0087 103.799C25.8617 104.711 28.4003 104.473 29.7603 102.809C30.7745 103.437 31.8172 104.015 32.8426 104.631C31.958 105.935 30.6735 106.916 29.1821 107.427C26.349 108.339 22.9491 107.891 20.6825 105.86C19.8108 105.037 19.1342 104.03 18.7018 102.913C18.2695 101.796 18.0923 100.596 18.1836 99.4016C18.216 98.1906 18.5285 97.0034 19.0966 95.9332C19.6648 94.8628 20.4734 93.9384 21.4589 93.2322L21.4419 93.2436ZM117.057 86.6553C117.472 86.5602 117.907 86.5964 118.3 86.7589C118.694 86.9217 119.027 87.2025 119.254 87.5627C119.48 87.923 119.589 88.3448 119.564 88.7695C119.54 89.1941 119.384 89.6007 119.118 89.9328C118.851 90.2649 118.489 90.5059 118.079 90.6228C117.669 90.7394 117.234 90.7258 116.832 90.5838C116.431 90.442 116.083 90.1788 115.838 89.8309C115.593 89.4829 115.463 89.0675 115.465 88.6419C115.473 88.1816 115.634 87.7371 115.922 87.3776C116.21 87.0182 116.61 86.7641 117.057 86.6553ZM111.34 86.6553C111.861 86.5329 112.41 86.6221 112.866 86.9033C113.321 87.1845 113.647 87.6346 113.771 88.1553C113.834 88.4125 113.845 88.6795 113.805 88.9411C113.764 89.2027 113.673 89.4539 113.535 89.6802C113.398 89.9064 113.217 90.1033 113.003 90.2597C112.789 90.4163 112.546 90.5291 112.289 90.5918C112.032 90.6547 111.764 90.6663 111.502 90.6258C111.24 90.5854 110.989 90.494 110.763 90.3566C110.536 90.219 110.339 90.0384 110.182 89.8248C110.026 89.6113 109.913 89.369 109.85 89.1118C109.735 88.5896 109.826 88.0432 110.103 87.5859C110.38 87.1286 110.823 86.7955 111.34 86.6553ZM0.0283375 86.5932C5.23013 86.5932 10.4319 86.5932 15.6336 86.5932C15.6336 93.5512 15.6336 100.503 15.6336 107.45C14.2567 107.45 12.8798 107.45 11.5029 107.45V90.5041H4.1365C4.1365 96.1641 4.1365 101.811 4.1365 107.444H0C0 100.494 0 93.5416 0 86.5874L0.0283375 86.5932Z" fill="#CDCDCD"/>
<path d="M88.1014 26.8699C89.1075 26.1031 90.2622 25.5535 91.4921 25.2559C92.7223 24.9586 94.0008 24.9198 95.2465 25.1423C96.4922 25.3648 97.6781 25.8437 98.7289 26.5484C99.7795 27.2531 100.672 28.1682 101.35 29.2358C102.191 30.5632 102.692 32.0773 102.807 33.6442C102.923 35.2108 102.65 36.7821 102.013 38.2183C101.424 39.4762 100.594 40.6069 99.5704 41.5463C97.587 43.5499 95.6038 45.5649 93.6375 47.5629C91.4446 45.3612 89.2745 43.1423 87.0985 40.9295C86.1735 39.9733 85.4604 38.8332 85.0056 37.5835C84.5509 36.3337 84.365 35.0025 84.4595 33.6761C84.5541 32.3499 84.9274 31.0584 85.5548 29.8856C86.1823 28.713 87.05 27.6855 88.1014 26.8699Z" fill="#CDCDCD"/>
<path d="M87.1556 59.4646L93.6323 52.8877C95.95 55.248 98.3071 57.5741 100.585 59.9797C102.027 61.6963 102.818 63.8657 102.818 66.1065C102.818 68.3475 102.027 70.5169 100.585 72.2335C99.2137 73.8407 97.3274 74.9237 95.2467 75.2983C93.166 75.673 91.0196 75.3159 89.1728 74.288C87.849 73.5354 86.7284 72.4724 85.9081 71.1903C85.0877 69.9084 84.592 68.4462 84.464 66.9301C84.3476 65.5655 84.5279 64.192 84.9924 62.9033C85.457 61.6148 86.1948 60.4418 87.1556 59.4646Z" fill="#CDCDCD"/>
<path d="M70.3712 44.9891C71.1149 43.8582 72.1011 42.9068 73.2583 42.2036C74.4156 41.5003 75.7148 41.0629 77.0622 40.9234C78.4094 40.7836 79.771 40.9447 81.0482 41.3954C82.3253 41.846 83.4862 42.5747 84.4468 43.5288C86.6397 45.7475 88.8212 47.9832 91.0197 50.2019C88.6796 52.5677 86.3847 54.9619 84.0048 57.2882C82.3066 58.7626 80.1244 59.5614 77.8746 59.5323C75.6246 59.5029 73.4642 58.6478 71.8049 57.1297C70.1781 55.5956 69.1433 53.5389 68.8811 51.3194C68.6191 49.1001 69.1465 46.8593 70.3712 44.9891Z" fill="#CDCDCD"/>
<path d="M102.857 43.5254C103.805 42.5864 104.947 41.8665 106.203 41.4168C107.459 40.9668 108.799 40.7979 110.128 40.9217C111.642 41.0737 113.094 41.5979 114.356 42.4472C115.617 43.2966 116.649 44.4448 117.358 45.7894C119.557 49.7513 118.344 55.2359 114.593 57.8394C112.885 59.0645 110.806 59.6648 108.707 59.539C106.608 59.4132 104.616 58.5693 103.067 57.149C100.767 54.885 98.5342 52.5247 96.2334 50.2382C98.4435 47.9855 100.653 45.7894 102.857 43.5254Z" fill="#CDCDCD"/>
</svg>
