<svg width="156" height="138" viewBox="0 0 156 138" fill="none" xmlns="http://www.w3.org/2000/svg">
<path d="M0 60.3986V68.7453L22.8084 66.2904V57.2268L0 60.3986ZM132.829 40.5134C121.425 42.9144 115.847 51.217 116.492 64.7585L128.64 63.6881C128.084 56.0386 130.449 54.2219 132.839 53.2252V40.5134H132.829ZM115.971 86.038V97.925H155.177V84.8646L115.966 86.038H115.971ZM149.921 44.1959C151.565 45.7378 152.833 47.6294 153.631 49.7274C154.429 51.8257 154.736 54.0761 154.527 56.3085C153.769 64.9648 149.524 71.9024 137.713 83.3131L118.376 83.9416C118.376 83.9416 131.843 71.8289 136.905 65.9124C140.188 62.0777 141.581 57.9387 140.232 55.1792C139.379 53.4315 137.46 52.5624 135.095 52.69V40.2336C140.926 39.4039 146.266 40.7982 149.921 44.1959ZM64.2156 87.5945V97.9052H78.7486V87.1575L64.2156 87.5945ZM52.3156 53.1171V97.9298H62.3264V51.7228L52.3156 53.1171ZM95.4532 86.6567V97.9496H112.242V86.1658L95.4532 86.6567ZM95.4532 66.8158V78.2804L106.456 77.6813V65.8976L95.4532 66.8306V66.8158ZM95.4532 47.0975V58.3511L112.242 56.5246V44.7409L95.4532 47.078V47.0975ZM81.7781 49.0027V97.925H93.3014V47.3971L81.7781 49.0027ZM36.2653 88.4292V97.925H48.9587V88.0462L36.2653 88.4292ZM36.2653 71.8533V81.5112L44.5954 81.0595V71.1413L36.2653 71.8533ZM36.2653 55.3512V64.8174L48.9587 63.4379V53.5836L36.2653 55.3512ZM25.8529 56.8242V97.9496H34.6489V55.577L25.8577 56.7996L25.8529 56.8242ZM7.26891 69.2707L15.6088 68.4262V97.925H7.26891V69.2707Z" fill="#CDCDCD"/>
</svg>
