<svg width="152" height="138" viewBox="0 0 152 138" fill="none" xmlns="http://www.w3.org/2000/svg">
<path d="M8.73192 80.0823C9.37336 81.7595 10.2614 83.1938 11.3961 84.3848C12.5308 85.5758 13.875 86.4875 15.4291 87.1195C16.9832 87.7516 18.6726 88.0675 20.4981 88.0675C22.2742 88.0675 23.9391 87.7392 25.4932 87.0828C27.0473 86.4264 28.4038 85.5027 29.5631 84.3117C30.7224 83.1207 31.6228 81.6986 32.2643 80.0457C32.9055 78.3928 33.2262 76.5455 33.2262 74.5034V43H40.9962V94.0471H33.3001V89.307C31.5735 91.1057 29.5384 92.4913 27.1951 93.4638C24.8516 94.4359 22.3236 94.9222 19.6102 94.9222C16.8474 94.9222 14.2696 94.4481 11.877 93.5002C9.48439 92.5522 7.4123 91.2032 5.66112 89.4528C3.90974 87.7026 2.52841 85.6002 1.51713 83.1451C0.505642 80.6899 0 77.9552 0 74.941V43H7.76996V74.5034C7.76996 76.5455 8.09068 78.4048 8.73192 80.0823Z" fill="#CDCDCD"/>
<path d="M54.3908 43V61.5957C56.1174 59.8941 58.1156 58.5451 60.385 57.5484C62.6542 56.5517 65.1209 56.0534 67.7849 56.0534C70.5476 56.0534 73.1375 56.5639 75.5549 57.5848C77.9723 58.6056 80.0687 59.9913 81.8449 61.7415C83.621 63.4919 85.0269 65.558 86.063 67.94C87.099 70.3225 87.6168 72.8505 87.6168 75.5245C87.6168 78.1981 87.099 80.7141 86.063 83.072C85.0269 85.4298 83.621 87.484 81.8449 89.2339C80.0687 90.9841 77.9723 92.3698 75.5549 93.3907C73.1375 94.4116 70.5476 94.922 67.7849 94.922C65.1207 94.922 62.642 94.4238 60.3479 93.4271C58.0539 92.4306 56.0435 91.0814 54.3169 89.3797V94.0469H46.917V43H54.3908ZM55.2417 80.5561C55.9077 82.112 56.8329 83.4732 58.017 84.64C59.201 85.8069 60.5823 86.7305 62.161 87.4113C63.7396 88.0919 65.4416 88.4321 67.2669 88.4321C69.043 88.4321 70.7203 88.0919 72.299 87.4113C73.8776 86.7305 75.2464 85.8069 76.406 84.64C77.5653 83.4734 78.4903 82.112 79.1809 80.5561C79.8716 79.0005 80.2169 77.3232 80.2169 75.5245C80.2169 73.7256 79.8716 72.0361 79.1809 70.4561C78.4903 68.876 77.5653 67.5027 76.406 66.3358C75.2466 65.1692 73.8776 64.2576 72.299 63.6013C70.7201 62.9449 69.0428 62.6166 67.2669 62.6166C65.491 62.6166 63.8137 62.9449 62.235 63.6013C60.6564 64.2578 59.2751 65.1692 58.0909 66.3358C56.907 67.5027 55.9696 68.876 55.2791 70.4561C54.5883 72.0361 54.243 73.7256 54.243 75.5245C54.2428 77.3232 54.5759 79.0005 55.2417 80.5561Z" fill="#CDCDCD"/>
<path d="M91.8312 68.0114C92.8177 65.6779 94.1746 63.6238 95.9011 61.8494C97.6277 60.0749 99.6752 58.6772 102.043 57.6563C104.411 56.6352 106.977 56.125 109.739 56.125C112.453 56.125 114.969 56.6111 117.287 57.5832C119.606 58.5558 121.604 59.9047 123.281 61.6308C124.959 63.3566 126.266 65.3985 127.203 67.7564C128.141 70.1142 128.609 72.6788 128.609 75.45V77.8564H97.8993C98.1461 79.3636 98.6394 80.7613 99.3792 82.0496C100.12 83.3378 101.044 84.456 102.154 85.4039C103.264 86.3521 104.522 87.0936 105.928 87.6282C107.334 88.163 108.826 88.4306 110.405 88.4306C114.895 88.4306 118.521 86.6073 121.283 82.961L126.686 86.8989C124.811 89.3784 122.492 91.3231 119.73 92.733C116.967 94.1427 113.859 94.8476 110.406 94.8476C107.593 94.8476 104.966 94.3613 102.525 93.3892C100.082 92.4168 97.9612 91.0555 96.1605 89.3053C94.3598 87.5549 92.9415 85.501 91.9056 83.1431C90.8696 80.7855 90.3516 78.2207 90.3516 75.4497C90.3512 72.8246 90.8446 70.3451 91.8312 68.0114ZM102.228 65.1307C100.132 66.8567 98.738 69.1539 98.0472 72.0222H121.061C120.42 69.1539 119.051 66.8567 116.954 65.1307C114.858 63.4051 112.403 62.5422 109.591 62.5422C106.779 62.5422 104.325 63.4051 102.228 65.1307Z" fill="#CDCDCD"/>
<path d="M142.596 65.9727C141.017 67.6742 140.228 69.9835 140.228 72.9006V94.0489H132.754V56.8572H140.154V61.4515C141.091 59.9444 142.312 58.7534 143.817 57.8783C145.321 57.003 147.11 56.5654 149.182 56.5654H151.772V63.4204H148.664C146.197 63.4206 144.175 64.2711 142.596 65.9727Z" fill="#CDCDCD"/>
</svg>
