<svg width="196" height="138" viewBox="0 0 196 138" fill="none" xmlns="http://www.w3.org/2000/svg">
<g clip-path="url(#clip0_2027_1371)">
<path d="M188.955 60.0654L182.272 67.6868V60.0654H177.436V79.3076H182.272V71.2075L189.425 79.3076H195.673L186.874 69.2241L195.033 60.0654H188.955Z" fill="#CDCDCD"/>
<path d="M168.907 67.2437H162.221V60.0654H157.385V79.3076H162.221V71.719H168.907V79.3076H173.743V60.0654H168.907V67.2437Z" fill="#CDCDCD"/>
<path d="M28.5206 70.4908C28.4051 74.077 27.948 74.7966 25.9668 74.7966V79.3158H26.7061C31.6499 79.3158 32.8381 76.7169 33.0208 70.9421L33.2225 64.5435H37.857V79.3158H42.6959V60.0654H28.8567L28.5206 70.4908Z" fill="#CDCDCD"/>
<path d="M54.3443 75.0702H51.2206V70.1817H54.3443C56.0246 70.1817 57.0327 70.9339 57.0327 72.5397C57.0327 74.2849 56.0567 75.0702 54.3443 75.0702ZM54.7154 65.9115H51.2206V60.0654H46.3818V79.3158H54.7799C60.0649 79.3158 61.9469 75.8224 61.9469 72.5397C61.9469 68.3023 59.3151 65.9115 54.7154 65.9115Z" fill="#CDCDCD"/>
<path d="M77.6854 75.0979V64.2322C80.3735 64.607 82.051 66.6586 82.051 69.6651C82.051 72.6716 80.3735 74.7231 77.6854 75.0979ZM72.8464 75.0979C70.1582 74.7231 68.4807 72.6716 68.4807 69.6651C68.4807 66.6586 70.1608 64.607 72.8464 64.2322V75.0979ZM77.6854 59.6173V52.4746H72.8464V59.6145C67.3221 60.096 63.5801 64.0954 63.5801 69.6651C63.5801 75.2347 67.3087 79.2697 72.8492 79.7458V86.9923H77.688V79.7458C83.2286 79.3108 86.9465 75.2703 86.9465 69.6651C86.9465 64.0599 83.2286 60.0604 77.6854 59.6145V59.6173Z" fill="#CDCDCD"/>
<path d="M100.258 72.1249C100.258 74.349 98.712 75.6127 96.6958 75.6127C94.9513 75.6127 93.5747 74.9617 93.5747 73.0496C93.5747 71.1374 95.0857 70.861 96.3947 70.861H100.258V72.1249ZM105.097 73.3914V66.9327C105.097 62.2138 102.14 59.2402 97.1689 59.2402C92.0316 59.2402 89.3111 62.3861 89.0747 65.6662H93.9807C94.1447 64.9495 94.8839 63.7185 97.1635 63.7185C99.0453 63.7185 100.255 64.6076 100.255 66.9327H95.4539C91.1527 66.9327 88.6016 69.2225 88.6016 73.0496C88.6016 77.049 91.3946 79.7819 95.4215 79.7819C98.3787 79.7819 100.01 78.362 100.728 77.287C101.365 78.5863 102.777 79.303 104.624 79.303H106.304V74.8604C105.43 74.8604 105.094 74.4501 105.094 73.3914H105.097Z" fill="#CDCDCD"/>
<path d="M125.58 74.4497H120.408V67.4765H125.58C128.268 67.4765 129.779 68.7432 129.779 70.9645C129.779 73.2541 128.265 74.4497 125.58 74.4497ZM125.814 62.7959H120.408V57.3605H132.935V52.4746H115.335V79.3108H125.819C131.631 79.3108 134.959 76.3726 134.959 70.9727C134.951 65.8707 131.626 62.7959 125.814 62.7959Z" fill="#CDCDCD"/>
<path d="M148.621 72.1249C148.621 74.349 147.077 75.6127 145.061 75.6127C143.314 75.6127 141.937 74.9617 141.937 73.0496C141.937 71.1374 143.448 70.861 144.76 70.861H148.621V72.1249ZM153.459 73.3914V66.9327C153.459 62.2138 150.502 59.2402 145.534 59.2402C140.397 59.2402 137.677 62.3861 137.44 65.6662H142.343C142.513 64.9495 143.249 63.7185 145.534 63.7185C147.416 63.7185 148.623 64.6076 148.623 66.9327H143.819C139.518 66.9327 136.967 69.2225 136.967 73.0496C136.967 77.049 139.76 79.7819 143.784 79.7819C146.741 79.7819 148.376 78.362 149.091 77.287C149.731 78.5863 151.139 79.303 152.989 79.303H154.666V74.8604C153.793 74.8604 153.457 74.4501 153.457 73.3914H153.459Z" fill="#CDCDCD"/>
<path d="M25.6659 87.5049H-0.195312V92.9735H25.6659V87.5049Z" fill="#CDCDCD"/>
<path d="M9.042 69.1542L12.6685 58.1844H12.8029L16.2278 69.1542H9.042ZM17.4349 56.1601C16.6982 53.9224 15.8487 52.1553 12.9373 52.1553C10.0259 52.1553 9.11996 53.9142 8.34305 56.1601L0.342773 79.314H5.6494L7.49626 73.8128H17.7117L19.4187 79.314H25.064L17.4349 56.1601Z" fill="#CDCDCD"/>
</g>
<defs>
<clipPath id="clip0_2027_1371">
<rect width="196" height="57" fill="white" transform="translate(0 40)"/>
</clipPath>
</defs>
</svg>
