<svg width="162" height="138" viewBox="0 0 162 138" fill="none" xmlns="http://www.w3.org/2000/svg">
<path d="M10.9439 40L8.20221 47.5008H46.1797L48.9216 40H10.9439ZM6.83287 51.2462L4.08099 58.7437H42.0687L44.8104 51.2462H6.83287ZM2.74179 62.4959L0 69.9933H37.9642L40.7061 62.4959H2.74179Z" fill="#CDCDCD"/>
<path d="M80.726 72.8623V73.0195C82.2661 73.615 83.7039 74.4465 84.9878 75.4842C87.666 77.708 88.8578 80.6474 88.8578 84.4631C88.8578 90.7433 85.5402 95.2713 80.0931 96.7026C78.4192 97.1809 76.7018 97.338 73.4613 97.338H56.9766V51.3931H71.5797C74.5928 51.3931 76.6315 51.5502 78.4462 52.0251C83.7357 53.4564 87.2107 57.1149 87.2107 62.9136C87.2107 66.0136 86.1025 68.6354 84.288 70.3844C83.2764 71.4376 82.0658 72.2798 80.726 72.8623ZM66.1229 77.708V89.7903H72.4368C74.3316 89.7903 76.0692 89.6298 77.3347 88.4527C78.6002 87.2755 79.1491 85.7506 79.1491 83.771C79.1931 82.3537 78.7773 80.9602 77.9639 79.7981C76.6249 78.126 74.951 77.7314 72.1221 77.7314L66.1229 77.708ZM66.0424 69.7623H71.1747C72.7515 69.7623 73.5415 69.7623 74.3316 69.5215C76.4642 68.8863 77.8068 66.9801 77.8068 64.3582C77.8068 61.2583 76.3839 59.9073 74.3316 59.2719C73.4613 59.0344 72.5976 58.9541 70.86 58.9541H66.0424V69.7623ZM102.59 97.338V59.0979H89.4102V51.4064H126.035L123.434 59.0979H111.747V97.3247L102.59 97.338ZM128.877 97.338V51.3931H158.559L155.955 59.0845H137.957V69.2575H145.299C151.218 69.2575 154.298 70.6888 156.427 72.518C158.101 73.9493 160.926 77.1261 160.926 83.4063C160.926 89.603 158.007 93.0207 155.57 94.7765C152.727 96.7629 149.728 97.3179 143.652 97.3179L128.877 97.338ZM137.957 89.6298H144.823C147.428 89.6298 149.008 88.9943 150.113 87.5631C150.665 86.8476 151.452 85.5767 151.452 83.1924C151.452 80.808 150.662 79.1393 149.085 77.9489C148.138 77.2332 146.872 76.8351 144.733 76.8351H137.957V89.6298Z" fill="#CDCDCD"/>
</svg>
