<svg width="172" height="138" viewBox="0 0 172 138" fill="none" xmlns="http://www.w3.org/2000/svg">
<path d="M163.74 87.6417C167.11 87.6417 169.496 87.0436 171.273 85.7478V79.8833C169.45 81.1281 167.251 81.9141 164.161 81.9141C158.968 81.9141 156.813 77.941 156.813 71.6609C156.813 65.056 159.436 61.6924 164.207 61.6924C167.015 61.6924 169.776 62.6607 171.227 63.5864V57.4771C169.683 56.6453 167.015 56.053 163.365 56.053C154.052 56.053 149.228 62.6577 149.228 71.8971C149.274 82.0165 154 87.6503 163.734 87.6503L163.74 87.6417ZM118.208 84.9645V79.0973C115.96 80.621 112.123 81.9455 108.615 81.9455C103.28 81.9455 101.267 79.4534 100.941 74.3694H118.54V70.5813C118.54 60.0033 113.814 56.0303 106.561 56.0303C97.6689 56.0303 93.4596 62.729 93.4596 71.9229C93.4596 82.5008 98.7451 87.6275 108.012 87.6275C112.645 87.6275 116.061 86.3828 118.214 84.9501L118.208 84.9645ZM51.4298 56.5998V68.6104H41.6955V56.5998H34.3877V87.0436H41.687V74.338H51.4212V87.0436H58.7204V56.5998H51.4298ZM91.6275 81.3074H88.3992V56.5998H67.1536V59.1859C67.1536 66.6224 66.6861 76.232 64.1126 81.3132H61.7729V93.973H68.5096V87.0436H84.8419V93.973H91.5814V81.3074H91.6275ZM141.464 87.0378L130.703 72.068V87.0378H123.401V56.5998H130.703V70.6412L140.997 56.5998H148.348L138.051 70.6412L149.75 87.0436L141.464 87.0378ZM106.367 61.6894C109.971 61.6894 111.093 64.6458 111.093 68.4794V69.0606H100.941C101.128 64.2186 102.905 61.6696 106.367 61.6696V61.6894ZM81.0971 81.3074H70.8031C72.8227 76.7363 73.3767 68.4197 73.3767 63.1534V62.225H81.0971V81.3074Z" fill="#CDCDCD"/>
<path d="M28.3112 87.0414H20.8706V50.6821H17.5499C11.4652 50.6821 8.28301 53.6784 8.28301 58.1669C8.28301 63.2481 10.4815 65.6063 15.0225 68.6082L18.7731 71.1033L8.01182 87.0528H0L9.68811 72.8121C4.11699 68.8844 0.983806 65.051 0.983806 58.5828C0.983806 50.4998 6.6904 45 17.5008 45H28.2651V87.0414H28.3112Z" fill="#CDCDCD"/>
</svg>
