<svg width="140" height="138" viewBox="0 0 140 138" fill="none" xmlns="http://www.w3.org/2000/svg">
<path d="M90.9432 69.2384C90.16 69.2384 89.3944 69.0051 88.7429 68.5678C88.0917 68.1306 87.5841 67.5094 87.2843 66.7825C86.9846 66.0556 86.9061 65.2556 87.0589 64.4839C87.2116 63.7121 87.5889 63.0031 88.1428 62.4468C88.6966 61.8904 89.4023 61.5116 90.1706 61.358C90.9388 61.2044 91.7352 61.2833 92.459 61.5845C93.1827 61.8856 93.8012 62.3954 94.2363 63.0497C94.6714 63.7039 94.9039 64.4731 94.9039 65.26C94.9039 66.3152 94.4865 67.3271 93.7438 68.0731C93.0011 68.8192 91.9937 69.2384 90.9432 69.2384ZM81.6531 69.2384C80.8697 69.2384 80.1041 69.0051 79.4528 68.5678C78.8014 68.1306 78.2938 67.5094 77.994 66.7825C77.6943 66.0556 77.6158 65.2556 77.7688 64.4839C77.9215 63.7121 78.2988 63.0031 78.8525 62.4468C79.4065 61.8904 80.1123 61.5116 80.8805 61.358C81.6488 61.2044 82.445 61.2833 83.1687 61.5845C83.8924 61.8856 84.5109 62.3954 84.9462 63.0497C85.3814 63.7039 85.6136 64.4731 85.6136 65.26C85.6136 65.7824 85.5112 66.2998 85.3121 66.7825C85.1132 67.2652 84.8214 67.7037 84.4536 68.0731C84.0859 68.4426 83.6492 68.7355 83.1687 68.9354C82.6882 69.1355 82.1732 69.2384 81.6531 69.2384ZM72.3537 69.2384C71.5708 69.2366 70.806 69.0017 70.1558 68.5634C69.5057 68.1251 68.9995 67.5032 68.7011 66.7761C68.4028 66.049 68.3257 65.2494 68.4797 64.4781C68.6334 63.7071 69.0113 62.9991 69.5657 62.4436C70.1198 61.8882 70.8256 61.5102 71.5936 61.3574C72.3617 61.2046 73.1575 61.2839 73.8806 61.5853C74.6037 61.8866 75.2218 62.3966 75.6565 63.0507C76.0913 63.7047 76.3233 64.4735 76.3233 65.26C76.3233 65.7832 76.2207 66.3014 76.021 66.7847C75.8215 67.2679 75.5289 67.7069 75.1601 68.0763C74.7914 68.446 74.3537 68.7387 73.8722 68.9382C73.3905 69.1375 72.8745 69.2396 72.3537 69.2384ZM73.0153 20.2422V53.1032C73.0081 53.7863 72.7327 54.439 72.2492 54.9194C71.766 55.3999 71.1133 55.6693 70.4332 55.6693H66.5094C66.416 55.6717 66.3271 55.7109 66.262 55.778C66.1967 55.8453 66.1602 55.9355 66.1602 56.0294V83.5735C67.0792 83.6566 68.0991 83.7119 69.0916 83.7119C77.1685 83.7219 84.9446 80.6355 90.8336 75.0828C96.7226 69.53 100.28 61.9293 100.781 53.8315C101.282 45.7338 98.6872 37.7494 93.5276 31.5073C88.3677 25.2653 81.0313 21.2363 73.0153 20.2422Z" fill="#CDCDCD"/>
<path d="M63.0089 46.2704C62.2237 46.2704 61.4562 46.0366 60.8034 45.5985C60.1506 45.1603 59.6418 44.5374 59.3412 43.8087C59.0409 43.0802 58.9622 42.2784 59.1153 41.5048C59.2685 40.7313 59.6465 40.0208 60.2017 39.463C60.7571 38.9055 61.4644 38.5256 62.2345 38.3719C63.0045 38.2179 63.8025 38.2968 64.528 38.5987C65.2533 38.9005 65.8732 39.4115 66.3096 40.0673C66.7457 40.7232 66.9786 41.4942 66.9786 42.2828C66.9786 43.3404 66.5604 44.3547 65.8159 45.1024C65.0714 45.8503 64.0617 46.2704 63.0089 46.2704ZM69.092 20C61.2691 20.0004 53.7224 22.9054 47.9025 28.1566C42.0829 33.4079 38.4006 40.6347 37.5638 48.4478C36.7271 56.2609 38.795 64.1089 43.3697 70.4834C47.9445 76.8578 54.7034 81.3088 62.3473 82.9807V54.3657C62.3607 53.7045 62.6251 53.0737 63.0862 52.602C63.5475 52.1301 64.1706 51.8531 64.8282 51.8273H68.8348C68.9242 51.8273 69.0103 51.793 69.0754 51.7311C69.1403 51.6694 69.1793 51.5847 69.1839 51.495V20.0094H69.0828L69.092 20Z" fill="#CDCDCD"/>
<path d="M134.722 102.451V108.46H126.691V102.451H122.73V118.319H126.691V111.903H134.722V118.319H138.683V102.451H134.722Z" fill="#CDCDCD"/>
<path d="M62.7802 111.79L65.2153 106.03C65.2383 105.963 65.2816 105.905 65.3394 105.863C65.3971 105.822 65.4662 105.8 65.5369 105.8C65.6082 105.798 65.6778 105.82 65.7358 105.861C65.7939 105.903 65.8368 105.962 65.8586 106.03L68.3029 111.79H62.7802ZM68.79 104.212C68.5124 103.577 68.0571 103.036 67.4798 102.656C66.9022 102.276 66.2274 102.073 65.5369 102.07C64.8469 102.074 64.1723 102.278 63.5952 102.658C63.0178 103.038 62.5625 103.577 62.2839 104.212L55.8516 118.316H60.0603L61.4753 114.966H69.6812L71.0963 118.316H75.305L68.79 104.212Z" fill="#CDCDCD"/>
<path d="M21.6773 99.5781C19.8395 99.5781 18.6449 100.566 17.7626 102.559L12.5983 114.467L7.43407 102.559C6.56117 100.566 5.37575 99.5781 3.51953 99.5781C1.66331 99.5781 0 100.824 0 103.529V118.298H3.95148V103.935L9.1433 115.778C9.84166 117.43 10.9811 118.473 12.5983 118.473C14.2249 118.473 15.3552 117.43 16.0536 115.778L21.2454 103.935V118.316H25.2334V103.547C25.2334 100.824 23.3956 99.5781 21.6773 99.5781Z" fill="#CDCDCD"/>
<path d="M32.1424 114.967C32.0523 114.967 31.9658 114.931 31.9019 114.867C31.8382 114.803 31.8025 114.716 31.8025 114.626V111.792H41.6715V108.561H31.8025V106.161C31.8025 106.071 31.8382 105.984 31.9019 105.92C31.9658 105.855 32.0523 105.82 32.1424 105.82H41.9013V102.469H30.1943C29.5718 102.474 28.9763 102.724 28.5362 103.166C28.096 103.608 27.8466 104.207 27.8418 104.832V115.973C27.8466 116.598 28.096 117.197 28.5362 117.639C28.9763 118.081 29.5718 118.331 30.1943 118.336H41.9013V114.986L32.1424 114.967Z" fill="#CDCDCD"/>
<path d="M48.6189 118.318V106.161C48.6189 106.071 48.6546 105.984 48.7183 105.92C48.7822 105.855 48.8687 105.82 48.9588 105.82H58.7177V102.469H47.0107C46.3882 102.474 45.7927 102.724 45.3526 103.166C44.9124 103.608 44.6632 104.207 44.6582 104.832V118.336L48.6189 118.318Z" fill="#CDCDCD"/>
<path d="M111.677 115.185H110.409C107.11 115.185 105.814 113.69 105.814 110.367C105.814 107.145 106.935 105.567 110.409 105.567H111.677C115.04 105.567 116.272 107.145 116.272 110.367C116.272 113.69 114.976 115.185 111.677 115.185ZM120.113 110.348C120.113 104.81 117.733 102.207 111.741 102.207H110.354C104.353 102.207 101.982 104.801 101.982 110.348C101.982 115.822 104.408 118.462 110.391 118.462H111.705C117.687 118.462 120.113 115.822 120.113 110.348Z" fill="#CDCDCD"/>
<path d="M95.0706 110.349C94.4825 111.928 93.5176 112.934 90.8344 112.934H88.9965V103.297H91.395C93.6831 103.297 95.236 104.728 95.236 108.106C95.2887 108.862 95.2108 109.62 95.0063 110.349H95.0706ZM85.0728 112.934H83.235C80.5518 112.934 79.5593 111.928 78.9987 110.349C78.7942 109.62 78.7166 108.862 78.7691 108.106C78.7691 104.728 80.3313 103.297 82.6101 103.297H85.0453V112.934H85.0728ZM90.9722 99.9463H83.1247C77.2713 99.9463 74.9372 102.919 74.9372 108.106C74.9298 108.857 74.9819 109.607 75.0934 110.349C75.7182 114.042 77.8502 116.275 83.3636 116.275H85.082V118.315H89.0333V116.312H90.7609C96.2744 116.312 98.3879 114.06 99.0311 110.386C99.1503 109.645 99.2056 108.894 99.1965 108.143C99.123 102.919 96.7799 99.9463 90.9354 99.9463H90.9722Z" fill="#CDCDCD"/>
</svg>
