<svg width="122" height="138" viewBox="0 0 122 138" fill="none" xmlns="http://www.w3.org/2000/svg">
<path d="M28.166 66.623C30.9057 73.073 35.4791 78.5714 41.3155 82.432C47.152 86.2926 53.9931 88.3447 60.9853 88.3319C58.2302 81.8932 53.653 76.4052 47.8202 72.5468C41.9871 68.6884 35.1539 66.6288 28.166 66.623Z" fill="#CDCDCD"/>
<path d="M60.986 17C55.7101 17.0072 50.5548 18.5825 46.1718 21.5267C41.7885 24.4706 38.3745 28.6514 36.3605 33.5405C34.3465 38.4295 33.8233 43.8075 34.8571 48.9947C35.8908 54.1817 38.435 58.9452 42.1682 62.683C45.9014 66.4208 50.6559 68.965 55.8307 69.9943C61.0058 71.0235 66.3689 70.4917 71.2424 68.4657C76.1159 66.4398 80.2811 63.0107 83.2113 58.6121C86.1417 54.2135 87.7058 49.0424 87.7058 43.7528C87.7064 40.2362 87.0154 36.7542 85.6724 33.5057C84.3292 30.2572 82.3606 27.3062 79.8789 24.8213C77.397 22.3364 74.451 20.3666 71.2091 19.0246C67.9673 17.6824 64.4933 16.9944 60.986 17ZM60.986 57.1293C58.3436 57.1293 55.7606 56.3437 53.5635 54.8719C51.3666 53.3999 49.6542 51.308 48.6431 48.8603C47.6318 46.4128 47.3672 43.7194 47.8828 41.1211C48.3982 38.5228 49.6707 36.136 51.5391 34.2628C53.4075 32.3894 55.788 31.1137 58.3795 30.5969C60.9712 30.08 63.6574 30.3452 66.0985 31.3591C68.5397 32.373 70.6263 34.0898 72.0944 36.2925C73.5624 38.4952 74.3458 41.0852 74.3458 43.7344C74.3458 45.4934 74.0003 47.2351 73.3289 48.8603C72.6575 50.4855 71.6734 51.9621 70.4328 53.206C69.1923 54.4497 67.7195 55.4365 66.0985 56.1096C64.4778 56.7828 62.7404 57.1293 60.986 57.1293Z" fill="#CDCDCD"/>
<path d="M60.9873 88.3226C66.12 88.336 71.1469 86.8604 75.462 84.074C79.7772 81.2876 83.1962 77.3089 85.3069 72.6182C80.1798 72.6295 75.1633 74.1149 70.8527 76.8985C66.5422 79.6822 63.1183 83.6468 60.9873 88.3226Z" fill="#CDCDCD"/>
<path d="M38.9835 116.374C35.9982 116.374 33.0682 115.173 32.4832 111.469C40.7756 114 48.257 111.284 48.257 105.362C48.257 101.755 45.4239 98.5451 38.5827 98.5451C33.1604 98.5451 26.7846 101.778 26.7846 110.019C26.7846 118.259 33.4092 121.497 38.8912 121.497C42.8026 121.497 45.6681 120.259 47.7318 117.977L44.2814 114.43C42.8028 115.69 40.924 116.379 38.9835 116.374ZM38.6472 103.575C40.5268 103.575 42.1899 104.314 42.1899 106.009C42.1899 108.295 38.3984 109.557 32.6076 107.894C33.3493 104.776 35.8324 103.575 38.6472 103.575ZM5.52841 99.1316L5.37644 107.275C5.34429 110.577 5.21988 112.212 4.72682 114.06C4.23395 115.907 3.46451 116.369 2.14249 116.369C1.75567 116.387 1.36885 116.335 1 116.217V120.836C1.65841 121.127 2.37774 121.254 3.09606 121.206C7.03955 121.085 8.95129 119.233 9.87271 115.903C10.5499 113.529 10.6743 111.677 10.7941 108.933L10.9139 104.522H17.8841V120.836H23.4905V99.127L5.52841 99.1316ZM120.313 116.466C119.11 116.466 118.525 115.787 118.525 114.462V99.1316H112.947V101.441C111.283 99.4965 109.003 98.5403 106.11 98.5403C104.706 98.5301 103.317 98.8179 102.032 99.3848C100.747 99.9516 99.5967 100.785 98.6561 101.829C96.6158 104.028 95.5102 106.937 95.5741 109.94C95.5084 112.962 96.6132 115.892 98.6561 118.115C99.5891 119.168 100.736 120.008 102.019 120.58C103.302 121.152 104.692 121.442 106.096 121.432C109.146 121.432 111.486 120.383 113.149 118.254L113.241 118.134C113.826 120.166 115.273 121.432 118.203 121.432C119.422 121.464 120.632 121.222 121.746 120.725V116.106C121.306 116.36 120.806 116.488 120.299 116.476L120.313 116.466ZM111.44 114.402C110.88 114.963 110.21 115.403 109.473 115.695C108.736 115.986 107.948 116.123 107.156 116.097C106.364 116.126 105.575 115.991 104.839 115.699C104.102 115.407 103.434 114.966 102.876 114.402C102.31 113.813 101.869 113.116 101.578 112.353C101.286 111.59 101.151 110.775 101.181 109.958C101.145 109.151 101.278 108.344 101.57 107.591C101.862 106.837 102.306 106.152 102.876 105.58C103.718 104.708 104.803 104.113 105.988 103.873C107.174 103.632 108.404 103.756 109.518 104.23C110.631 104.704 111.576 105.505 112.226 106.528C112.877 107.55 113.204 108.746 113.163 109.958C113.194 110.778 113.057 111.595 112.76 112.359C112.464 113.123 112.015 113.818 111.44 114.402ZM75.1795 99.1316V104.531H82.1405V120.845H87.7516V104.531H94.6204V99.1316H75.1795ZM66.9562 99.1316V107.122H57.1898V99.1316H51.5832V120.84H57.1898V112.397H66.9378V120.845H72.5444V99.1362L66.9562 99.1316Z" fill="#CDCDCD"/>
</svg>
