<svg width="156" height="138" viewBox="0 0 156 138" fill="none" xmlns="http://www.w3.org/2000/svg">
<path d="M120.014 58.6427L114.524 59.6348C113.613 59.7984 113.008 60.6724 113.172 61.5865C113.335 62.5001 114.208 63.1072 115.118 62.9424L120.607 61.9513C121.914 61.7147 122.721 62.4989 123.041 63.3113C123.361 64.1227 123.306 65.2474 122.192 65.9719L114.133 71.2123C113.386 71.6989 112.474 71.7335 111.692 71.3077C110.91 70.8807 110.443 70.0931 110.443 69.2001L110.441 56.3032C110.44 54.1582 109.319 52.267 107.441 51.2442C105.563 50.2197 103.371 50.3048 101.578 51.4706L81.3117 64.6495C79.0315 66.1327 78.1706 68.8324 79.1701 71.3676C80.1692 73.9036 82.6379 75.282 85.3119 74.8003L103.01 71.6043C103.921 71.4405 104.527 70.5666 104.362 69.6522C104.198 68.7388 103.327 68.1305 102.417 68.2952L84.7186 71.4908C83.4101 71.7267 82.6051 70.9427 82.2852 70.1315C81.9653 69.3199 82.0204 68.1952 83.1339 67.4701L103.401 54.2918C104.146 53.8065 105.059 53.7706 105.842 54.1973C106.623 54.6231 107.09 55.4111 107.09 56.304L107.093 69.2011C107.093 71.3461 108.214 73.2372 110.092 74.2611C110.964 74.7364 111.904 74.973 112.841 74.973C113.92 74.973 114.994 74.6587 115.956 74.0336L124.014 68.7933C126.295 67.3099 127.156 64.6103 126.156 62.0751C125.157 59.5391 122.686 58.1616 120.014 58.6427ZM147.979 47.0247C146.624 45.4263 145.084 43.986 143.421 42.7107C140.09 40.155 136.281 38.273 132.332 36.8835C128.372 35.5004 124.258 34.6067 120.119 34.005C115.976 33.4051 111.797 33.0999 107.62 32.9719C99.2446 32.6632 90.8168 33.7663 82.7567 36.0805C74.674 38.3695 67.0111 41.892 59.616 45.7626C55.9065 47.6827 52.2684 49.7208 48.5444 51.5447C46.6817 52.4526 44.7986 53.3115 42.8699 54.0208C40.9445 54.7347 38.9655 55.2927 36.9573 55.5339C34.9549 55.7772 32.9124 55.6594 31.0096 55.0622C30.0706 54.7695 29.1853 54.3285 28.4876 53.6979C27.7928 53.0682 27.3088 52.2437 27.166 51.3248C27.004 50.4114 27.1586 49.4345 27.4925 48.5212C27.819 47.5982 28.3374 46.7339 28.9337 45.9271C30.1387 44.3155 31.6748 42.9344 33.3367 41.743C36.6841 39.369 40.5158 37.6875 44.4621 36.4725C48.4163 35.2515 52.5118 34.4889 56.638 34.0585C60.765 33.615 64.9296 33.5025 69.0866 33.6316C73.2443 33.7795 77.3957 34.164 81.5239 34.7311L77.5924 33.9085C76.2766 33.6635 74.9634 33.3931 73.6426 33.1684C70.9993 32.7287 68.3489 32.3177 65.6843 32.009C60.3595 31.356 54.9911 30.9881 49.6068 31.0003C44.2252 31.0376 38.8287 31.4626 33.5041 32.4537C28.1906 33.4632 22.9331 35.0644 18.07 37.6172C15.6476 38.8975 13.3115 40.3974 11.2334 42.2486C10.1862 43.1601 9.20508 44.1586 8.31322 45.2414C7.41596 46.3175 6.59719 47.4732 5.921 48.7215C4.55465 51.1994 3.68156 54.0294 3.66398 56.9424C3.63143 59.8473 4.48675 62.7773 6.07597 65.2065C7.6558 67.6528 9.89245 69.5767 12.3436 70.9888C14.8027 72.4009 17.5058 73.3087 20.217 73.8535C25.5624 74.9513 31.1191 75.3133 36.5781 74.6144C42.0399 73.9368 47.334 72.2439 52.2648 69.9334C57.21 67.6286 61.8275 64.7687 66.3015 61.7872C70.7802 58.8046 75.1527 55.7207 79.6344 52.8382C84.1177 49.9643 88.697 47.2597 93.504 45.0289C98.3054 42.7934 103.326 41.048 108.488 39.8708C113.646 38.6906 118.958 38.1312 124.256 38.0921C129.507 38.1068 134.75 39.5469 139.49 41.9221C141.862 43.1151 144.116 44.5602 146.166 46.2624C147.932 47.7258 149.558 49.3915 150.861 51.2987C151.063 51.6074 151.271 51.9126 151.462 52.2297C150.499 50.3761 149.33 48.6249 147.979 47.0247ZM54.9534 33.5389C56.1342 33.4378 57.3168 33.3649 58.4994 33.3124C57.8588 33.351 57.2178 33.3827 56.5771 33.436C52.4118 33.8121 48.2634 34.5214 44.2324 35.7034C40.2086 36.8835 36.2765 38.5334 32.7754 40.942C31.0406 42.1584 29.3952 43.5605 28.0932 45.2953C27.447 46.163 26.8716 47.1052 26.4928 48.1532C26.1104 49.191 25.9061 50.3515 26.102 51.5044C26.2735 52.662 26.9022 53.74 27.7509 54.5093C28.6042 55.2849 29.6303 55.7894 30.6729 56.1227C32.751 56.7851 34.9597 56.9153 37.0879 56.6662C39.2221 56.4192 41.285 55.8427 43.2679 55.1176C45.2555 54.396 47.175 53.5305 49.0626 52.6199C52.8325 50.7849 56.496 48.787 60.1819 46.8535C67.5333 42.9664 75.0946 39.4532 83.0644 37.1579C91.0155 34.8296 99.3099 33.7478 107.597 33.9085C107.72 33.9105 107.842 33.9143 107.964 33.9169C107.694 33.9189 107.422 33.9181 107.152 33.9235L103.792 34.0921C94.8302 34.7049 86.035 37.0894 77.7965 40.6125C73.6741 42.3764 69.6767 44.4082 65.753 46.5454C61.8271 48.6792 57.979 50.9326 54.0805 53.0465C52.1358 54.1135 50.1761 55.1407 48.1793 56.0729C46.1921 57.0265 44.1475 57.8333 42.0695 58.5003C39.9944 59.1807 37.853 59.6102 35.701 59.785C34.6238 59.9042 33.5446 59.8565 32.4672 59.8321L30.8592 59.6618C30.322 59.6158 29.8018 59.4633 29.2712 59.3708C27.1614 58.9918 25.1616 58.1083 23.7469 56.6409C23.0659 55.896 22.5345 55.0171 22.2845 54.0424C22.0083 53.0754 22.0073 52.0348 22.1798 51.0205C22.5511 48.9778 23.6602 47.0744 25.0368 45.4337C26.4171 43.7821 28.0942 42.3617 29.9015 41.1395C33.5306 38.6922 37.6605 37.0023 41.8995 35.8035C46.1487 34.6039 50.5398 33.9065 54.9534 33.5389ZM47.3903 33.6363C45.4588 33.9573 43.5402 34.3567 41.6421 34.8583C37.31 36.0104 33.0578 37.6637 29.2451 40.1456C27.3453 41.3865 25.56 42.8435 24.05 44.5915C22.5587 46.3377 21.3155 48.4116 20.865 50.7811C20.6561 51.9601 20.6477 53.2084 20.9778 54.397C21.279 55.5921 21.9282 56.684 22.7462 57.5825C24.4335 59.3538 26.7288 60.3282 28.9719 60.7491C29.5362 60.8532 30.0912 61.0139 30.6627 61.0682L32.3744 61.2584C33.5197 61.2931 34.6695 61.3464 35.8092 61.2282C38.0906 61.0553 40.3478 60.6107 42.5068 59.9164C44.6698 59.2344 46.7812 58.4116 48.8147 57.4495C50.8591 56.5081 52.8543 55.4798 54.8176 54.4082C58.7395 52.2549 62.5689 49.9841 66.4601 47.8439C70.3483 45.6989 74.2908 43.6701 78.3497 41.9079C82.4088 40.1532 86.5834 38.6726 90.8562 37.5565C95.1268 36.4455 99.486 35.6735 103.886 35.2757C105.828 35.1205 107.778 35.0297 109.73 35.0015C106.445 35.1754 103.167 35.5565 99.9284 36.1685C90.4707 37.8884 81.5395 41.7478 73.2014 46.3573C69.0163 48.6548 64.9554 51.1469 60.8853 53.5753C56.8152 56.0026 52.7243 58.3759 48.4479 60.281C47.9173 60.5311 47.3821 60.7641 46.8399 60.9774C46.2991 61.1955 45.7617 61.4257 45.2181 61.6342C44.1184 62.0094 43.031 62.4346 41.9081 62.7236C40.799 63.0746 39.6641 63.2963 38.5335 63.5415C37.9676 63.6594 37.3919 63.7117 36.8211 63.8018L35.964 63.9232C35.6766 63.9549 35.3885 63.9623 35.1013 63.9841L33.3751 64.0877L31.6457 64.0542C31.0685 64.0626 30.4948 63.9999 29.9212 63.9352C29.3483 63.8697 28.7714 63.8343 28.2024 63.7434C27.0755 63.5114 25.9059 63.3616 24.8297 63.0415C23.7441 62.7224 22.6939 62.3042 21.7221 61.7626C20.7512 61.2198 19.8575 60.5542 19.1096 59.7598C18.3664 58.9616 17.773 58.0372 17.3776 57.0321C16.5746 55.0163 16.6679 52.7066 17.388 50.6019C18.1119 48.4835 19.4196 46.5604 20.9816 44.8901C22.5373 43.2046 24.3718 41.7578 26.3362 40.519C30.2729 38.0306 34.7143 36.3529 39.2565 35.1764C41.9285 34.4907 44.6482 33.9946 47.3903 33.6363ZM36.5599 34.5889C37.0971 34.4651 37.6373 34.3501 38.1771 34.239C33.8002 35.349 29.5007 36.9264 25.5859 39.3017C23.5144 40.5574 21.5542 42.0416 19.8509 43.8195C18.1563 45.5928 16.7106 47.6835 15.8731 50.0753C15.0401 52.4476 14.8884 55.1905 15.8431 57.6302C16.3106 58.8428 17.0194 59.9565 17.8913 60.9027C18.768 61.8449 19.7996 62.6179 20.8954 63.2394C21.9949 63.8607 23.161 64.3306 24.35 64.688C25.5502 65.0501 26.7414 65.2084 27.938 65.4601C28.5399 65.5581 29.1488 65.6023 29.7533 65.6743C30.3596 65.7456 30.9657 65.8137 31.5764 65.8099L33.4046 65.8559L35.2319 65.7578C35.5358 65.7371 35.8406 65.7303 36.1439 65.6979L37.0496 65.5761C37.6513 65.4864 38.2602 65.4321 38.8563 65.3115C40.0473 65.0627 41.2439 64.8342 42.4032 64.4757C43.5822 64.1782 44.7125 63.7468 45.8598 63.3604C46.4257 63.1479 46.9807 62.9129 47.5423 62.6902C48.1046 62.4703 48.6614 62.2391 49.2034 61.9781C53.5952 59.9905 57.7226 57.5583 61.7927 55.099C65.8638 52.6371 69.8882 50.1348 74.0162 47.8373C78.1406 45.5343 82.3617 43.4223 86.7295 41.6723C91.0982 39.9309 95.5975 38.5204 100.202 37.5661C104.358 36.7041 108.595 36.2241 112.844 36.0949L111.151 36.2101C106.081 36.7004 101.054 37.7194 96.187 39.2553C91.3155 40.7842 86.6141 42.8206 82.1055 45.1834C77.5894 47.5379 73.2467 50.1842 68.9707 52.8841C64.6896 55.5767 60.4747 58.3409 56.1182 60.802C55.0177 61.3916 53.9377 62.027 52.8176 62.5698L51.1498 63.4101L49.4552 64.1822L48.6075 64.5686L47.7446 64.9121L46.0209 65.5999L44.2658 66.1922L43.3891 66.4877L42.4984 66.7294L40.7171 67.215L38.9102 67.5829L38.0073 67.766C37.7042 67.8149 37.3992 67.8467 37.0953 67.8866L35.2692 68.1217C32.8247 68.294 30.3614 68.3613 27.9166 68.0712C27.306 68.0037 26.6921 67.9581 26.0832 67.8719L24.2653 67.5444C23.037 67.3506 21.8767 67.0597 20.7332 66.6842C18.4642 65.915 16.3432 64.7332 14.6813 63.0918C13.0184 61.4589 11.8841 59.3299 11.5486 57.0363C11.1939 54.7427 11.648 52.3451 12.6228 50.1768C13.6125 48.0058 15.0925 46.0446 16.8321 44.3413C18.5705 42.6335 20.5591 41.1557 22.6883 39.9103C26.9543 37.4089 31.6998 35.7184 36.5599 34.5889ZM108.156 38.3161C102.845 39.3765 97.6738 41.1095 92.724 43.3003C87.7762 45.5032 83.0457 48.155 78.4913 51.0289C73.9297 53.8954 69.5105 56.9442 65.0392 59.8535C60.5643 62.7517 56.0361 65.5395 51.2581 67.746C46.4892 69.9591 41.4528 71.5426 36.2771 72.1676C31.1045 72.7937 25.836 72.5027 20.7007 71.4595C18.1683 70.9616 15.7285 70.1417 13.533 68.8931C11.3497 67.6458 9.41057 65.9755 8.06299 63.9054C6.71322 61.8449 5.95695 59.4175 5.95875 56.947C5.94477 54.4745 6.66189 52.0058 7.85391 49.7806C8.44342 48.6614 9.17093 47.6086 9.97772 46.6175C10.7797 45.621 11.6734 44.6906 12.6367 43.8325C14.5507 42.0985 16.7162 40.6265 19.0042 39.367C21.972 37.734 25.144 36.4697 28.4129 35.4824C26.1645 36.3039 23.9668 37.2821 21.8589 38.4611C19.6085 39.7206 17.4755 41.2348 15.5727 43.0307C13.6794 44.8332 12.0368 46.9582 10.8991 49.3847C9.77902 51.8067 9.20348 54.5822 9.5963 57.3165C9.96295 60.049 11.3085 62.6233 13.2317 64.5454C15.1514 66.4891 17.5678 67.8088 20.0636 68.6689C21.3155 69.087 22.608 69.4117 23.8729 69.6156L25.7793 69.9649C26.4179 70.0574 27.0633 70.1089 27.706 70.1818C30.2775 70.4935 32.8816 70.4366 35.4651 70.2597L37.3939 70.019C37.7156 69.9771 38.0373 69.9436 38.3582 69.8938L39.3094 69.7047L41.2141 69.3229L43.0859 68.8176L44.0205 68.5592L44.9364 68.2475L46.7672 67.6234L48.5563 66.9029L49.4514 66.5416L50.3255 66.1402L52.0743 65.3373L53.7847 64.467C54.9366 63.9036 56.0325 63.2542 57.1555 62.6467C61.5828 60.1175 65.8247 57.3438 70.0655 54.6139C74.3026 51.8796 78.5678 49.2226 82.9858 46.8625C87.4041 44.5101 91.9639 42.4334 96.6972 40.8362C101.429 39.2406 106.327 38.1468 111.295 37.5673L115.031 37.2389C115.264 37.2238 115.498 37.2194 115.731 37.2088C113.192 37.4454 110.663 37.8101 108.156 38.3161ZM142.22 58.6389L136.73 59.6306C135.819 59.7946 135.214 60.6686 135.378 61.5819C135.541 62.4961 136.413 63.1036 137.323 62.9388L142.814 61.9477C144.12 61.7111 144.927 62.4951 145.247 63.3075C145.567 64.1191 145.513 65.2438 144.398 65.9681L136.34 71.2085C135.592 71.6951 134.68 71.7297 133.899 71.3039C133.116 70.8772 132.649 70.0893 132.649 69.1965L132.647 52.2183C132.647 51.2899 131.897 50.5366 130.971 50.5366C130.045 50.5376 129.296 51.2899 129.296 52.2183L129.299 69.1975C129.299 71.3425 130.42 73.2336 132.298 74.2575C133.171 74.7328 134.111 74.9694 135.047 74.9694C136.126 74.9694 137.202 74.6551 138.162 74.03L146.222 68.7897C148.501 67.3063 149.362 64.6067 148.363 62.0715C147.363 59.5355 144.894 58.156 142.22 58.6389Z" fill="#CDCDCD"/>
<path d="M41.3027 93.7567L36.869 93.7575L36.8682 89.5661L44.3044 89.5643C45.0603 89.5643 45.5494 89.1236 45.5494 88.4145C45.5494 87.7413 45.0603 87.3007 44.3044 87.3007L36.321 87.3017C35.1348 87.3025 34.4712 87.9524 34.4712 89.1484L34.473 101.92C34.473 103.115 35.1366 103.765 36.324 103.765L41.3039 103.764C44.5043 103.764 46.4013 101.906 46.4005 98.62C46.3995 95.4971 44.5029 93.7557 41.3027 93.7567ZM41.0479 101.511L36.8702 101.513L36.869 95.8937L41.0469 95.8929C43.0597 95.8929 43.9448 96.9135 43.9448 98.6671C43.9448 100.456 43.0603 101.511 41.0479 101.511ZM155.126 95.7343C155.126 92.6807 153.357 91.2764 150.297 91.2764C148.901 91.2764 147.62 91.6247 146.829 91.9614C146.189 92.2178 145.91 92.5892 145.922 93.0891C145.922 93.669 146.364 94.0984 146.911 94.0984C147.179 94.0984 147.469 93.9943 147.784 93.8661C148.32 93.657 149.215 93.4126 150.111 93.4126C152.054 93.4116 152.869 94.1549 152.869 95.7V96.7216C151.729 96.4073 150.821 96.2809 149.773 96.2809C146.656 96.2809 145.12 98.0576 145.12 100.019C145.12 102.295 146.842 103.968 149.833 103.966C152.183 103.966 153.976 103.176 154.686 102.689C155.011 102.455 155.127 102.247 155.127 101.794L155.126 95.7343ZM150.054 101.993C148.379 101.993 147.354 101.274 147.354 100.02C147.354 98.8938 148.238 98.0217 150.042 98.0217C150.985 98.0217 151.811 98.1611 152.87 98.4744V101.296C152.102 101.702 151.055 101.993 150.054 101.993ZM9.93592 89.2802C9.4121 87.8409 8.65623 87.2023 7.4105 87.2023C6.16576 87.2031 5.39771 87.8409 4.8737 89.2814L0.174737 101.972C0.024163 102.378 0 102.598 0 102.773C0 103.376 0.489067 103.876 1.16366 103.876C1.71044 103.876 2.13021 103.609 2.36306 102.923L3.8748 98.6503L10.9037 98.6495L12.4294 102.933C12.6614 103.607 13.08 103.874 13.616 103.874C14.3026 103.874 14.7914 103.374 14.7914 102.759C14.7914 102.527 14.7441 102.317 14.6165 101.958L9.93592 89.2802ZM4.64185 96.5022L7.03806 89.7451C7.13132 89.5016 7.2128 89.4208 7.38753 89.4208C7.56207 89.4208 7.64355 89.5016 7.72583 89.7451L10.1348 96.5022H4.64185ZM22.0769 97.4399L26.1596 93.5268C26.4857 93.2015 26.6605 92.8762 26.6605 92.4936C26.6605 91.8667 26.2189 91.402 25.5553 91.402C25.1829 91.402 24.8797 91.553 24.5424 91.9016L20.4821 95.8495C19.9351 96.3843 19.8768 96.4183 19.3067 96.4195H18.9582L18.9572 92.6337C18.9572 91.8565 18.5035 91.4038 17.7927 91.4038C17.0832 91.4038 16.6295 91.8565 16.6295 92.6345L16.6313 102.584C16.6313 103.362 17.085 103.816 17.7947 103.816C18.5045 103.816 18.959 103.362 18.959 102.584L18.9582 98.6595H19.3187C20.0404 98.6595 20.0875 98.6707 20.5993 99.1935L24.6145 103.373C24.952 103.732 25.2895 103.872 25.6737 103.872C26.3252 103.872 26.7671 103.442 26.7671 102.803C26.7671 102.467 26.6395 102.118 26.3364 101.781L22.0769 97.4399ZM53.0687 91.293C51.6732 91.293 50.3925 91.6424 49.6015 91.9791C48.9611 92.2343 48.6821 92.606 48.6941 93.105C48.6941 93.6858 49.1366 94.1153 49.6838 94.1143C49.9508 94.1143 50.2421 94.0103 50.5561 93.8819C51.0913 93.6738 51.9867 93.4294 52.883 93.4294C54.8265 93.4294 55.6412 94.1726 55.6412 95.7159V96.7376C54.501 96.4251 53.5937 96.2969 52.5467 96.2977C49.4268 96.2977 47.8921 98.0744 47.8921 100.036C47.8921 102.313 49.6145 103.983 52.606 103.983C54.9559 103.982 56.7486 103.193 57.4583 102.705C57.7834 102.473 57.8999 102.264 57.8999 101.811L57.8991 95.7509C57.8981 92.6972 56.1293 91.293 53.0687 91.293ZM52.8267 102.009C51.1502 102.009 50.1263 101.29 50.1253 100.036C50.1253 98.9095 51.0108 98.0392 52.8145 98.0392C53.7571 98.0384 54.5832 98.1774 55.6422 98.4912V101.312C54.8742 101.718 53.8272 102.009 52.8267 102.009ZM111.89 91.2838C109.76 91.2838 108.003 92.05 107.293 92.4676C106.769 92.7821 106.7 93.0375 106.701 93.9076L106.703 106.714C106.703 107.492 107.156 107.944 107.866 107.944C108.588 107.944 109.042 107.491 109.042 106.714L109.041 103.312C109.797 103.683 110.961 103.973 112.078 103.973C114.964 103.972 116.918 102.068 117.186 99.3173C117.267 98.3879 117.267 96.8666 117.185 95.938C116.929 93.1751 114.962 91.283 111.89 91.2838ZM114.858 98.9914C114.707 100.617 113.684 101.72 111.821 101.721C110.856 101.721 109.634 101.419 109.041 101.001L109.04 94.2563C109.633 93.8258 110.855 93.5244 111.819 93.5244C113.683 93.5244 114.718 94.626 114.858 96.2635C114.939 97.0757 114.94 98.1203 114.858 98.9914ZM82.5492 99.3457C82.0144 99.3567 81.7112 99.6824 81.5135 100.043C81.0716 101.029 80.1068 101.714 78.8261 101.715C76.9989 101.715 75.9161 100.612 75.7655 98.999C75.6952 98.1387 75.6952 97.129 75.7643 96.2697C75.9151 94.6445 77.0092 93.5408 78.8243 93.5408C80.105 93.5408 81.0598 94.2136 81.5133 95.2243C81.723 95.5719 82.0132 95.9082 82.5492 95.9082C83.2239 95.9202 83.6776 95.4907 83.6776 94.8287C83.6776 94.4924 83.55 94.1437 83.3402 93.7373C82.6174 92.3679 81.0356 91.2884 78.789 91.2884C75.7525 91.2892 73.7156 93.2051 73.4606 95.9572C73.3671 96.8746 73.3671 98.3829 73.4606 99.3004C73.7174 102.053 75.7543 103.98 78.7908 103.978C81.0372 103.978 82.6192 102.898 83.3412 101.517C83.5618 101.11 83.6783 100.762 83.6783 100.425C83.6783 99.775 83.2247 99.3337 82.5492 99.3457ZM100.041 89.2646C99.5169 87.8253 98.7609 87.1865 97.5151 87.1875C96.2704 87.1875 95.5023 87.8263 94.9793 89.2664L90.2794 101.957C90.1288 102.363 90.1056 102.583 90.1056 102.757C90.1056 103.362 90.5945 103.861 91.2691 103.861C91.8153 103.861 92.2348 103.593 92.4677 102.908L93.9804 98.6348L101.008 98.634L102.534 102.918C102.767 103.591 103.185 103.859 103.72 103.859C104.407 103.858 104.896 103.359 104.896 102.743C104.896 102.512 104.85 102.302 104.721 101.943L100.041 89.2646ZM94.7475 96.4874L97.1439 89.7293C97.2361 89.4859 97.3184 89.405 97.4922 89.405C97.6669 89.405 97.7482 89.4859 97.8305 89.7293L100.239 96.4864L94.7475 96.4874ZM124.773 91.3041C121.725 91.3041 119.665 93.3139 119.398 96.1465C119.317 96.9824 119.329 98.3757 119.41 99.246C119.679 102.033 121.773 103.971 124.892 103.97C126.288 103.97 127.534 103.646 128.476 103.204C128.929 102.983 129.384 102.635 129.372 102.054C129.361 101.451 128.964 101.079 128.406 101.08C128.092 101.08 127.871 101.195 127.51 101.335C126.8 101.625 125.974 101.834 124.939 101.835C122.983 101.835 121.727 100.731 121.609 99.0597C121.598 98.8744 121.586 98.6771 121.586 98.4798L128.522 98.479C129.627 98.479 129.849 98.2927 129.848 97.0971V96.365C129.848 93.3704 127.95 91.3031 124.773 91.3041ZM127.672 96.7494H121.585C121.597 96.6112 121.597 96.4598 121.608 96.3198C121.737 94.5439 122.899 93.3363 124.715 93.3363C126.6 93.3363 127.846 94.5662 127.672 96.7494ZM65.9292 91.2912C63.7994 91.2912 62.0425 92.0574 61.3327 92.4762C60.8089 92.7895 60.7386 93.0449 60.7394 93.9162L60.7414 106.721C60.7414 107.5 61.1951 107.953 61.9059 107.953C62.6274 107.953 63.0805 107.5 63.0805 106.721V103.32C63.8364 103.691 64.9998 103.981 66.117 103.981C69.0032 103.981 70.9583 102.076 71.2255 99.3247C71.3066 98.3953 71.3058 96.875 71.2243 95.9458C70.9677 93.1825 69.0012 91.2904 65.9292 91.2912ZM68.8974 98.9992C68.7468 100.626 67.7231 101.728 65.8609 101.728C64.8954 101.728 63.6736 101.428 63.0805 101.009L63.0785 94.2637C63.6718 93.8332 64.8936 93.5324 65.8589 93.5318C67.7212 93.5318 68.757 94.6343 68.8966 96.2709C68.9789 97.0841 68.9797 98.1287 68.8974 98.9992ZM141.777 91.3826C141.067 91.3826 140.613 91.8353 140.613 92.6132V96.4211L134.621 96.4231V92.6144C134.621 91.8359 134.166 91.3834 133.456 91.3844C132.747 91.3844 132.293 91.8359 132.293 92.615L132.295 102.622C132.295 103.4 132.748 103.853 133.458 103.853C134.168 103.853 134.623 103.4 134.623 102.622L134.622 98.57L140.614 98.5693L140.615 102.621C140.615 103.4 141.069 103.852 141.779 103.852C142.501 103.852 142.942 103.399 142.942 102.621L142.94 92.6132C142.94 91.8351 142.499 91.3826 141.777 91.3826Z" fill="#CDCDCD"/>
</svg>
