<svg width="172" height="138" viewBox="0 0 172 138" fill="none" xmlns="http://www.w3.org/2000/svg">
<g clip-path="url(#clip0_2028_1505)">
<path d="M53.4023 64.2622H64.3016V67.8235H59.1168V92.8462H53.4023V64.2622Z" fill="#CDCDCD"/>
<path d="M70.7658 82.1155L71.7452 67.8235H72.0731L73.0524 82.1155H70.7658ZM64.4375 92.8462H70.0323L70.5619 85.255H73.2563L73.7881 92.8462H79.3807L76.4006 64.2622H67.4176L64.4375 92.8462Z" fill="#CDCDCD"/>
<path d="M87.5655 82.8418V88.2305C87.5655 88.9568 88.1278 89.1677 88.4557 89.1677C88.9947 89.1677 89.3696 88.7226 89.3696 88.2305V81.5767C89.3696 80.6862 89.2056 79.7023 87.0734 79.7023H84.7539V76.5628H87.1673C88.7838 76.5628 89.3696 76.1879 89.3696 74.4306V68.7607C89.3696 68.2688 88.9947 67.8235 88.4557 67.8235C88.1278 67.8235 87.5655 68.011 87.5655 68.7607V73.4233H81.8486V69.37C81.8486 67.3783 82.0831 64.2622 86.0895 64.2622H90.8222C94.8286 64.2622 95.0864 67.3783 95.0864 69.37V73.9387C95.0864 77.0546 92.9075 77.8982 91.197 77.8279V78.1091C95.0395 78.0154 95.0864 80.9674 95.0864 81.9749V87.7386C95.0864 89.7534 94.8286 92.8462 90.8222 92.8462H86.0895C82.0831 92.8462 81.8486 89.7534 81.8486 87.7386V82.8418H87.5655Z" fill="#CDCDCD"/>
<path d="M98.833 64.2622H112.071V92.8462H106.354V67.8235H104.55V92.8462H98.833V64.2622Z" fill="#CDCDCD"/>
<path d="M121.538 79.9835V67.8235H122.288C122.897 67.8235 123.342 68.3391 123.342 69.2527V78.5542C123.342 79.468 122.897 79.9835 122.288 79.9835H121.538ZM115.821 92.8462H121.538V83.123H124.818C128.801 83.123 129.059 80.0302 129.059 78.0154V69.37C129.059 67.3783 128.801 64.2622 124.818 64.2622H115.821V92.8462Z" fill="#CDCDCD"/>
<path d="M140.327 88.2305C140.327 88.7226 139.952 89.1677 139.413 89.1677C139.085 89.1677 138.523 88.9568 138.523 88.2305V68.7607C138.523 68.011 139.085 67.8235 139.413 67.8235C139.952 67.8235 140.327 68.2688 140.327 68.7607V88.2305ZM132.806 87.7386C132.806 89.7534 133.063 92.8462 137.047 92.8462H141.803C145.786 92.8462 146.043 89.7534 146.043 87.7386V69.37C146.043 67.3783 145.786 64.2622 141.803 64.2622H137.047C133.063 64.2622 132.806 67.3783 132.806 69.37V87.7386Z" fill="#CDCDCD"/>
<path d="M164.647 64.2622H172.098V92.8462H166.381V74.9226H166.17L163.218 92.8462H158.649L155.72 74.9226H155.51V92.8462H149.793V64.2622H157.22L160.945 84.3647L164.647 64.2622Z" fill="#CDCDCD"/>
<path d="M45.9962 25.1838C44.2461 17.5223 39.8602 11.2902 39.2557 10.2827C38.2998 11.7118 34.8018 17.2177 33.0235 23.3094C31.0812 30.1274 30.7954 36.1721 31.4654 42.0997C32.1308 48.0507 34.6448 54.166 34.6448 54.166C35.9802 57.3522 37.981 60.7964 39.2839 62.4833C41.1932 59.9998 45.5817 52.5961 46.95 42.9432C47.7115 37.5545 47.7442 32.8451 45.9962 25.1838ZM39.2557 60.5622C38.3958 58.9454 37.0604 55.8762 36.9338 51.0966C36.9011 46.5045 38.7449 42.545 39.2839 41.7248C39.7642 42.545 41.3526 45.989 41.5423 50.6984C41.6713 55.2905 40.1436 58.9221 39.2557 60.5622ZM45.488 38.1871C45.4223 41.1157 45.0732 44.2085 44.6281 46.0593C44.7875 42.8729 44.4054 38.398 43.6745 34.8835C42.9434 31.3925 40.8747 25.5353 39.223 22.8409C37.6977 25.418 35.8187 30.4789 34.8346 34.8601C33.8458 39.2413 33.8177 44.5598 33.8177 46.153C33.5553 44.8176 32.8993 40.0146 33.0844 35.2116C33.239 31.2519 34.1668 27.1518 34.6752 25.2775C36.6153 19.0218 38.8106 15.0154 39.223 14.3828C39.6352 15.0154 42.3998 19.959 43.8339 25.1369C45.2607 30.3147 45.5489 35.2819 45.488 38.1871Z" fill="#CDCDCD"/>
<path d="M42.2239 64.2622H28.9185V73.1886C28.9302 73.1886 28.9394 73.1652 28.9512 73.1652C32.0861 70.0257 37.1703 70.0257 40.3074 73.1652C43.4423 76.2813 43.4423 81.3655 40.3074 84.505C40.2934 84.5286 40.2794 84.5286 40.2653 84.552C40.2489 84.552 40.2325 84.5753 40.2185 84.5989C37.0906 87.6914 33.0045 89.2377 28.9185 89.2377C24.8136 89.2377 20.7088 87.6915 17.5786 84.552C12.0587 79.046 11.4049 70.4942 15.613 64.2622C16.1799 63.4186 16.8336 62.622 17.5786 61.8723C20.7088 58.7328 24.8136 57.1863 28.9185 57.1863V35.7251C13.1459 35.7251 0.360352 48.4942 0.360352 64.2622C0.360352 80.0301 13.1459 92.8226 28.9185 92.8226C37.1421 92.8226 44.5504 89.3316 49.7612 83.7787V64.2622H42.2239Z" fill="#CDCDCD"/>
</g>
<defs>
<clipPath id="clip0_2028_1505">
<rect width="172" height="138" fill="white"/>
</clipPath>
</defs>
</svg>
