<svg width="138" height="138" viewBox="0 0 138 138" fill="none" xmlns="http://www.w3.org/2000/svg">
<g clip-path="url(#clip0_2028_1511)">
<path fill-rule="evenodd" clip-rule="evenodd" d="M58.1356 12.6714L13.7469 57.0054C-4.58229 75.3343 -4.58229 105.052 13.7469 123.381C32.0758 141.711 61.7927 141.711 80.1226 123.381L124.457 78.9915C141.696 60.5916 141.349 31.7019 123.388 13.7402C114.227 4.58034 102.22 0.00079898 90.2157 1.76948e-07C78.6828 -0.000998327 67.1517 4.22407 58.1356 12.6714ZM60.6282 116.009H58.9777V115.852C58.9777 115.388 59.2701 115.124 59.8063 115.124C60.3492 115.124 60.6282 115.388 60.6282 115.852V116.009ZM59.8063 114.423C58.7271 114.423 58.1483 114.973 58.1483 115.966V116.809C58.1483 117.689 58.6196 118.339 59.7915 118.339C60.5997 118.339 61.0784 118.075 61.3352 117.653C61.4364 117.496 61.4145 117.374 61.2503 117.296L60.9999 117.16C60.8285 117.067 60.7492 117.088 60.6354 117.246C60.485 117.481 60.2134 117.624 59.7915 117.624C59.2701 117.624 58.9777 117.374 58.9777 116.91V116.645H61.1357C61.3853 116.645 61.4574 116.524 61.4574 116.338V115.902C61.4574 115.08 60.9426 114.423 59.8063 114.423ZM53.2373 114.53H51.1145C50.9505 114.53 50.8996 114.58 50.8996 114.743V118.011C50.8996 118.175 50.9505 118.232 51.1145 118.232H51.5075C51.6722 118.232 51.7298 118.175 51.7298 118.011V115.295H53.2373C53.4021 115.295 53.4586 115.237 53.4586 115.073V114.744C53.4586 114.581 53.4021 114.53 53.2373 114.53ZM46.7027 114.53H46.3884C46.2098 114.53 46.1597 114.572 46.0812 114.715L45.0588 116.566L44.0225 114.708C43.9442 114.565 43.8869 114.53 43.7082 114.53H43.422C43.2225 114.53 43.1786 114.587 43.1786 114.765V118.01C43.1786 118.189 43.2225 118.232 43.401 118.232H43.7228C43.8869 118.232 43.937 118.182 43.937 118.01V115.967L44.6795 117.317C44.759 117.46 44.8153 117.488 44.9511 117.488H45.1516C45.302 117.488 45.3449 117.453 45.4232 117.324L46.1669 115.984V118.01C46.1669 118.189 46.2098 118.232 46.3882 118.232H46.7239C46.8886 118.232 46.9459 118.182 46.9459 118.01V114.765C46.9459 114.587 46.9032 114.53 46.7027 114.53ZM48.3478 117.352H48.0263C47.8338 117.352 47.7619 117.41 47.7335 117.61L47.555 118.939C47.5402 119.069 47.5688 119.104 47.7042 119.104H47.8622C48.0263 119.104 48.0762 119.04 48.1338 118.882L48.5693 117.61C48.6342 117.438 48.5691 117.352 48.3478 117.352ZM67.2044 114.53H66.8899C66.7115 114.53 66.6614 114.572 66.5827 114.715L65.5612 116.566L64.5242 114.708C64.4459 114.565 64.3882 114.53 64.2097 114.53H63.9245C63.724 114.53 63.6813 114.587 63.6813 114.765V118.01C63.6813 118.189 63.724 118.232 63.9025 118.232H64.224C64.3882 118.232 64.4383 118.182 64.4383 118.01V115.967L65.182 117.317C65.2605 117.46 65.3178 117.488 65.4536 117.488H65.6543C65.8035 117.488 65.8464 117.453 65.9259 117.324L66.6684 115.984V118.01C66.6684 118.189 66.7113 118.232 66.8899 118.232H67.2261C67.3909 118.232 67.4476 118.182 67.4476 118.01V114.765C67.4476 114.587 67.4049 114.53 67.2044 114.53ZM72.3443 114.53H71.9589C71.7937 114.53 71.7366 114.58 71.7366 114.743V118.011C71.7366 118.175 71.7939 118.232 71.9589 118.232H72.3443C72.5084 118.232 72.5658 118.175 72.5658 118.011V114.743C72.5658 114.58 72.5082 114.53 72.3443 114.53ZM69.9429 117.488H69.0991V116.338H69.9429C70.3073 116.338 70.529 116.56 70.529 116.902C70.529 117.246 70.3073 117.488 69.9429 117.488ZM70.0431 115.587H69.0991V114.743C69.0991 114.58 69.0426 114.53 68.8775 114.53H68.4849C68.3197 114.53 68.2706 114.58 68.2706 114.743V118.01C68.2706 118.175 68.3197 118.232 68.4849 118.232H70.0431C70.8789 118.232 71.3937 117.732 71.3937 116.902C71.3937 116.08 70.8789 115.587 70.0431 115.587ZM56.2817 117.46H54.8301C55.0013 117.153 55.1235 116.688 55.1235 115.845V115.295H56.2817V117.46ZM57.4392 117.46H57.1103V114.743C57.1103 114.58 57.0528 114.53 56.8886 114.53H54.5376C54.3726 114.53 54.3225 114.58 54.3225 114.743V115.788C54.3225 116.952 54.1012 117.289 53.8805 117.46H53.723C53.5578 117.46 53.5077 117.518 53.5077 117.689V119.004C53.5077 119.168 53.5578 119.226 53.723 119.226H54.0864C54.2516 119.226 54.3081 119.168 54.3081 119.004V118.232H56.8535V119.004C56.8535 119.168 56.9174 119.226 57.0821 119.226H57.4394C57.6034 119.226 57.6607 119.168 57.6607 119.004V117.689C57.6607 117.518 57.6032 117.46 57.4392 117.46ZM28.2909 116.91C28.2909 117.339 27.9975 117.588 27.4689 117.588C26.9475 117.588 26.6541 117.339 26.6541 116.91V115.851C26.6541 115.416 26.9475 115.173 27.4689 115.173C27.9973 115.173 28.2909 115.416 28.2909 115.851V116.91ZM27.4689 114.422C26.4107 114.422 25.8256 114.966 25.8256 115.851V116.909C25.8256 117.796 26.4107 118.338 27.4689 118.338C28.5405 118.338 29.12 117.796 29.12 116.909V115.851C29.12 114.966 28.5403 114.422 27.4689 114.422ZM23.9464 117.46H22.4956C22.6669 117.153 22.7887 116.688 22.7887 115.845V115.294H23.9464V117.46ZM25.1048 117.46H24.7757V114.743C24.7757 114.58 24.719 114.53 24.5543 114.53H22.203C22.0388 114.53 21.9881 114.58 21.9881 114.743V115.788C21.9881 116.952 21.7662 117.289 21.545 117.46H21.3882C21.2235 117.46 21.1739 117.517 21.1739 117.689V119.004C21.1739 119.168 21.2235 119.225 21.3882 119.225H21.7519C21.9166 119.225 21.9743 119.168 21.9743 119.004V118.232H24.5185V119.004C24.5185 119.168 24.5824 119.225 24.7476 119.225H25.1048C25.2688 119.225 25.3261 119.168 25.3261 119.004V117.689C25.3261 117.517 25.2688 117.46 25.1048 117.46ZM38.5944 114.53H35.8995C35.7355 114.53 35.6782 114.58 35.6782 114.743V115.072C35.6782 115.237 35.7355 115.294 35.8995 115.294H36.8367V118.01C36.8367 118.174 36.893 118.232 37.0579 118.232H37.4434C37.6073 118.232 37.6646 118.174 37.6646 118.01V115.294H38.5944C38.7586 115.294 38.8159 115.237 38.8159 115.072V114.743C38.8159 114.58 38.7584 114.53 38.5944 114.53ZM41.5736 117.496C41.5736 117.56 41.5516 117.574 41.4943 117.596C41.3659 117.624 41.1442 117.653 40.7798 117.653C40.222 117.653 40.1082 117.467 40.1082 117.174C40.1082 116.881 40.2512 116.71 40.7945 116.71C41.0022 116.71 41.2497 116.726 41.4244 116.737C41.4841 116.741 41.5352 116.744 41.5736 116.746V117.496ZM40.8726 114.423C40.1293 114.423 39.6361 114.701 39.3928 115.165C39.307 115.33 39.3571 115.416 39.5149 115.487L39.801 115.609C39.9652 115.673 40.0079 115.652 40.1082 115.501C40.2583 115.273 40.501 115.159 40.8582 115.159C41.394 115.159 41.5736 115.416 41.5736 115.866V116.066C41.5436 116.065 41.5039 116.062 41.4569 116.058C41.3122 116.047 41.0977 116.03 40.8874 116.03C39.7435 116.03 39.2644 116.323 39.2644 117.181C39.2644 117.925 39.5931 118.338 40.8582 118.338C41.4454 118.338 41.8807 118.267 42.1451 118.153C42.3448 118.068 42.4021 117.996 42.4021 117.746V115.894C42.4021 115.051 42.0447 114.423 40.8726 114.423ZM33.3687 114.53H33.0541C32.8746 114.53 32.8257 114.572 32.7462 114.715L31.7245 116.566L30.6883 114.708C30.61 114.565 30.5527 114.53 30.374 114.53H30.0878C29.8873 114.53 29.8445 114.587 29.8445 114.765V118.01C29.8445 118.189 29.8873 118.232 30.0668 118.232H30.3885C30.5527 118.232 30.6028 118.182 30.6028 118.01V115.967L31.3453 117.317C31.4236 117.46 31.4811 117.488 31.6169 117.488H31.8174C31.967 117.488 32.0107 117.453 32.089 117.324L32.8327 115.984V118.01C32.8327 118.189 32.8744 118.232 33.0539 118.232H33.3896C33.5544 118.232 33.6117 118.182 33.6117 118.01V114.765C33.6117 114.587 33.5684 114.53 33.3687 114.53ZM72.2792 97.1601C74.133 97.1593 75.7879 96.4156 77.0055 95.2026C78.2187 93.9852 78.9622 92.3299 78.9632 90.4765C78.9622 88.6218 78.2187 86.9677 77.0055 85.7492C75.7879 84.5364 74.133 83.7935 72.2792 83.7927C70.4258 83.7935 68.7706 84.5364 67.5531 85.7492C66.3391 86.9667 65.5966 88.6218 65.5946 90.4765C65.5964 92.3299 66.3391 93.9852 67.5531 95.2026C68.7706 96.4156 70.4258 97.1593 72.2792 97.1601ZM78.9949 80.9126C79.1772 79.7106 80.2125 78.7884 81.4656 78.7884C82.8472 78.7884 83.9673 79.9085 83.9673 81.29V102.794C83.9681 104.539 83.2527 106.142 82.1081 107.283C80.9662 108.429 79.364 109.144 77.6188 109.143H67.3825C66.0002 109.143 64.8799 108.023 64.8799 106.641C64.8799 105.259 66.0002 104.139 67.3825 104.139H77.6188C77.9978 104.138 78.3177 103.992 78.5694 103.745C78.8164 103.494 78.962 103.173 78.963 102.794V100.062C77.0692 101.384 74.7581 102.165 72.2792 102.164C69.0584 102.165 66.1212 100.852 64.0142 98.7413C61.9025 96.6332 60.5891 93.6958 60.5911 90.4763C60.5893 87.2557 61.9025 84.3183 64.0142 82.2112C66.1212 80.0998 69.0586 78.7866 72.2792 78.7884C74.7718 78.7866 77.0948 79.5766 78.9949 80.9126ZM47.0094 83.7925C45.1558 83.7933 43.5007 84.537 42.2833 85.7502C41.0693 86.9677 40.3268 88.6226 40.3248 90.4771C40.3266 92.3309 41.0693 93.9852 42.2833 95.2026C43.5007 96.4156 45.1556 97.1593 47.0094 97.1601C48.8631 97.1593 50.5182 96.4156 51.7356 95.2026C52.9497 93.985 53.6922 92.3309 53.6934 90.4771C53.6922 88.6226 52.9495 86.9677 51.7356 85.7502C50.5182 84.537 48.8631 83.7933 47.0094 83.7925ZM56.1949 76.0982H41.67C41.291 76.1 40.9701 76.2448 40.7195 76.4926C40.4716 76.7442 40.3268 77.064 40.325 77.4432C40.3268 77.8232 40.4716 78.1429 40.7195 78.3946C40.9701 78.6416 41.2908 78.7874 41.67 78.7884H47.0086C50.2286 78.7874 53.1666 80.1006 55.2745 82.2123C57.3861 84.3193 58.6985 87.2565 58.6977 90.4771C58.6983 93.696 57.3853 96.6332 55.2745 98.7413C53.1666 100.853 50.2296 102.166 47.0096 102.164C43.7897 102.166 40.8525 100.853 38.7446 98.7413C36.633 96.6342 35.3205 93.696 35.3215 90.4771C35.3205 87.5317 36.4207 84.8239 38.224 82.7708C37.847 82.5266 37.4951 82.2476 37.1808 81.9333C36.0351 80.7926 35.3205 79.1894 35.3215 77.4432C35.3205 75.698 36.0351 74.095 37.1808 72.9539C38.3218 71.8092 39.9246 71.0929 41.67 71.0947H56.1949C57.5774 71.0947 58.6975 72.2148 58.6975 73.5964C58.6975 74.9779 57.5774 76.0982 56.1949 76.0982ZM21.7399 97.1601C23.5933 97.1593 25.2486 96.4156 26.466 95.2026C27.68 93.9852 28.4227 92.3299 28.4235 90.4765C28.4227 88.6218 27.68 86.9667 26.466 85.7492C25.2486 84.5364 23.5933 83.7935 21.7399 83.7927C19.8863 83.7935 18.2311 84.5364 17.0138 85.7492C15.7998 86.9677 15.0571 88.6218 15.0551 90.4765C15.0571 92.3299 15.7998 93.9852 17.0138 95.2026C18.2311 96.4156 19.8861 97.1593 21.7399 97.1601ZM13.4749 82.2112C15.5827 80.0998 18.5199 78.7866 21.7399 78.7884C24.9595 78.7866 27.8969 80.0996 30.0049 82.2112C32.1163 84.3183 33.4288 87.2557 33.4278 90.4763V99.6627C33.4278 101.044 32.3079 102.164 30.9253 102.164C29.6724 102.164 28.6378 101.242 28.4556 100.04C26.5555 101.375 24.2334 102.165 21.7399 102.164C18.5199 102.166 15.5827 100.853 13.4749 98.7413C11.3632 96.6332 10.0508 93.6958 10.052 90.4763C10.0508 87.2557 11.3632 84.3183 13.4749 82.2112Z" fill="#CDCDCD"/>
</g>
<defs>
<clipPath id="clip0_2028_1511">
<rect width="138" height="138" fill="white"/>
</clipPath>
</defs>
</svg>
