<svg width="194" height="138" viewBox="0 0 194 138" fill="none" xmlns="http://www.w3.org/2000/svg">
<path d="M8.55274 93.6917C9.71508 93.5959 10.8756 93.8956 11.8434 94.5421C12.8112 95.1883 13.5285 96.1425 13.8773 97.2476H5.54185C5.47821 97.2428 5.41428 97.2518 5.35445 97.274C5.29464 97.2959 5.2403 97.3305 5.19517 97.3754C5.15006 97.4202 5.11519 97.4741 5.09296 97.5336C5.07076 97.5929 5.06171 97.6564 5.06644 97.7195V100.363C5.05161 100.425 5.05161 100.49 5.06644 100.552V100.709C5.17846 100.753 5.30305 100.753 5.41506 100.709H14.0357C13.759 101.923 13.0546 103 12.0493 103.744C11.0439 104.488 9.80397 104.852 8.55274 104.768C7.53433 104.83 6.51749 104.624 5.6049 104.171C4.69228 103.718 3.91621 103.034 3.35499 102.188C3.27826 102.115 3.17606 102.074 3.06973 102.074C2.96341 102.074 2.86121 102.115 2.7845 102.188L0.597637 103.793C0.563089 103.825 0.53559 103.864 0.516778 103.908C0.497987 103.951 0.488281 103.998 0.488281 104.045C0.488281 104.092 0.497987 104.138 0.516778 104.182C0.53559 104.225 0.563089 104.264 0.597637 104.296C1.74047 105.964 3.39091 107.223 5.30722 107.892C7.22353 108.56 9.30499 108.601 11.2467 108.01C13.1849 107.442 14.8904 106.275 16.1157 104.679C17.341 103.084 18.0224 101.142 18.0609 99.1356C18.0939 97.914 17.8716 96.699 17.4079 95.5669C16.9442 94.435 16.2493 93.4108 15.3669 92.5588C14.4808 91.6891 13.4247 91.0086 12.2637 90.5594C11.1027 90.1103 9.86134 89.9018 8.61613 89.947C7.02663 89.9493 5.46415 90.3553 4.07728 91.1266C2.69044 91.8976 1.52531 93.0082 0.692715 94.3526C0.633604 94.4292 0.601572 94.5233 0.601572 94.62C0.601572 94.7166 0.633604 94.8107 0.692715 94.8875L2.7845 96.4608C2.82019 96.5011 2.86408 96.5333 2.91325 96.5553C2.96243 96.5774 3.01578 96.5888 3.06973 96.5888C3.12369 96.5888 3.17703 96.5774 3.22622 96.5553C3.27539 96.5333 3.31928 96.5011 3.35499 96.4608C3.90478 95.5911 4.67315 94.8784 5.58451 94.3929C6.49586 93.9072 7.51881 93.6656 8.55274 93.6917ZM24.3996 90.5449C24.2876 90.5011 24.163 90.5011 24.0509 90.5449H21.2302C21.1667 90.5403 21.1026 90.5492 21.0429 90.5712C20.9829 90.5934 20.9286 90.6279 20.8835 90.6727C20.8384 90.7176 20.8036 90.7715 20.7814 90.8308C20.7591 90.8903 20.7501 90.9536 20.7549 91.0169V107.884C20.7269 107.937 20.7125 107.997 20.7125 108.057C20.7125 108.117 20.7269 108.176 20.7549 108.23C20.8078 108.26 20.8679 108.276 20.9292 108.276C20.9903 108.276 21.0504 108.26 21.1034 108.23H24.0509C24.1061 108.253 24.1654 108.265 24.2253 108.265C24.2852 108.265 24.3445 108.253 24.3996 108.23C24.4302 108.177 24.4464 108.118 24.4464 108.057C24.4464 107.996 24.4302 107.936 24.3996 107.884V100.835H32.9253V107.821C32.9029 107.865 32.8913 107.913 32.8913 107.962C32.8913 108.012 32.9029 108.06 32.9253 108.104C32.9782 108.135 33.0383 108.15 33.0996 108.15C33.1607 108.15 33.2208 108.135 33.2737 108.104H36.2213C36.2742 108.135 36.3345 108.15 36.3957 108.15C36.4568 108.15 36.5169 108.135 36.57 108.104C36.6141 107.993 36.6141 107.869 36.57 107.758V90.7967C36.5748 90.7334 36.5656 90.6701 36.5434 90.6106C36.5213 90.5512 36.4863 90.4973 36.4412 90.4524C36.3961 90.4077 36.3417 90.3731 36.282 90.3509C36.2221 90.329 36.1582 90.32 36.0945 90.3246H33.1471C33.0974 90.302 33.0433 90.2902 32.9886 90.2902C32.9338 90.2902 32.8799 90.302 32.8302 90.3246C32.7889 90.4364 32.7889 90.559 32.8302 90.6707V96.9644H24.6215V90.6707C24.6171 90.5884 24.5835 90.5103 24.5264 90.4504L24.3996 90.5449ZM57.1709 105.838C57.2332 105.769 57.2678 105.68 57.2678 105.587C57.2678 105.494 57.2332 105.404 57.1709 105.335L55.5546 103.132C55.5248 103.099 55.4883 103.072 55.4471 103.054C55.4062 103.035 55.3616 103.026 55.3167 103.026C55.2718 103.026 55.2274 103.035 55.1863 103.054C55.1454 103.072 55.1088 103.099 55.0791 103.132C53.4393 104.485 51.3443 105.171 49.2157 105.052C47.9817 105.134 46.7557 104.799 45.7375 104.102C44.719 103.405 43.9679 102.387 43.6061 101.212H57.9631C58.0231 101.213 58.0824 101.201 58.1371 101.177C58.1916 101.152 58.2403 101.116 58.2795 101.071C58.3186 101.027 58.3476 100.974 58.3641 100.917C58.3807 100.859 58.3845 100.799 58.3751 100.741V99.419C58.4288 98.1984 58.2256 96.9804 57.778 95.8425C57.3305 94.7046 56.6487 93.672 55.7764 92.8107C54.9095 91.9394 53.8713 91.2548 52.726 90.8001C51.5809 90.3452 50.3535 90.1299 49.1206 90.1672C47.8633 90.1161 46.6084 90.3184 45.4317 90.7617C44.2551 91.2053 43.1813 91.8809 42.2748 92.7476C40.9958 94.0921 40.1426 95.7798 39.8213 97.6015C39.4998 99.4232 39.7245 101.298 40.4672 102.994C41.2098 104.69 42.4378 106.133 43.9989 107.142C45.5597 108.151 47.3848 108.682 49.2474 108.671C52.1606 108.711 54.9928 107.718 57.2342 105.87L57.1709 105.838ZM54.4135 97.4992H43.5743C43.9328 96.3332 44.6731 95.3191 45.6777 94.618C46.6824 93.9168 47.894 93.5687 49.1206 93.6288C50.3248 93.5316 51.5236 93.8697 52.4963 94.581C53.4689 95.2923 54.1499 96.3288 54.4135 97.4992ZM61.1959 113.391C61.2442 113.418 61.2987 113.433 61.3545 113.433C61.41 113.433 61.4647 113.418 61.5128 113.391H64.6823C64.7362 113.418 64.7959 113.433 64.8566 113.433C64.9171 113.433 64.977 113.418 65.031 113.391C65.0457 113.356 65.0533 113.318 65.0533 113.281C65.0533 113.243 65.0457 113.205 65.031 113.17V106.94C66.5293 108.122 68.4131 108.715 70.3238 108.608C71.5682 108.67 72.8121 108.473 73.9748 108.028C75.1376 107.584 76.1936 106.902 77.0745 106.027C77.9526 105.163 78.6378 104.126 79.0855 102.982C79.5332 101.838 79.7335 100.613 79.6734 99.3874C79.7375 98.1612 79.539 96.9353 79.0911 95.7908C78.6432 94.6463 77.9558 93.6091 77.0745 92.7476C76.1918 91.8733 75.1362 91.1897 73.9744 90.7402C72.8125 90.2908 71.5696 90.0849 70.3238 90.1359C68.3031 90.0698 66.3322 90.7669 64.8091 92.0867H64.5872L64.2703 90.828C64.2543 90.7084 64.193 90.5994 64.0988 90.5233C64.0043 90.4472 63.8843 90.4099 63.7631 90.419H61.5128C61.4631 90.3965 61.4092 90.3847 61.3545 90.3847C61.2997 90.3847 61.2456 90.3965 61.1959 90.419C61.1681 90.4726 61.1536 90.5319 61.1536 90.5922C61.1536 90.6523 61.1681 90.7116 61.1959 90.7651V113.013C61.1626 113.071 61.145 113.136 61.145 113.202C61.145 113.268 61.1626 113.333 61.1959 113.391ZM70.2286 104.926C69.2478 104.962 68.2697 104.799 67.3543 104.447C66.4389 104.096 65.6051 103.563 64.9041 102.88V95.8C65.5759 95.0751 66.4031 94.5093 67.3247 94.1445C68.2463 93.7794 69.2389 93.6248 70.2286 93.6917C70.9757 93.6618 71.7205 93.7894 72.4143 94.066C73.1083 94.3426 73.7351 94.7619 74.2537 95.2965C74.7712 95.8265 75.1688 96.4598 75.4202 97.1544C75.6716 97.8489 75.7709 98.5888 75.7118 99.3245C75.8038 100.411 75.5468 101.499 74.9773 102.432C74.4079 103.365 73.5554 104.095 72.5423 104.517C71.8114 104.822 71.021 104.962 70.2286 104.926ZM82.5575 108.073C82.6104 108.103 82.6705 108.119 82.7318 108.119C82.793 108.119 82.8531 108.103 82.9062 108.073H85.822C85.8749 108.103 85.935 108.119 85.9964 108.119C86.0575 108.119 86.1176 108.103 86.1705 108.073C86.2148 107.961 86.2148 107.838 86.1705 107.727V93.9434H95.9005C95.9556 93.9667 96.0149 93.9789 96.0749 93.9789C96.1348 93.9789 96.1941 93.9667 96.2492 93.9434C96.277 93.8898 96.2915 93.8305 96.2915 93.7704C96.2915 93.7101 96.277 93.6508 96.2492 93.5973V90.8909C96.2416 90.7683 96.1891 90.6525 96.1016 90.5656C96.0139 90.4786 95.8973 90.4264 95.7737 90.419H82.9062C82.8035 90.3831 82.6917 90.3831 82.5893 90.419C82.4928 90.5093 82.4359 90.6337 82.4307 90.7651V107.789C82.4229 107.858 82.4301 107.927 82.4521 107.992C82.474 108.057 82.51 108.117 82.5575 108.167V108.073ZM116.185 99.3559C116.127 97.5594 115.555 95.8162 114.534 94.3316C113.513 92.8468 112.087 91.6824 110.422 90.9752C108.758 90.2679 106.925 90.047 105.138 90.3388C103.352 90.6305 101.686 91.4225 100.338 92.6217C99.0536 93.8978 98.1747 95.5196 97.8099 97.2866C97.445 99.0537 97.6102 100.888 98.2849 102.563C98.9595 104.238 100.114 105.679 101.606 106.709C103.097 107.738 104.86 108.311 106.676 108.356C109.108 108.36 111.448 107.439 113.216 105.782C114.985 104.126 116.047 101.86 116.185 99.4503V99.3559ZM106.962 104.8C105.855 104.788 104.777 104.45 103.862 103.831C102.948 103.211 102.239 102.337 101.824 101.318C101.409 100.299 101.307 99.1817 101.531 98.1053C101.754 97.0291 102.294 96.0426 103.081 95.27C103.868 94.4971 104.867 93.9729 105.954 93.763C107.04 93.5531 108.165 93.6672 109.186 94.0905C110.207 94.5139 111.08 95.2276 111.694 96.1423C112.307 97.0569 112.635 98.1311 112.635 99.23C112.643 99.9735 112.502 100.711 112.221 101.4C111.939 102.089 111.522 102.716 110.994 103.243C110.466 103.77 109.837 104.188 109.145 104.471C108.453 104.755 107.71 104.899 106.962 104.894V104.8ZM133.362 90.2617H119.766C119.716 90.2391 119.662 90.2273 119.607 90.2273C119.553 90.2273 119.499 90.2391 119.449 90.2617C119.421 90.3152 119.407 90.3745 119.407 90.4348C119.407 90.4949 119.421 90.5542 119.449 90.6078V107.632C119.434 107.694 119.434 107.759 119.449 107.821C119.449 107.821 119.449 107.821 119.449 107.978C119.496 108.009 119.551 108.026 119.607 108.026C119.664 108.026 119.719 108.009 119.766 107.978H128.26C129.133 108.104 130.022 108.041 130.869 107.795C131.715 107.549 132.498 107.125 133.165 106.552C133.832 105.979 134.366 105.27 134.733 104.474C135.099 103.677 135.289 102.812 135.289 101.936C135.289 101.061 135.099 100.195 134.733 99.399C134.366 98.6026 133.832 97.8938 133.165 97.3207C132.498 96.7478 131.715 96.3238 130.869 96.0776C130.022 95.8315 129.133 95.769 128.26 95.8944H123.189V93.5973H133.077C133.131 93.6248 133.191 93.6392 133.252 93.6392C133.312 93.6392 133.372 93.6248 133.426 93.5973C133.47 93.486 133.47 93.3624 133.426 93.2512V90.6393C133.47 90.5281 133.47 90.4043 133.426 90.2932L133.362 90.2617ZM128.26 104.737H123.189V99.7335H128.26C130.288 99.7335 131.429 100.678 131.429 102.22C131.429 103.761 130.256 104.737 128.26 104.737ZM143.378 108.576C145.726 108.643 148.006 107.783 149.717 106.184L150.572 108.261C150.585 108.322 150.612 108.379 150.65 108.428C150.689 108.478 150.738 108.517 150.794 108.545C150.908 108.577 151.029 108.577 151.143 108.545L153.52 107.789C153.595 107.708 153.637 107.601 153.637 107.49C153.637 107.38 153.595 107.273 153.52 107.192L153.108 105.807C152.771 104.588 152.622 103.326 152.664 102.062V96.3036C152.664 91.8665 149.082 90.0099 145.121 90.0099C142.291 89.918 139.516 90.7957 137.261 92.4959C137.213 92.5401 137.174 92.5936 137.148 92.6533C137.122 92.7128 137.109 92.7771 137.109 92.842C137.109 92.9071 137.122 92.9714 137.148 93.0309C137.174 93.0904 137.213 93.144 137.261 93.1883L138.56 95.0134C138.67 95.1084 138.811 95.1609 138.956 95.1609C139.102 95.1609 139.243 95.1084 139.353 95.0134C141.268 93.8491 143.528 93.3714 145.755 93.6602C147.783 93.6602 149.4 94.321 149.4 95.8629V96.2721L143.504 97.0273C139.384 97.5308 136.944 99.5761 136.944 102.975C136.961 103.774 137.146 104.56 137.485 105.285C137.825 106.009 138.314 106.655 138.919 107.182C139.524 107.709 140.233 108.105 141 108.345C141.768 108.585 142.578 108.664 143.378 108.576ZM143.378 100.394L149.273 99.4503V102.44C148.639 103.284 147.802 103.957 146.839 104.397C145.875 104.836 144.816 105.029 143.758 104.957C141.635 104.957 140.589 104.108 140.589 102.755C140.589 101.401 141.571 100.646 143.409 100.394H143.378ZM160.619 90.4504C160.507 90.4067 160.383 90.4067 160.27 90.4504H157.355C157.243 90.4067 157.118 90.4067 157.006 90.4504C156.978 90.5039 156.964 90.5634 156.964 90.6235C156.964 90.6838 156.978 90.7432 157.006 90.7967V107.884C156.978 107.937 156.964 107.997 156.964 108.057C156.964 108.117 156.978 108.176 157.006 108.23C157.059 108.26 157.119 108.276 157.18 108.276C157.241 108.276 157.302 108.26 157.355 108.23H160.302C160.355 108.26 160.415 108.276 160.476 108.276C160.538 108.276 160.598 108.26 160.651 108.23V108.073C160.666 108.01 160.666 107.946 160.651 107.884V100.835H168.954V107.821C168.931 107.875 168.919 107.934 168.919 107.994C168.919 108.053 168.931 108.112 168.954 108.167C169.007 108.197 169.068 108.213 169.129 108.213C169.19 108.213 169.25 108.197 169.303 108.167H172.251C172.312 108.188 172.379 108.192 172.443 108.177C172.507 108.163 172.565 108.131 172.612 108.085C172.658 108.039 172.69 107.981 172.705 107.917C172.719 107.854 172.716 107.788 172.694 107.727V90.7967C172.722 90.7432 172.737 90.6838 172.737 90.6235C172.737 90.5634 172.722 90.5039 172.694 90.4504C172.645 90.4278 172.591 90.4161 172.536 90.4161C172.481 90.4161 172.427 90.4278 172.377 90.4504H169.43C169.318 90.4067 169.193 90.4067 169.081 90.4504C169.054 90.5039 169.039 90.5634 169.039 90.6235C169.039 90.6838 169.054 90.7432 169.081 90.7967V97.0902H160.778V90.7967C160.781 90.7334 160.771 90.6703 160.75 90.6108C160.728 90.5512 160.694 90.4967 160.651 90.4504H160.619ZM179.92 90.4504H176.751C176.688 90.4458 176.624 90.4548 176.564 90.4768C176.504 90.4989 176.45 90.5335 176.405 90.5782C176.359 90.6231 176.324 90.6771 176.302 90.7364C176.28 90.7959 176.271 90.8594 176.276 90.9225V107.915C176.271 107.978 176.28 108.042 176.302 108.101C176.324 108.161 176.359 108.215 176.405 108.26C176.45 108.304 176.504 108.339 176.564 108.361C176.624 108.383 176.688 108.392 176.751 108.387H179.699C179.762 108.392 179.826 108.383 179.886 108.361C179.946 108.339 180 108.304 180.045 108.26C180.09 108.215 180.125 108.161 180.148 108.101C180.17 108.042 180.179 107.978 180.174 107.915V101.936L182.139 100.426L188.288 107.947C188.391 108.059 188.519 108.146 188.662 108.201C188.805 108.256 188.959 108.276 189.112 108.261H193.295C193.58 108.261 193.707 108.01 193.485 107.789L184.991 98.1916L192.978 90.828C193.232 90.6078 192.978 90.3246 192.82 90.3246H188.668C188.349 90.3224 188.038 90.4216 187.78 90.6078L180.269 97.9084V90.7967C180.313 90.6854 180.313 90.5616 180.269 90.4504C180.233 90.4041 180.183 90.3699 180.126 90.3529C180.069 90.336 180.008 90.3372 179.952 90.3561L179.92 90.4504Z" fill="#CDCDCD"/>
<path d="M113.588 28.6497C109.038 24.1882 102.899 21.6891 96.5048 21.6953C91.7819 21.7387 87.1774 23.1691 83.2716 25.806C79.3659 28.4428 76.3334 32.1684 74.5563 36.5133C72.7792 40.8582 72.3368 45.6281 73.285 50.2222C74.2334 54.8163 76.5295 59.029 79.8847 62.3297C83.2399 65.6303 87.5039 67.8714 92.1394 68.7702C96.775 69.6693 101.575 69.1862 105.934 67.3817C110.294 65.5772 114.018 62.5319 116.638 58.6298C119.257 54.7278 120.655 50.1431 120.655 45.4535C120.659 42.3272 120.036 39.2315 118.822 36.3466C117.609 33.4617 115.829 30.8452 113.588 28.6497ZM109.911 51.6842C108.643 54.2925 106.629 56.4716 104.121 57.9492C101.612 59.4268 98.7207 60.1373 95.8077 59.9918C93.0418 59.8711 90.366 58.9811 88.0852 57.4232C85.8044 55.8651 84.0105 53.7022 82.9082 51.1808C81.8106 48.6667 81.4544 45.8949 81.8807 43.1875C82.3071 40.4802 83.4987 37.9488 85.317 35.8873C85.406 35.792 85.5139 35.7159 85.6339 35.664C85.7537 35.6119 85.8833 35.5851 86.0141 35.5851C86.1451 35.5851 86.2745 35.6119 86.3946 35.664C86.5146 35.7159 86.6224 35.792 86.7115 35.8873L89.2786 38.4047C89.4368 38.583 89.5241 38.8123 89.5241 39.0499C89.5241 39.2874 89.4368 39.5168 89.2786 39.695C88.0313 41.1897 87.3022 43.0437 87.1996 44.9822C87.0967 46.9207 87.6257 48.8405 88.7081 50.457C89.8146 52.0876 91.417 53.3245 93.2814 53.9867C95.146 54.6492 97.1748 54.7025 99.072 54.1387C100.545 53.7299 101.889 52.9565 102.979 51.8909C104.068 50.8253 104.867 49.5023 105.301 48.0463C105.735 46.5902 105.79 45.0485 105.46 43.5658C105.13 42.0832 104.426 40.7078 103.414 39.5691C103.249 39.3942 103.157 39.1636 103.157 38.9239C103.157 38.6845 103.249 38.4538 103.414 38.2789L106.013 35.6985C106.104 35.6073 106.213 35.5348 106.332 35.4853C106.452 35.4357 106.581 35.4104 106.71 35.4104C106.84 35.4104 106.968 35.4357 107.088 35.4853C107.208 35.5348 107.316 35.6073 107.407 35.6985C109.38 37.8128 110.672 40.4638 111.119 43.3117C111.565 46.1597 111.144 49.0749 109.911 51.6842Z" fill="#CDCDCD"/>
</svg>
