<svg width="122" height="138" viewBox="0 0 122 138" fill="none" xmlns="http://www.w3.org/2000/svg">
<path fill-rule="evenodd" clip-rule="evenodd" d="M60.9515 8C48.8963 8 37.112 11.5569 27.0886 18.2211C17.0652 24.8853 9.25293 34.3573 4.63964 45.4395C0.0263549 56.5217 -1.18064 68.7161 1.17124 80.4808C3.52312 92.2456 9.32802 103.052 17.8523 111.534C26.3765 120.016 37.237 125.792 49.0605 128.132C60.8838 130.473 73.139 129.271 84.2765 124.681C95.4139 120.091 104.933 112.317 111.631 102.343C118.328 92.3698 121.903 80.644 121.903 68.6487C121.886 52.569 115.458 37.1527 104.032 25.7826C92.6047 14.4124 77.1115 8.01717 60.9515 8ZM91.7148 25.1475C87.0564 37.0331 76.5124 39.4858 61.1252 39.4858C59.4855 39.4858 57.8675 39.4858 56.2713 39.4858C54.6749 39.4858 53.3175 39.4858 51.9276 39.4858C50.5377 39.4858 49.4084 39.4858 48.1596 39.5507C49.0749 37.1156 50.4734 34.8887 52.2719 33.0027C54.0702 31.1166 56.2318 29.61 58.6276 28.5728C65.4144 25.4285 74.2536 25.4285 82.1264 25.4285C85.471 25.4285 88.7287 25.4285 91.7148 25.1475ZM60.9515 121.82C53.0489 121.818 45.2454 120.072 38.1029 116.708C30.9602 113.343 24.6567 108.444 19.6458 102.364C14.6351 96.2838 11.0419 89.1732 9.12533 81.5448C7.2086 73.9163 7.01628 65.9598 8.56197 58.2485C10.1077 50.5373 13.353 43.263 18.0641 36.9498C22.7753 30.6367 28.835 25.4419 35.8066 21.7396C42.7783 18.0374 50.4884 15.9197 58.3815 15.5393C66.2747 15.1589 74.1545 16.5252 81.4532 19.5397C66.1854 19.5938 47.1498 19.9395 41.275 41.4741C41.0904 42.1441 40.0045 46.2715 39.6895 47.7519L34.4773 68.5515L34.6619 68.638L45.5208 73.2085C54.3817 57.0765 73.852 64.4349 71.9516 78.233C70.0838 91.8041 53.5673 98.3411 45.4231 85.2671C45.0211 84.6458 44.6966 83.9782 44.4566 83.2788L32.1752 86.3908C32.7941 88.112 33.5194 89.7937 34.3469 91.4258C40.0806 103.128 52.8724 107.417 64.4155 104.554C70.3133 103.032 75.6003 99.7474 79.565 95.1437C83.5297 90.54 85.9812 84.8379 86.5895 78.8055C88.9893 58.049 66.5655 44.4023 49.6039 58.1679L52.8614 45.2774C55.4242 45.2774 58.1824 45.3638 61.0709 45.3638C74.221 45.3638 89.554 43.8729 96.4385 28.951C104.527 36.1147 110.236 45.5545 112.811 56.0199C115.385 66.4852 114.703 77.4819 110.855 87.5528C107.006 97.6239 100.174 106.294 91.2619 112.413C82.3498 118.533 71.7795 121.814 60.9515 121.82Z" fill="#CDCDCD"/>
</svg>
