<svg width="258" height="50" viewBox="0 0 258 50" fill="none" xmlns="http://www.w3.org/2000/svg">
<rect x="142.801" width="114.4" height="22" fill="#FF5129"/>
<path d="M20.7032 13.9662L26.9173 14.2738C26.4866 16.8989 25.1843 18.8882 23.0104 20.2418C20.857 21.5953 17.9038 22.2721 14.1508 22.2721C9.67996 22.2721 6.21404 21.298 3.75303 19.3497C1.29203 17.3809 0.0615252 14.643 0.0615252 11.136C0.0615252 7.62912 1.26127 4.9015 3.66075 2.95321C6.06023 0.984402 9.4236 0 13.7509 0C17.2988 0 20.1802 0.68703 22.3952 2.06109C24.6101 3.41464 25.9636 5.2604 26.4558 7.59835L20.3033 7.99827C19.9547 7.15742 19.1856 6.48065 17.9961 5.96794C16.8066 5.45523 15.3915 5.19887 13.7509 5.19887C11.4129 5.19887 9.60818 5.74234 8.33666 6.82929C7.08565 7.89572 6.46014 9.33131 6.46014 11.136C6.46014 12.9613 7.11641 14.4071 8.42895 15.4736C9.76199 16.54 11.6693 17.0732 14.1508 17.0732C15.935 17.0732 17.3809 16.7861 18.4883 16.2119C19.6163 15.6376 20.3546 14.8891 20.7032 13.9662Z" fill="white"/>
<path d="M47.0288 0.36915H53.9503L46.4443 14.766C45.5009 16.5708 44.6088 17.9756 43.7679 18.9805C42.9476 19.9649 41.9427 20.734 40.7532 21.2877C39.5637 21.8209 38.1281 22.0875 36.4464 22.0875C35.2364 22.0875 33.8419 21.9952 32.2627 21.8107V16.8271C33.7188 16.9502 34.8775 17.0117 35.7389 17.0117C36.4257 17.0117 37.0236 16.9409 37.5326 16.7992C38.4068 16.556 39.0189 16.1038 39.3689 15.4428H36.5695L26.3563 0.36915H33.4932L41.3377 12.9203L47.0288 0.36915Z" fill="white"/>
<path d="M81.8181 0.36915V21.9029H75.4195V5.59879H63.2375V21.9029H56.8389V0.36915H81.8181Z" fill="white"/>
<path d="M87.0006 21.9029V0.36915H108.934V5.35269H93.3992V8.61352H105.52V13.2894H93.3992V16.9194H109.519V21.9029H87.0006Z" fill="white"/>
<path d="M128.447 0.36915C131.031 0.36915 133.164 0.974147 134.846 2.18414C136.548 3.37363 137.399 5.18862 137.399 7.62912C137.399 10.0696 136.589 11.8436 134.969 12.951C133.349 14.038 131.175 14.5815 128.447 14.5815H119.926V21.9029H113.527V0.36915H128.447ZM128.14 9.65945C130.047 9.65945 131 8.98267 131 7.62912C131 6.27556 130.047 5.59879 128.14 5.59879H119.926V9.65945H128.14Z" fill="white"/>
<path d="M22.3029 29.5736C26.1584 29.5736 29.0706 30.3529 31.0394 31.9116C33.0287 33.4702 34.0234 35.6441 34.0234 38.4332C34.0234 41.2224 33.0287 43.3963 31.0394 44.9549C29.0706 46.493 26.1584 47.2621 22.3029 47.2621H20.088V49.6308H13.9354V47.2621H11.7205C7.86496 47.2621 4.94252 46.493 2.95321 44.9549C0.984402 43.3963 0 41.2224 0 38.4332C0 35.6441 0.984402 33.4702 2.95321 31.9116C4.94252 30.3529 7.86496 29.5736 11.7205 29.5736H13.9354V27.7279H20.088V29.5736H22.3029ZM12.0897 42.3093H13.9354V34.5264H12.0897C8.29564 34.5264 6.39861 35.8287 6.39861 38.4332C6.39861 39.7253 6.8498 40.6994 7.75217 41.3557C8.67505 41.9914 10.1209 42.3093 12.0897 42.3093ZM21.9337 42.3093C23.9025 42.3093 25.3381 41.9914 26.2405 41.3557C27.1634 40.6994 27.6248 39.7253 27.6248 38.4332C27.6248 35.8287 25.7278 34.5264 21.9337 34.5264H20.088V42.3093H21.9337Z" fill="white"/>
<path d="M40.466 47.0467C37.9435 45.0779 36.6822 42.3503 36.6822 38.8639C36.6822 35.3775 37.9435 32.6499 40.466 30.6811C42.9885 28.7123 46.4955 27.7279 50.9868 27.7279C55.4781 27.7279 58.9851 28.7123 61.5076 30.6811C64.0301 32.6499 65.2914 35.3775 65.2914 38.8639C65.2914 42.3503 64.0301 45.0779 61.5076 47.0467C58.9851 49.0156 55.4781 50 50.9868 50C46.4955 50 42.9885 49.0156 40.466 47.0467ZM45.1419 34.5571C43.7678 35.6236 43.0808 37.0592 43.0808 38.8639C43.0808 40.6686 43.7678 42.1145 45.1419 43.2014C46.5365 44.2679 48.4848 44.8011 50.9868 44.8011C53.4888 44.8011 55.4269 44.2679 56.8009 43.2014C58.1955 42.1145 58.8928 40.6686 58.8928 38.8639C58.8928 37.0592 58.1955 35.6236 56.8009 34.5571C55.4269 33.4702 53.4888 32.9267 50.9868 32.9267C48.4848 32.9267 46.5365 33.4702 45.1419 34.5571Z" fill="white"/>
<path d="M84.1359 28.097C86.7199 28.097 88.8528 28.702 90.5345 29.912C92.2367 31.1015 93.0878 32.9165 93.0878 35.357C93.0878 37.7975 92.2777 39.5714 90.6575 40.6789C89.0374 41.7658 86.8635 42.3093 84.1359 42.3093H75.6146V49.6308H69.216V28.097H84.1359ZM83.8282 37.3873C85.7355 37.3873 86.6892 36.7105 86.6892 35.357C86.6892 34.0034 85.7355 33.3266 83.8282 33.3266H75.6146V37.3873H83.8282Z" fill="white"/>
<path d="M119.251 28.097H130.448L130.418 49.6308H124.296V31.5732L117.928 49.6308H109.284L102.916 31.5732V49.6308H96.7942V28.097H107.992L113.683 45.8778L119.251 28.097Z" fill="white"/>
<path d="M155.573 49.6308L153.819 45.4779H141.391L139.638 49.6308H133.331L142.776 28.097H152.62L162.094 49.6308H155.573ZM143.452 40.6789H151.789L147.605 30.8349L143.452 40.6789Z" fill="white"/>
<path d="M159.898 33.3266V28.097H184.447V33.3266H175.372V49.6308H168.973V33.3266H159.898Z" fill="white"/>
<path d="M185.557 49.6308V43.7244H192.202V49.6308H185.557Z" fill="white"/>
<path d="M211.873 28.097C214.457 28.097 216.59 28.702 218.271 29.912C219.973 31.1015 220.825 32.9165 220.825 35.357C220.825 37.7975 220.014 39.5714 218.394 40.6789C216.774 41.7658 214.6 42.3093 211.873 42.3093H203.351V49.6308H196.953V28.097H211.873ZM211.565 37.3873C213.472 37.3873 214.426 36.7105 214.426 35.357C214.426 34.0034 213.472 33.3266 211.565 33.3266H203.351V37.3873H211.565Z" fill="white"/>
<path d="M245.542 29.5736C249.397 29.5736 252.31 30.3529 254.278 31.9116C256.268 33.4702 257.262 35.6441 257.262 38.4332C257.262 41.2224 256.268 43.3963 254.278 44.9549C252.31 46.493 249.397 47.2621 245.542 47.2621H243.327V49.6308H237.174V47.2621H234.959C231.104 47.2621 228.181 46.493 226.192 44.9549C224.223 43.3963 223.239 41.2224 223.239 38.4332C223.239 35.6441 224.223 33.4702 226.192 31.9116C228.181 30.3529 231.104 29.5736 234.959 29.5736H237.174V27.7279H243.327V29.5736H245.542ZM235.329 42.3093H237.174V34.5264H235.329C231.535 34.5264 229.638 35.8287 229.638 38.4332C229.638 39.7253 230.089 40.6994 230.991 41.3557C231.914 41.9914 233.36 42.3093 235.329 42.3093ZM245.173 42.3093C247.141 42.3093 248.577 41.9914 249.479 41.3557C250.402 40.6994 250.864 39.7253 250.864 38.4332C250.864 35.8287 248.967 34.5264 245.173 34.5264H243.327V42.3093H245.173Z" fill="white"/>
<path d="M37.5326 16.7992C38.4068 16.556 39.0189 16.1038 39.3689 15.4428H36.5695L37.5326 16.7992Z" fill="white"/>
</svg>
