<svg xmlns="http://www.w3.org/2000/svg" width="41" height="35" viewBox="0 0 41 35">
    <path
        d="M15.8504 22.4605C21.45 17.4384 26.9954 12.473 32.5252 7.48445C32.8951 7.15137 33.7745 6.83893 33.3425 6.28636C32.9106 5.7338 32.2381 6.34575 31.7441 6.6556C26.2712 10.088 20.8026 13.5248 15.3383 16.9659C14.539 17.4694 13.6597 17.8799 12.9587 18.4945C11.4069 19.8526 9.85499 19.881 8.00051 19.1297C5.9805 18.3111 3.83634 17.7973 1.75426 17.126C1.02229 16.8884 0.029089 16.798 0.000638105 15.8065C-0.0278128 14.815 0.900722 14.4767 1.66631 14.1772C5.35199 12.7261 9.05062 11.3085 12.7466 9.88321L37.5765 0.329495C38.4093 0.00931687 39.2862 -0.243722 40.0466 0.399217C40.807 1.04216 40.7475 1.94846 40.5639 2.82637C38.5413 12.5316 36.5057 22.2342 34.4573 31.9342C33.9995 34.1031 32.5174 34.6609 30.6862 33.3311C25.7668 29.7549 20.8733 26.1426 15.8504 22.4605Z" />
</svg>