<svg width="52" height="34" viewBox="0 0 52 34" xmlns="http://www.w3.org/2000/svg">
    <path
        d="M0.00258897 4.11598C0.136778 3.89265 0.326162 3.70746 0.552603 3.57815C0.779044 3.44885 1.03495 3.37976 1.29581 3.37751C1.55446 3.36201 1.8312 3.33877 2.0976 3.33619L8.61027 3.30262C9.72761 3.30262 10.5087 3.76482 10.9381 4.82605C12.1173 7.58296 13.4621 10.2663 14.9652 12.8615C15.5455 13.977 16.3359 14.9703 17.293 15.787C17.5235 15.9825 17.786 16.1371 18.0689 16.244C18.6948 16.4635 19.1578 16.2724 19.4811 15.6992C19.9622 14.8394 19.9984 13.8917 20.1096 12.9441C20.3846 10.7748 20.3104 8.57548 19.8898 6.42953C19.6311 5.13849 18.8397 4.44133 17.5852 4.1857C16.9464 4.05401 16.905 3.89134 17.355 3.41107C17.8582 2.84272 18.5442 2.4674 19.2949 2.34983C22.1686 1.89675 25.0947 1.88369 27.9724 2.3111C29.4001 2.53575 29.9148 3.02893 30.0752 4.70986C30.1993 6.0009 30.0752 7.31002 30.0442 8.60881C29.9924 10.344 29.9381 12.0766 29.9898 13.8091C29.991 14.3282 30.0902 14.8424 30.2821 15.3248C30.7089 16.3267 31.4641 16.4867 32.2918 15.8025C33.6419 14.6844 34.5446 13.2204 35.4705 11.777C36.8633 9.58125 38.0454 7.25913 39.001 4.84154C39.5183 3.5505 39.7511 3.41623 41.1193 3.40591C43.8092 3.38525 46.4982 3.35513 49.1864 3.31554C49.6033 3.29894 50.0199 3.35486 50.4176 3.48079C51.1754 3.739 51.4237 4.14697 51.2866 4.92934C51.0745 6.13776 50.459 7.17317 49.8408 8.20084C48.245 10.8165 46.2663 13.1404 44.4636 15.6114C44.0425 16.15 43.6563 16.7149 43.3074 17.3027C42.7462 18.3355 42.847 19.185 43.6282 20.0526C44.7584 21.3075 46.0465 22.3997 47.2311 23.6004C48.5243 24.9069 49.758 26.2599 50.7228 27.8376C50.9242 28.1627 51.0759 28.516 51.1728 28.8859C51.5091 30.1769 50.8961 30.8509 49.6416 31.0161C48.514 31.1659 47.3733 31.1039 46.2379 31.1271C44.7688 31.1581 43.2997 31.2175 41.8409 31.2175C40.5917 31.2175 39.5131 30.7011 38.5225 29.9807C37.431 29.1673 36.5723 28.1164 35.6774 27.1094C35.0205 26.3787 34.4075 25.6015 33.6083 25.0076C33.3992 24.8417 33.1769 24.6931 32.9436 24.5635C32.3228 24.2459 31.8676 24.3053 31.3451 24.7856C30.4347 25.6067 30.2174 26.7195 30.0804 27.8531C30.0183 28.3488 30.0235 28.8523 29.9924 29.3507C29.9252 30.368 29.4389 30.949 28.4406 31.0316C24.0436 31.3905 19.8561 30.8664 16.067 28.2507C13.6032 26.5193 11.4414 24.3951 9.66813 21.9633C5.78847 16.7992 2.80371 11.1392 0.20175 5.25726C0.134503 5.11008 0.147427 4.92676 0 4.81573L0.00258897 4.11598Z" />
</svg>