<svg width="1346" height="291" viewBox="0 0 1346 291" fill="none" xmlns="http://www.w3.org/2000/svg">
<path fill-rule="evenodd" clip-rule="evenodd" d="M416.782 0C444.903 7.04016e-05 467.925 22.8719 467.925 50.8232V190.002C467.925 217.953 444.903 240.825 416.767 240.825H405.022V279.769C405.022 285.977 399.965 291 393.716 291H74.595C68.3458 291 63.2894 285.977 63.2894 279.769V240.825H51.5443C23.4086 240.825 0.386047 217.953 0.386047 190.002V50.8232C0.386139 22.8719 23.4087 0 51.5443 0H416.782ZM141.124 232.573V246.249C141.124 253.331 140.013 259.774 137.79 265.575H135.078V280.945H142.651V272.809H158.643V280.945H166.215V265.575H162.655V232.573H141.124ZM78.9564 232.573V272.809H86.9808V251.899L91.2757 265.632H95.4007L99.8089 251.843V272.809H107.832V232.573H100.712L93.3665 252.295L86.0198 232.573H78.9564ZM114.054 232.573V272.809H132.589V265.575H122.078V256.138H131.12V248.904H122.078V239.807H132.589V232.573H114.054ZM170.674 232.573V272.809H177.964L185.705 252.013V272.809H193.73V232.573H186.61L178.699 253.369V232.573H170.674ZM207.494 232.573L197.154 272.809H205.517L206.817 266.535H216.084L217.384 272.809H225.747L215.406 232.573H207.494ZM229.17 232.573V272.809H237.195V239.807H247.423V232.573H229.17ZM251.686 232.573V272.809H259.71V258.229H263.044C267.188 258.229 270.108 257.155 271.803 255.008C273.498 252.823 274.346 249.621 274.346 245.401C274.346 241.182 273.498 237.998 271.803 235.851C270.108 233.666 267.188 232.573 263.044 232.573H251.686ZM276.341 232.573L285.44 259.642L284.931 261.562C284.517 263.069 283.895 264.125 283.066 264.728C282.275 265.292 280.975 265.575 279.167 265.575V272.809C283.047 272.809 285.778 272.28 287.361 271.226C288.943 270.171 290.224 268.137 291.203 265.123L301.884 232.573H293.069L289.113 248.848L285.157 232.573H276.341ZM305.215 232.573V272.809H313.24V239.807H319.909V272.809H327.933V232.573H305.215ZM334.133 232.573V272.809H342.157V239.807H348.826V272.809H356.85V232.573H334.133ZM370.622 232.573L360.281 272.809H368.644L369.944 266.535H379.211L380.511 272.809H388.874L378.534 232.573H370.622ZM154.63 239.807V265.575H145.985C147.906 260.188 148.867 254.48 148.867 248.452V239.807H154.63ZM214.558 259.303H208.342L211.451 244.384L214.558 259.303ZM377.686 259.303H371.47L374.577 244.384L377.686 259.303ZM263.101 239.807C263.817 239.807 264.401 239.976 264.853 240.315C265.342 240.617 265.681 241.087 265.869 241.728C266.058 242.33 266.172 242.896 266.209 243.423C266.285 243.95 266.322 244.61 266.322 245.401C266.322 246.192 266.285 246.852 266.209 247.379C266.172 247.906 266.058 248.49 265.869 249.131C265.681 249.733 265.342 250.204 264.853 250.543C264.401 250.844 263.817 250.995 263.101 250.995H259.71V239.807H263.101ZM50.6995 25.4121C36.639 25.4124 25.1204 36.8416 25.1204 50.8242V190.003C25.1206 203.971 36.6249 215.414 50.6995 215.414H415.938C429.998 215.414 441.517 203.986 441.517 190.003V50.8096C441.517 36.841 430.012 25.4121 415.951 25.4121H50.6995Z" fill="#CDCDCD"/>
<path d="M104.805 52.1787C119.306 52.1788 130.81 56.3557 139.303 64.751C147.782 73.118 152.029 84.3915 152.029 98.5576C152.029 112.851 147.796 124.181 139.303 132.548C130.81 140.929 119.32 145.105 104.805 145.105H82.2935V185.347C82.2935 187.548 81.2426 188.648 79.1548 188.648H55.9048C53.8029 188.648 52.7661 187.548 52.7661 185.347V55.4805C52.7662 53.2795 53.8171 52.1788 55.9048 52.1787H104.805ZM191.272 52.1768C193.104 52.177 194.595 53.6585 194.595 55.4785V135.806L237.417 54.5332C238.183 53.0941 239.703 52.1769 241.35 52.1768H265.807C267.639 52.1768 269.131 53.6442 269.131 55.4785V185.345C269.131 187.165 267.639 188.646 265.807 188.646H242.927C240.839 188.646 239.789 187.546 239.789 185.345V105.032L196.967 186.29C196.2 187.729 194.68 188.646 193.033 188.646H168.391C166.289 188.646 165.252 187.546 165.252 185.345V55.4785C165.252 53.2774 166.303 52.1768 168.391 52.1768H191.272ZM315.716 52.1768C317.435 52.1768 318.984 53.1501 319.722 54.6738L352.232 121.978L384.742 54.6738C385.48 53.1501 387.043 52.1768 388.748 52.1768H412.153C414.241 52.1768 415.292 53.2774 415.292 55.4785V185.331C415.292 187.532 414.241 188.633 412.153 188.633H389.273C387.441 188.633 385.949 187.151 385.949 185.331V109.857L363.92 155.757C363.182 157.295 361.62 158.269 359.916 158.269H344.548C342.844 158.269 341.282 157.295 340.543 155.757L318.515 109.857V185.345C318.515 187.165 317.023 188.646 315.191 188.646H292.311C290.223 188.646 289.171 187.546 289.171 185.345V55.4785C289.171 53.2774 290.223 52.1768 292.311 52.1768H315.716ZM82.2935 79.2979V117.789H100.743C114.633 117.789 121.592 111.37 121.592 98.5439C121.592 85.7182 114.633 79.2979 100.743 79.2979H82.2935Z" fill="#CDCDCD"/>
<path d="M597.975 115.783L538.54 175.217M538.54 115.783L597.975 175.217" stroke="#CDCDCD" stroke-width="7.13217" stroke-linecap="round" stroke-linejoin="round"/>
<g clip-path="url(#clip0_1_428)">
<path d="M1164.35 111.004C1162.92 112.985 1163.52 114.966 1163.52 116.805C1163.52 142.967 1163.52 169.124 1163.52 195.274C1163.52 204.983 1160.19 208.29 1150.45 208.326C1141.98 208.326 1133.52 208.326 1125.05 208.326C1116.58 208.326 1112.67 204.665 1112.67 196.176C1112.67 139.466 1112.67 82.7435 1112.67 26.0095C1112.67 17.5914 1116.4 13.8421 1124.96 13.7183C1132.9 13.6299 1140.87 13.9306 1148.77 13.6299C1151.58 13.3781 1154.39 13.969 1156.86 15.3269C1159.32 16.6848 1161.33 18.7479 1162.62 21.2522C1182.54 54.3765 1202.69 87.3593 1222.73 120.395C1226.26 126.214 1226.26 126.196 1229.8 120.183C1249.53 86.7345 1269.26 53.2918 1288.99 19.8551C1289.97 17.9658 1291.47 16.3898 1293.3 15.3054C1295.13 14.2209 1297.23 13.6712 1299.36 13.7183C1308.54 13.7183 1317.72 13.5592 1326.89 13.7183C1334.23 13.8775 1337.83 17.6268 1337.87 25.0899C1338.08 82.3427 1338.25 139.589 1338.37 196.83C1338.37 204.647 1334.83 208.167 1326.96 208.255C1317.78 208.373 1308.61 208.373 1299.44 208.255C1291.11 208.167 1287.63 204.612 1287.59 196.141C1287.51 168.564 1287.45 140.998 1287.43 113.445V106.689C1283.24 110.845 1281.42 115.408 1278.98 119.476C1266.6 140.043 1254.23 160.629 1242.23 181.374C1239.01 186.909 1235.01 189.845 1228.58 189.173C1227.34 189.014 1226.1 189.014 1224.86 189.173C1216.43 190.428 1211.23 186.785 1206.92 179.446C1194.05 157.534 1180.54 135.993 1167.27 114.312C1166.61 113.197 1166.28 111.694 1164.35 111.004Z" fill="#CDCDCD"/>
<path d="M669.01 110.615C669.01 82.3191 669.01 54.0582 669.01 25.8327C669.01 17.7859 672.298 13.8245 679.776 13.8598C710.291 14.0013 740.841 12.4273 771.284 14.3373C813.715 17.0078 854.112 46.3474 863.464 94.0797C871.066 132.899 851.46 174.264 815.606 194.408C799.427 203.552 781.152 208.342 762.569 208.308C735.59 208.379 708.611 208.379 681.633 208.308C672.457 208.308 669.098 204.966 669.08 195.928C669.033 167.479 669.01 139.041 669.01 110.615ZM716.868 111.234C716.868 126.072 716.868 140.928 716.868 155.766C716.868 158.913 717.61 160.116 720.952 160.081C736.138 159.904 751.325 160.434 766.493 159.798C782.581 159.126 796.442 152.812 805.9 139.301C816.844 123.685 817.922 106.548 809.967 89.5169C801.428 71.1951 785.463 63.1484 766.034 62.211C751.236 61.486 736.386 62.2111 721.57 61.9458C717.858 61.9458 716.797 62.9892 716.85 66.7031C716.956 81.5409 716.832 96.308 716.832 111.234H716.868Z" fill="#CDCDCD"/>
<path d="M884.697 110.757C884.803 53.033 929.638 8.28949 987.237 8.48403C1044.84 8.67857 1089.92 53.8642 1089.78 111.571C1089.62 168.641 1044.11 213.756 986.707 213.703C929.302 213.65 884.697 168.464 884.697 110.757ZM934.624 110.262C934.305 141.441 955.839 164.078 986.442 164.715C1015.79 165.316 1039.28 142.237 1039.62 112.508C1039.96 80.6749 1018.58 58.0025 987.909 57.578C957.235 57.1536 934.959 79.0478 934.641 110.262H934.624Z" fill="#CDCDCD"/>
<path d="M932.255 220.105C933.717 220.391 935.025 221.203 935.932 222.386C935.932 224.508 937.488 224.561 939.043 224.544C940.764 225.109 942.27 226.189 943.357 227.638C943.357 229.672 944.736 229.867 946.257 229.92C952.808 234.415 958.603 239.925 963.423 246.243C963.423 247.764 963.794 248.931 965.651 248.896C969.496 252.587 972.704 256.89 975.144 261.629C973.164 264.388 975.622 264.317 977.178 264.83C977.877 265.374 978.458 266.054 978.886 266.829C979.315 267.605 979.582 268.459 979.67 269.34C979.264 270.932 979.67 272.046 981.438 272.24C983.299 274.825 984.721 277.699 985.646 280.747L984.514 282.126C982.102 282.534 979.633 282.462 977.248 281.914C976.594 280.782 975.869 280.659 975.074 281.79L970.848 281.56C969.558 278.572 967.613 279.314 965.545 280.658L963.405 280.446C962.212 279.213 960.685 278.354 959.012 277.974C957.339 277.594 955.591 277.71 953.982 278.306L951.755 277.758C951.136 276.396 949.987 276.467 948.855 276.838C947.663 277.056 946.432 276.816 945.408 276.167C943.057 273.125 939.609 272.842 936.179 272.523C934.411 272.806 933.121 271.568 931.636 270.967C931.406 269.676 931.088 268.562 929.567 269.959C929.147 270.051 928.709 270 928.321 269.814C927.934 269.629 927.619 269.318 927.428 268.933C927.145 267.165 926.031 266.882 924.529 267.253C923.861 267.285 923.195 267.162 922.582 266.895C921.969 266.629 921.425 266.225 920.993 265.715C920.798 263.61 919.225 263.752 917.757 263.787C917.341 263.814 916.927 263.717 916.565 263.51C916.204 263.302 915.911 262.993 915.724 262.62C915.53 260.851 914.451 260.533 912.966 260.851C912.228 260.759 911.52 260.503 910.893 260.102C910.266 259.701 909.736 259.166 909.342 258.534C909.201 256.766 908.122 256.377 906.602 256.624C904.729 255.99 903.103 254.784 901.952 253.176C901.974 252.729 901.892 252.283 901.714 251.873C901.535 251.463 901.264 251.1 900.921 250.813C900.579 250.525 900.175 250.32 899.74 250.215C899.306 250.109 898.852 250.106 898.416 250.205C895.616 248.641 893.2 246.472 891.345 243.856C891.37 243.278 891.274 242.701 891.065 242.162C890.855 241.622 890.535 241.133 890.127 240.724C889.718 240.315 889.228 239.995 888.689 239.785C888.15 239.575 887.573 239.48 886.996 239.505C883.317 236.374 880.165 232.672 877.661 228.54C877.661 227.019 877.466 225.693 875.522 225.658C875.165 225.521 874.859 225.278 874.644 224.962C874.429 224.646 874.316 224.271 874.32 223.889C874.32 221.714 873.948 219.698 871.261 219.273C869.524 217.809 868.329 215.803 867.867 213.579C868.008 211.315 867.743 209.281 865.038 208.645C863.667 207.074 862.783 205.138 862.492 203.074C862.616 202.03 862.74 200.987 862.881 199.943C867.104 199.542 871.363 199.763 875.522 200.598C876.6 203.074 878.103 202.649 879.765 201.217L882.929 201.5C883.813 204.117 885.369 203.71 887.119 202.419L889.276 202.702C889.824 204.648 890.867 204.878 892.37 203.622L894.562 204.153C895.004 205.302 895.605 205.833 896.613 204.665C898.898 204.684 901.13 205.353 903.048 206.593C905.647 210.042 909.66 209.759 913.267 210.537C916.501 211.079 919.543 212.436 922.107 214.481C922.46 215.966 923.539 216.108 924.776 215.895C925.294 215.839 925.817 215.935 926.281 216.17C926.746 216.405 927.132 216.771 927.393 217.222C928.029 219.769 930.027 220.105 932.255 220.105Z" fill="#CDCDCD"/>
<path d="M984.532 282.003L985.664 280.623C988.492 281.065 988.563 278.519 989.429 276.998C1007.69 244.864 1035.29 226.736 1072.1 222.58C1073.49 222.421 1074.93 222.58 1076.32 222.368C1080.09 221.979 1080.48 223.288 1078.92 226.542C1063.01 259.879 1023.11 284.143 986.636 282.445C985.926 282.345 985.223 282.197 984.532 282.003Z" fill="#CDCDCD"/>
<path d="M1338.84 247.18C1338.84 250.717 1338.84 254.254 1338.84 257.791C1338.84 261.328 1338.21 264.865 1343.79 265.201C1346.62 265.361 1345.01 268.738 1345.33 270.507C1345.7 272.665 1344.98 274.521 1342.59 274.857C1337.85 275.512 1332.97 276.29 1329.51 271.674C1328.36 270.136 1327.56 269.817 1325.72 271.037C1316.67 276.98 1307.6 276.75 1300.44 270.684C1296.54 267.312 1293.79 262.804 1292.57 257.791C1291.35 252.779 1291.73 247.511 1293.65 242.724C1298.87 229.884 1312.06 225.038 1324.03 231.547C1325.58 232.413 1326.06 232.731 1327.56 231.016C1330 228.328 1333.96 229.477 1337.04 230.079C1340.12 230.68 1338.58 233.934 1338.7 236.021C1339.05 239.752 1338.84 243.466 1338.84 247.18ZM1315.42 264.476C1318.65 264.403 1321.73 263.077 1324 260.779C1326.28 258.48 1327.57 255.388 1327.62 252.153C1327.66 248.918 1326.44 245.794 1324.23 243.438C1322.01 241.082 1318.97 239.678 1315.74 239.523C1312.5 239.596 1309.42 240.921 1307.15 243.22C1304.87 245.519 1303.58 248.611 1303.54 251.846C1303.5 255.08 1304.71 258.205 1306.93 260.561C1309.14 262.917 1312.19 264.321 1315.42 264.476Z" fill="#CDCDCD"/>
<path d="M1177.17 228.717C1181.23 228.504 1185.27 229.396 1188.87 231.299C1193.38 233.881 1196.03 237.56 1195.94 242.83C1195.91 245.225 1195.2 247.563 1193.89 249.572C1192.59 251.581 1190.74 253.18 1188.57 254.184C1182.13 257.721 1175.36 257.261 1168.47 256.359C1167.25 256.182 1165.6 254.838 1164.81 256.748C1164.21 258.181 1165.37 259.419 1166.26 260.515C1169.7 264.901 1177.63 266.758 1183.72 263.292C1189.17 260.197 1190.9 264.194 1193.48 266.829C1195.53 268.933 1193.13 269.853 1191.87 270.843C1184.17 276.962 1170.48 276.945 1161.57 270.843C1153.39 265.272 1150.03 254.396 1153.28 243.962C1156.23 234.536 1164.91 228.717 1176.16 228.646L1177.17 228.717ZM1173.63 249.091C1175.02 249.09 1176.41 248.983 1177.78 248.772C1180.65 248.153 1183.62 247.004 1183.37 243.573C1183.12 240.142 1180.22 239.24 1177.18 239.134C1174.91 238.874 1172.6 239.171 1170.47 240C1167.72 241.344 1164.58 243.307 1164.9 246.385C1165.25 249.798 1169.14 248.365 1171.49 248.967C1172.18 249.059 1172.87 249.101 1173.56 249.091H1173.63Z" fill="#CDCDCD"/>
<path d="M1202.57 251.796C1202.57 245.606 1202.73 239.416 1202.57 233.244C1202.43 229.177 1205.15 229.53 1207.5 229.884C1209.85 230.238 1214.08 227.691 1214.22 233.085C1214.19 233.786 1214.19 234.489 1214.22 235.19C1214.75 238.727 1212.35 244.404 1215.53 245.394C1220.66 247.003 1226.65 245.925 1232.29 245.783C1233.9 245.783 1233.76 244.015 1233.77 242.83C1233.77 240.884 1233.77 238.939 1233.77 236.994C1233.77 229.283 1234 229.177 1241.87 229.743C1244.36 229.937 1245.25 230.821 1245.25 233.28C1245.25 245.818 1245.14 258.357 1245.25 270.896C1245.25 275.052 1242.35 274.309 1240.1 274.062C1237.86 273.814 1233.95 276.078 1233.77 271.073C1233.77 270.542 1233.77 270.012 1233.77 269.481C1233.35 265.52 1235.75 259.737 1232.7 257.933C1227.99 255.174 1221.74 257.137 1216.13 257.066C1214.15 257.066 1214.22 258.835 1214.2 260.214C1214 262.857 1214 265.512 1214.2 268.155C1214.89 273.16 1212.82 274.38 1208.05 274.309C1203.77 274.309 1202.09 273.301 1202.43 268.738C1202.92 263.115 1202.57 257.455 1202.57 251.796Z" fill="#CDCDCD"/>
<path d="M1145.57 252.027C1145.57 258.199 1145.38 264.406 1145.57 270.561C1145.77 275.088 1142.73 274.292 1140.27 274.098C1137.81 273.903 1133.78 276.025 1133.85 270.561C1133.98 262.266 1133.71 253.954 1133.96 245.66C1134.06 241.875 1132.7 240.549 1129.08 240.938C1127.31 241.107 1125.54 241.107 1123.77 240.938C1120.77 240.708 1119.83 242.105 1119.73 244.988C1119.5 251.496 1119.58 258.075 1117.71 264.442C1115.68 271.268 1110.89 274.929 1104.17 275.053C1101.62 275.053 1099.29 274.558 1099.59 271.41C1099.82 269.022 1097.71 265.326 1102.49 264.866C1105.72 264.565 1106.8 262.284 1107.4 259.561C1109.17 251.355 1108.34 243.025 1108.48 234.801C1108.48 231.14 1109.56 229.832 1113.31 229.92C1122.64 230.15 1132 230.115 1141.35 229.92C1144.62 229.92 1145.64 230.981 1145.52 234.2C1145.43 240.018 1145.57 246.014 1145.57 252.027Z" fill="#CDCDCD"/>
<path d="M1270.11 229.813C1275.59 229.813 1281.05 229.973 1286.51 229.813C1291.46 229.619 1290.05 233.156 1290.05 235.649C1290.05 238.143 1291.13 240.955 1286.51 241.061C1276.26 241.362 1276.26 241.592 1276.26 251.849C1276.26 257.862 1276.01 263.875 1276.26 269.87C1276.56 275.264 1272.93 274.026 1269.93 274.221C1266.64 274.433 1264.18 274.309 1264.4 269.676C1264.77 261.753 1264.4 253.759 1264.55 245.836C1264.66 242.299 1263.69 240.424 1259.85 240.937C1258.8 241.008 1257.74 241.008 1256.69 240.937C1250.94 240.937 1248.25 236.675 1250.52 231.387C1251.28 229.619 1252.71 229.955 1254.05 229.849H1269.96L1270.11 229.813Z" fill="#CDCDCD"/>
<path d="M954.035 278.235C955.644 277.638 957.392 277.523 959.065 277.903C960.738 278.283 962.265 279.142 963.458 280.375C960.184 280.505 956.933 279.766 954.035 278.235Z" fill="#CDCDCD"/>
<path d="M913.302 210.43C909.767 209.652 905.683 209.935 903.084 206.486C906.726 207.194 910.368 207.901 913.302 210.43Z" fill="#CDCDCD"/>
<path d="M936.232 272.453C939.662 272.771 943.11 273.054 945.461 276.096C942.261 275.194 938.867 274.805 936.232 272.453Z" fill="#CDCDCD"/>
<path d="M887.031 239.363C887.609 239.338 888.185 239.434 888.724 239.643C889.263 239.853 889.753 240.173 890.162 240.582C890.571 240.991 890.89 241.481 891.1 242.02C891.31 242.559 891.405 243.136 891.38 243.714C889.427 242.874 887.871 241.317 887.031 239.363Z" fill="#CDCDCD"/>
<path d="M965.598 280.588C967.631 279.244 969.575 278.502 970.901 281.49C969.083 281.845 967.197 281.524 965.598 280.588Z" fill="#CDCDCD"/>
<path d="M879.8 201.111C878.138 202.543 876.635 202.968 875.557 200.492C876.268 200.294 877.013 200.247 877.744 200.353C878.474 200.46 879.175 200.718 879.8 201.111Z" fill="#CDCDCD"/>
<path d="M887.155 202.313C885.387 203.604 883.849 204.082 882.965 201.394C883.687 201.218 884.44 201.209 885.166 201.368C885.892 201.528 886.572 201.851 887.155 202.313Z" fill="#CDCDCD"/>
<path d="M865.073 208.539C867.778 209.176 868.043 211.21 867.902 213.473C867.115 212.891 866.457 212.152 865.97 211.303C865.483 210.454 865.178 209.513 865.073 208.539Z" fill="#CDCDCD"/>
<path d="M932.255 220.105C930.027 220.105 928.029 219.839 927.428 217.187C929.335 217.548 931.048 218.584 932.255 220.105Z" fill="#CDCDCD"/>
<path d="M871.296 219.167C873.984 219.591 874.284 221.608 874.355 223.783C873.537 223.286 872.839 222.614 872.31 221.817C871.782 221.019 871.435 220.114 871.296 219.167Z" fill="#CDCDCD"/>
<path d="M977.178 264.76C975.622 264.247 973.164 264.317 975.144 261.559C975.708 261.898 976.185 262.364 976.538 262.919C976.891 263.475 977.11 264.105 977.178 264.76Z" fill="#CDCDCD"/>
<path d="M898.452 250.063C898.888 249.964 899.341 249.968 899.775 250.073C900.21 250.178 900.614 250.383 900.957 250.671C901.299 250.958 901.57 251.321 901.749 251.731C901.928 252.141 902.01 252.587 901.988 253.034C901.209 252.845 900.485 252.478 899.872 251.963C899.258 251.447 898.772 250.797 898.452 250.063Z" fill="#CDCDCD"/>
<path d="M892.406 203.516C890.903 204.771 889.86 204.542 889.312 202.596C889.86 202.418 890.449 202.411 891.001 202.575C891.554 202.739 892.044 203.067 892.406 203.516Z" fill="#CDCDCD"/>
<path d="M862.916 199.838C862.775 200.881 862.651 201.924 862.527 202.968C861.467 202.278 860.6 201.412 861.219 200.067C861.52 199.395 862.262 199.325 862.916 199.838Z" fill="#CDCDCD"/>
<path d="M946.257 229.849C944.736 229.849 943.339 229.601 943.357 227.567C943.991 227.679 944.587 227.946 945.093 228.344C945.599 228.742 945.998 229.259 946.257 229.849Z" fill="#CDCDCD"/>
<path d="M917.864 263.716C919.349 263.716 920.904 263.539 921.099 265.643C920.452 265.577 919.827 265.37 919.269 265.037C918.71 264.704 918.23 264.253 917.864 263.716Z" fill="#CDCDCD"/>
<path d="M965.651 248.825C963.794 248.825 963.388 247.693 963.423 246.172C964.006 246.359 964.525 246.708 964.919 247.177C965.313 247.646 965.567 248.217 965.651 248.825Z" fill="#CDCDCD"/>
<path d="M875.557 225.517C877.502 225.517 877.749 226.878 877.696 228.399C877.104 228.17 876.588 227.778 876.21 227.268C875.831 226.757 875.605 226.15 875.557 225.517Z" fill="#CDCDCD"/>
<path d="M939.043 224.472C937.488 224.472 935.985 224.472 935.932 222.314C936.598 222.354 937.241 222.576 937.79 222.957C938.339 223.337 938.772 223.862 939.043 224.472Z" fill="#CDCDCD"/>
<path d="M906.708 256.483C908.228 256.236 909.307 256.642 909.448 258.393C908.866 258.336 908.308 258.131 907.829 257.796C907.349 257.462 906.963 257.01 906.708 256.483Z" fill="#CDCDCD"/>
<path d="M913.073 260.78C914.558 260.533 915.636 260.922 915.83 262.549C915.25 262.546 914.683 262.378 914.195 262.065C913.707 261.752 913.317 261.306 913.073 260.78Z" fill="#CDCDCD"/>
<path d="M924.812 215.79C923.574 216.002 922.496 215.79 922.142 214.375C922.679 214.297 923.227 214.393 923.707 214.647C924.187 214.901 924.574 215.301 924.812 215.79Z" fill="#CDCDCD"/>
<path d="M924.582 267.182C926.084 266.811 927.198 267.182 927.481 268.862C926.889 268.882 926.303 268.735 925.791 268.438C925.278 268.141 924.859 267.706 924.582 267.182Z" fill="#CDCDCD"/>
<path d="M929.62 269.888C931.141 268.491 931.388 269.605 931.689 270.896L929.62 269.888Z" fill="#CDCDCD"/>
<path d="M981.456 272.17C979.688 271.975 979.264 270.861 979.688 269.27C980.202 269.566 980.634 269.987 980.943 270.494C981.252 271 981.428 271.577 981.456 272.17Z" fill="#CDCDCD"/>
<path d="M896.648 204.559C895.641 205.726 895.04 205.196 894.598 204.046C894.938 203.844 895.344 203.785 895.728 203.881C896.112 203.977 896.443 204.221 896.648 204.559Z" fill="#CDCDCD"/>
<path d="M948.908 276.697C950.093 276.326 951.189 276.255 951.808 277.617C951.295 277.839 950.719 277.869 950.186 277.7C949.653 277.531 949.199 277.175 948.908 276.697Z" fill="#CDCDCD"/>
<path d="M975.091 281.719C975.887 280.587 976.612 280.711 977.266 281.843C976.952 282.095 976.557 282.222 976.155 282.199C975.753 282.176 975.374 282.005 975.091 281.719Z" fill="#CDCDCD"/>
<path d="M716.832 111.234C716.832 96.3786 716.956 81.5408 716.832 66.7029C716.832 62.989 717.84 61.8926 721.553 61.9456C736.368 62.1578 751.219 61.4858 766.016 62.2109C785.463 63.1482 801.375 71.1949 809.949 89.5168C817.905 106.548 816.826 123.684 805.883 139.3C796.301 152.9 782.493 159.126 766.405 159.798C751.236 160.434 736.05 159.904 720.863 160.081C717.522 160.081 716.744 158.913 716.779 155.765C716.921 140.927 716.832 126.072 716.832 111.234Z" fill="#FEFDFC"/>
<path d="M934.641 110.262C934.959 79.0477 957.094 57.2065 987.927 57.5779C1018.76 57.9493 1039.97 80.7101 1039.64 112.508C1039.3 142.237 1015.81 165.316 986.459 164.715C955.874 164.078 934.323 141.441 934.641 110.262Z" fill="#FEFDFC"/>
<path d="M1315.42 264.477C1312.19 264.321 1309.14 262.918 1306.93 260.562C1304.71 258.206 1303.5 255.081 1303.54 251.847C1303.58 248.612 1304.87 245.52 1307.15 243.221C1309.42 240.922 1312.5 239.597 1315.74 239.523C1318.97 239.679 1322.01 241.083 1324.23 243.439C1326.44 245.795 1327.66 248.919 1327.62 252.154C1327.57 255.389 1326.28 258.481 1324 260.78C1321.73 263.078 1318.65 264.404 1315.42 264.477Z" fill="#FEFDFC"/>
<path d="M1173.56 249.091C1172.84 249.105 1172.13 249.063 1171.42 248.967C1169.07 248.366 1165.18 249.798 1164.83 246.385C1164.51 243.308 1167.65 241.345 1170.39 240.001C1172.53 239.172 1174.84 238.874 1177.11 239.134C1180.15 239.24 1183.07 240.178 1183.3 243.573C1183.53 246.969 1180.58 248.154 1177.71 248.773C1176.34 248.984 1174.95 249.09 1173.56 249.091Z" fill="#FEFDFC"/>
</g>
<defs>
<clipPath id="clip0_1_428">
<rect width="676.551" height="274.031" fill="white" transform="translate(668.975 8.48438)"/>
</clipPath>
</defs>
</svg>
