<svg width="1340" height="222" viewBox="0 0 1340 222" fill="none" xmlns="http://www.w3.org/2000/svg">
    <path d="M317.103 0C338.498 0.000157772 356.014 17.4017 356.015 38.668V144.561C356.015 165.827 338.498 183.228 317.092 183.229H308.155V212.858C308.155 217.582 304.308 221.403 299.554 221.403H56.7549C52.0004 221.403 48.1536 217.582 48.1533 212.858V183.229H39.2168C17.8102 183.229 0.293001 165.827 0.292969 144.561V38.668C0.293132 17.4016 17.8103 0 39.2168 0H317.103ZM107.372 176.95V187.354C107.372 192.743 106.527 197.645 104.836 202.059H102.772V213.753H108.533V207.562H120.701V213.753H126.462V202.059H123.754V176.95H107.372ZM60.0732 176.95V207.562H66.1777V191.654L69.4453 202.102H72.584L75.9375 191.611V207.562H82.043V176.95H76.626L71.0361 191.955L65.4473 176.95H60.0732ZM86.7764 176.95V207.562H100.879V202.059H92.8818V194.879H99.7607V189.376H92.8818V182.453H100.879V176.95H86.7764ZM129.855 176.95V207.562H135.401L141.292 191.74V207.562H147.396V176.95H141.979L135.96 192.772V176.95H129.855ZM157.869 176.95L150.001 207.562H156.364L157.354 202.79H164.404L165.394 207.562H171.757L163.889 176.95H157.869ZM174.361 176.95V207.562H180.466V182.453H188.248V176.95H174.361ZM191.492 176.95V207.562H197.597V196.47H200.134C203.287 196.47 205.508 195.652 206.798 194.019C208.088 192.356 208.732 189.92 208.732 186.71C208.732 183.5 208.088 181.077 206.798 179.443C205.508 177.781 203.286 176.95 200.134 176.95H191.492ZM210.25 176.95L217.173 197.545L216.785 199.006C216.47 200.152 215.998 200.955 215.367 201.414C214.765 201.844 213.776 202.059 212.4 202.059V207.562C215.353 207.562 217.431 207.161 218.635 206.358C219.838 205.556 220.812 204.008 221.558 201.715L229.684 176.95H222.977L219.967 189.332L216.958 176.95H210.25ZM232.219 176.95V207.562H238.324V182.453H243.397V207.562H249.503V176.95H232.219ZM254.22 176.95V207.562H260.325V182.453H265.398V207.562H271.504V176.95H254.22ZM281.982 176.95L274.114 207.562H280.478L281.467 202.79H288.518L289.507 207.562H295.87L288.002 176.95H281.982ZM117.648 182.453V202.059H111.07C112.532 197.96 113.263 193.617 113.263 189.031V182.453H117.648ZM163.243 197.286H158.515L160.879 185.936L163.243 197.286ZM287.356 197.286H282.627L284.992 185.936L287.356 197.286ZM200.177 182.453C200.721 182.453 201.166 182.583 201.51 182.841C201.882 183.07 202.14 183.428 202.283 183.915C202.427 184.374 202.512 184.804 202.541 185.205C202.598 185.606 202.627 186.108 202.627 186.71C202.627 187.312 202.598 187.814 202.541 188.215C202.512 188.616 202.426 189.061 202.283 189.548C202.14 190.006 201.882 190.364 201.51 190.622C201.166 190.851 200.721 190.966 200.177 190.966H197.597V182.453H200.177ZM38.5742 19.335C27.8764 19.335 19.1133 28.0304 19.1133 38.6689V144.561C19.1133 155.188 27.8656 163.894 38.5742 163.895H316.46C327.158 163.895 335.922 155.199 335.922 144.561V38.6582C335.922 28.0303 327.169 19.335 316.471 19.335H38.5742Z" fill="#CDCDCD"/>
    <path d="M79.7393 39.7002C90.7721 39.7002 99.5254 42.8773 105.987 49.2646C112.438 55.6306 115.669 64.2083 115.669 74.9863C115.669 85.861 112.449 94.4817 105.987 100.848C99.5253 107.224 90.7829 110.402 79.7393 110.402H62.6123V141.019C62.6123 142.693 61.8121 143.531 60.2236 143.531H42.5342C40.9352 143.531 40.1465 142.693 40.1465 141.019V42.2119C40.1465 40.5374 40.946 39.7003 42.5342 39.7002H79.7393ZM145.526 39.6982C146.92 39.6982 148.054 40.8253 148.055 42.21V103.326L180.635 41.4912C181.218 40.3963 182.375 39.6983 183.628 39.6982H202.236C203.63 39.6984 204.764 40.8146 204.765 42.21V141.018C204.765 142.402 203.63 143.529 202.236 143.529H184.828C183.24 143.529 182.44 142.692 182.439 141.018V79.9121L149.859 141.736C149.276 142.831 148.12 143.529 146.866 143.529H128.118C126.519 143.529 125.73 142.692 125.729 141.018V42.21C125.73 40.5355 126.53 39.6982 128.118 39.6982H145.526ZM240.209 39.6982C241.516 39.6983 242.694 40.4393 243.256 41.5986L267.991 92.8057L292.726 41.5986C293.287 40.4394 294.476 39.6984 295.772 39.6982H313.581C315.169 39.6982 315.969 40.5355 315.969 42.21V141.007C315.969 142.681 315.169 143.519 313.581 143.519H296.173C294.779 143.519 293.645 142.392 293.645 141.007V83.584L276.884 118.506C276.322 119.676 275.133 120.416 273.837 120.416H262.145C260.848 120.416 259.66 119.676 259.098 118.506L242.338 83.584V141.018C242.338 142.402 241.202 143.529 239.809 143.529H222.4C220.812 143.529 220.013 142.692 220.013 141.018V42.21C220.013 40.5356 220.812 39.6983 222.4 39.6982H240.209ZM62.6123 60.333V89.6191H76.6494C87.2173 89.619 92.5117 84.7338 92.5117 74.9756C92.5116 65.2176 87.2173 60.3331 76.6494 60.333H62.6123Z" fill="#CDCDCD"/>
    <path d="M454.96 88.0918L409.74 133.312M409.74 88.0918L454.96 133.312" stroke="#CDCDCD" stroke-width="5.42641" stroke-linecap="round" stroke-linejoin="round"/>
    <path d="M673.597 119.509C688.097 119.509 699.42 122.687 707.564 129.043C715.708 135.399 719.78 144.206 719.78 155.462C719.78 166.718 715.709 175.525 707.564 181.882C699.42 188.238 688.097 191.416 673.597 191.416C659.096 191.416 647.773 188.238 639.629 181.882C631.485 175.525 627.412 166.718 627.412 155.462C627.412 144.206 631.485 135.399 639.629 129.043C647.773 122.687 659.096 119.509 673.597 119.509ZM573.836 125.468H580.987C593.435 125.468 602.838 127.983 609.194 133.016C615.617 138.048 618.828 145.067 618.828 154.072C618.828 163.077 615.617 170.096 609.194 175.128C602.838 180.094 593.435 182.577 580.987 182.577H573.836V190.225H553.973V182.577H546.821C534.373 182.577 524.937 180.094 518.515 175.128C512.158 170.096 508.981 163.077 508.98 154.072C508.98 145.067 512.158 138.048 518.515 133.016C524.937 127.983 534.373 125.468 546.821 125.468H553.973V119.509H573.836V125.468ZM780.622 120.7C788.965 120.7 795.851 122.654 801.28 126.561C806.776 130.401 809.523 136.26 809.523 144.14C809.523 152.019 806.909 157.747 801.678 161.322C796.447 164.832 789.428 166.586 780.622 166.586H753.11V190.225H732.451V120.7H780.622ZM876.018 178.107L893.994 120.7H930.146L930.048 190.225H910.283V131.924L889.724 190.225H861.814L841.255 131.924V190.225H821.49V120.7H857.643L876.018 178.107ZM1032.32 190.225H1011.26L1005.6 176.816H965.477L959.815 190.225H939.455L969.946 120.7H1001.73L1032.32 190.225ZM1104.49 137.585H1075.19V190.225H1054.53V137.585H1025.23V120.7H1104.49V137.585ZM1129.52 190.225H1108.07V171.155H1129.52V190.225ZM1193.03 120.7C1201.38 120.7 1208.26 122.654 1213.69 126.561C1219.19 130.401 1221.94 136.261 1221.94 144.14C1221.94 152.019 1219.32 157.747 1214.09 161.322C1208.86 164.831 1201.84 166.586 1193.03 166.586H1165.52V190.225H1144.86V120.7H1193.03ZM1294.59 125.468H1301.74C1314.19 125.468 1323.59 127.984 1329.94 133.016C1336.37 138.048 1339.58 145.067 1339.58 154.072C1339.58 163.077 1336.37 170.096 1329.94 175.128C1323.59 180.094 1314.19 182.577 1301.74 182.577H1294.59V190.225H1274.72V182.577H1267.57C1255.12 182.577 1245.69 180.094 1239.27 175.128C1232.91 170.096 1229.73 163.077 1229.73 154.072C1229.73 145.067 1232.91 138.048 1239.27 133.016C1245.69 127.984 1255.12 125.468 1267.57 125.468H1274.72V119.509H1294.59V125.468ZM673.597 136.294C665.519 136.294 659.228 138.048 654.726 141.558C650.289 145.001 648.071 149.635 648.071 155.462C648.071 161.289 650.289 165.957 654.726 169.467C659.228 172.91 665.519 174.631 673.597 174.631C681.675 174.631 687.932 172.91 692.368 169.467C696.871 165.957 699.122 161.289 699.122 155.462C699.122 149.635 696.87 145.001 692.368 141.558C687.932 138.048 681.675 136.294 673.597 136.294ZM548.013 141.458C535.763 141.458 529.639 145.663 529.639 154.072C529.639 158.243 531.096 161.388 534.009 163.507C536.988 165.559 541.656 166.586 548.013 166.586H553.973V141.458H548.013ZM573.836 166.586H579.796C586.152 166.586 590.787 165.559 593.7 163.507C596.68 161.388 598.17 158.243 598.17 154.072C598.17 145.663 592.045 141.458 579.796 141.458H573.836V166.586ZM1268.76 141.458C1256.51 141.458 1250.39 145.663 1250.39 154.072C1250.39 158.243 1251.85 161.388 1254.76 163.507C1257.74 165.559 1262.41 166.586 1268.76 166.586H1274.72V141.458H1268.76ZM1294.59 166.586H1300.55C1306.9 166.586 1311.54 165.559 1314.45 163.507C1317.43 161.388 1318.92 158.243 1318.92 154.072C1318.92 145.663 1312.8 141.458 1300.55 141.458H1294.59V166.586ZM972.131 161.322H999.047L985.539 129.54L972.131 161.322ZM753.11 150.695H779.629C785.786 150.695 788.865 148.51 788.865 144.14C788.865 139.77 785.786 137.585 779.629 137.585H753.11V150.695ZM1165.52 150.695H1192.04C1198.2 150.695 1201.28 148.51 1201.28 144.14C1201.28 139.77 1198.2 137.585 1192.04 137.585H1165.52V150.695ZM553.376 29.9863C564.831 29.9863 574.134 32.2044 581.285 36.6406C588.436 41.0107 592.806 46.9702 594.396 54.5186L574.531 55.8096C573.406 53.0948 570.922 50.9092 567.082 49.2539C563.242 47.5987 558.673 46.7715 553.376 46.7715C545.828 46.7715 540.001 48.5259 535.896 52.0352C531.857 55.4782 529.838 60.1138 529.838 65.9404C529.838 71.8332 531.957 76.5013 536.194 79.9443C540.498 83.3872 546.656 85.1083 554.667 85.1084C560.428 85.1084 565.096 84.1821 568.672 82.3281C572.314 80.4742 574.697 78.0567 575.822 75.0771L595.886 76.0703C594.495 84.5456 590.29 90.9688 583.271 95.3389C576.319 99.7089 566.784 101.894 554.667 101.894C540.233 101.893 529.043 98.7489 521.098 92.459C513.152 86.1026 509.179 77.2627 509.179 65.9404C509.179 54.618 513.052 45.8108 520.799 39.5205C528.546 33.1641 539.405 29.9864 553.376 29.9863ZM642.443 71.7002L660.817 31.1777H683.164L658.931 77.6602C655.885 83.4867 653.005 88.0222 650.29 91.2666C647.642 94.4448 644.397 96.9281 640.557 98.7158C636.716 100.437 632.081 101.298 626.651 101.298C622.745 101.298 618.242 101 613.144 100.404V84.3145C617.845 84.7117 621.586 84.9102 624.367 84.9102C626.584 84.9101 628.515 84.6819 630.158 84.2246L627.049 79.8447L594.074 31.1777H617.116L642.443 71.7002ZM1339.38 101.016H970.024V29.9863H1339.38V101.016ZM773.139 100.702H752.479V48.0625H713.149V100.702H692.49V31.1777H773.139V100.702ZM860.687 47.2676H810.529V57.7959H849.662V72.8926H810.529V84.6123H862.573V100.702H789.871V31.1777H860.687V47.2676ZM923.686 31.1777C932.028 31.1777 938.914 33.1316 944.344 37.0381C949.839 40.8784 952.588 46.738 952.588 54.6172C952.588 62.4966 949.972 68.2243 944.741 71.7998C939.51 75.3091 932.492 77.0635 923.686 77.0635H896.174V100.702H875.516V31.1777H923.686ZM896.174 61.1729H922.692C928.85 61.1728 931.929 58.9873 931.929 54.6172C931.929 50.2473 928.85 48.0625 922.692 48.0625H896.174V61.1729Z" fill="#CDCDCD"/>
</svg>
